<svg width="646" height="170" viewBox="0 0 646 170" fill="none" xmlns="http://www.w3.org/2000/svg">
<path opacity="0.08" d="M0.766001 168H-2.82839V171.594H0.766001V168ZM30.726 168V171.594H34.3204V168H30.726ZM30.726 70.844L34.0469 69.4688L27.1316 70.844H30.726ZM70.958 168L67.6371 169.375L68.556 171.594H70.958V168ZM93.642 168V171.594H96.0489L96.9655 169.369L93.642 168ZM133.66 70.844H137.254L130.337 69.4751L133.66 70.844ZM133.66 168H130.066V171.594H133.66V168ZM163.62 168V171.594H167.214V168H163.62ZM163.62 18.628H167.214V15.0336H163.62V18.628ZM129.808 18.628V15.0336H127.436L126.503 17.2144L129.808 18.628ZM82.3 129.694L78.9952 131.108L82.3 138.834L85.6048 131.108L82.3 129.694ZM34.792 18.628L38.0968 17.2144L37.1639 15.0336H34.792V18.628ZM0.766001 18.628V15.0336H-2.82839V18.628H0.766001ZM0.766001 171.594H30.726V164.406H0.766001V171.594ZM34.3204 168V70.844H27.1316V168H34.3204ZM27.4051 72.2192L67.6371 169.375L74.2789 166.625L34.0469 69.4688L27.4051 72.2192ZM70.958 171.594H93.642V164.406H70.958V171.594ZM96.9655 169.369L136.984 72.2129L130.337 69.4751L90.3185 166.631L96.9655 169.369ZM130.066 70.844V168H137.254V70.844H130.066ZM133.66 171.594H163.62V164.406H133.66V171.594ZM167.214 168V18.628H160.026V168H167.214ZM163.62 15.0336H129.808V22.2224H163.62V15.0336ZM126.503 17.2144L78.9952 128.28L85.6048 131.108L133.113 20.0416L126.503 17.2144ZM85.6048 128.28L38.0968 17.2144L31.4872 20.0416L78.9952 131.108L85.6048 128.28ZM34.792 15.0336H0.766001V22.2224H34.792V15.0336ZM-2.82839 18.628V168H4.3604V18.628H-2.82839ZM272.421 97.594V101.188H276.115L276.014 97.4956L272.421 97.594ZM216.139 97.594L212.581 97.0791L211.987 101.188H216.139V97.594ZM300.455 130.764L303.903 131.778L305.258 127.17H300.455V130.764ZM268.141 130.764V127.17H265.892L264.908 129.192L268.141 130.764ZM215.925 117.71V114.116H212.01L212.343 118.016L215.925 117.71ZM302.595 117.71V121.304H305.64L306.14 118.301L302.595 117.71ZM244.173 75.7224C258.023 75.7224 268.463 84.3837 268.828 97.6924L276.014 97.4956C275.522 79.5603 261.138 68.5336 244.173 68.5336V75.7224ZM272.421 93.9996H216.139V101.188H272.421V93.9996ZM219.696 98.1089C220.767 90.709 223.836 85.1581 228.037 81.4598C232.239 77.7598 237.79 75.7224 244.173 75.7224V68.5336C236.217 68.5336 228.928 71.0971 223.286 76.0642C217.643 81.0329 213.864 88.215 212.581 97.0791L219.696 98.1089ZM300.455 127.17H268.141V134.358H300.455V127.17ZM264.908 129.192C263.192 132.719 260.839 135.757 257.626 137.921C254.436 140.07 250.178 141.508 244.387 141.508V148.696C251.435 148.696 257.129 146.924 261.642 143.883C266.133 140.858 269.237 136.727 271.373 132.336L264.908 129.192ZM244.387 141.508C237.696 141.508 231.855 139.319 227.534 135.342C223.223 131.373 220.189 125.402 219.506 117.404L212.343 118.016C213.158 127.566 216.865 135.291 222.665 140.631C228.457 145.962 236.097 148.696 244.387 148.696V141.508ZM215.925 121.304H302.595V114.116H215.925V121.304ZM306.14 118.301C306.824 114.196 307.045 110.135 307.045 106.154H299.856C299.856 109.877 299.649 113.52 299.049 117.119L306.14 118.301ZM307.045 106.154C307.045 87.654 300.693 72.0391 289.611 61.0432C278.535 50.0526 262.981 43.9236 245.029 43.9236V51.1124C261.316 51.1124 274.974 56.6464 284.548 66.1463C294.117 75.6409 299.856 89.344 299.856 106.154H307.045ZM245.029 43.9236C226.651 43.9236 210.812 50.1589 199.564 61.5508C188.316 72.9422 181.942 89.2004 181.942 108.722H189.131C189.131 90.7936 194.955 76.4498 204.679 66.6017C214.403 56.7541 228.31 51.1124 245.029 51.1124V43.9236ZM181.942 108.722C181.942 128.167 188.496 144.418 199.811 155.819C211.123 167.217 226.949 173.52 245.029 173.52V166.332C228.654 166.332 214.734 160.651 204.914 150.756C195.096 140.864 189.131 126.513 189.131 108.722H181.942ZM245.029 173.52C275.956 173.52 297.037 155.122 303.903 131.778L297.006 129.75C291.032 150.062 272.737 166.332 245.029 166.332V173.52ZM410.705 150.452H414.299V138.281L407.687 148.499L410.705 150.452ZM410.705 168H407.11V171.594H410.705V168ZM441.093 168V171.594H444.687V168H441.093ZM441.093 9.64H444.687V6.0456H441.093V9.64ZM410.705 9.64V6.0456H407.11V9.64H410.705ZM410.705 65.922L407.803 68.0427L414.299 76.9327V65.922H410.705ZM314.02 108.294C314.02 146.958 339.271 173.52 371.757 173.52V166.332C343.895 166.332 321.209 143.674 321.209 108.294H314.02ZM371.757 173.52C391.564 173.52 405.982 164.367 413.722 152.405L407.687 148.499C401.304 158.365 389.186 166.332 371.757 166.332V173.52ZM407.11 150.452V168H414.299V150.452H407.11ZM410.705 171.594H441.093V164.406H410.705V171.594ZM444.687 168V9.64H437.498V168H444.687ZM441.093 6.0456H410.705V13.2344H441.093V6.0456ZM407.11 9.64V65.922H414.299V9.64H407.11ZM413.607 63.8012C404.724 51.6458 388.608 43.9236 371.971 43.9236V51.1124C386.577 51.1124 400.421 57.9421 407.803 68.0427L413.607 63.8012ZM371.971 43.9236C339.344 43.9236 314.02 69.5499 314.02 108.294H321.209C321.209 72.9941 343.821 51.1124 371.971 51.1124V43.9236ZM407.324 108.722C407.324 119.127 403.874 126.907 398.804 132.071C393.714 137.255 386.792 140.01 379.461 140.01V147.198C388.608 147.198 397.415 143.747 403.934 137.108C410.473 130.448 414.513 120.786 414.513 108.722H407.324ZM379.461 140.01C365.517 140.01 351.811 128.903 351.811 108.294H344.622C344.622 132.625 361.304 147.198 379.461 147.198V140.01ZM351.811 108.294C351.811 97.9067 355.302 90.2418 360.362 85.1824C365.45 80.0941 372.327 77.4344 379.461 77.4344V70.2456C370.544 70.2456 361.8 73.5779 355.278 80.0991C348.728 86.6491 344.622 96.2113 344.622 108.294H351.811ZM379.461 77.4344C386.792 77.4344 393.714 80.1889 398.804 85.373C403.874 90.5365 407.324 98.3165 407.324 108.722H414.513C414.513 96.6575 410.473 86.9965 403.934 80.3364C397.415 73.6971 388.608 70.2456 379.461 70.2456V77.4344ZM470.354 168H466.759V171.594H470.354V168ZM500.314 168V171.594H503.908V168H500.314ZM500.314 49.444H503.908V45.8496H500.314V49.444ZM470.354 49.444V45.8496H466.759V49.444H470.354ZM470.354 171.594H500.314V164.406H470.354V171.594ZM503.908 168V49.444H496.719V168H503.908ZM500.314 45.8496H470.354V53.0384H500.314V45.8496ZM466.759 49.444V168H473.948V49.444H466.759ZM485.548 38.9144C497.877 38.9144 507.546 29.7403 507.546 17.772H500.357C500.357 25.4917 494.191 31.7256 485.548 31.7256V38.9144ZM507.546 17.772C507.546 5.80374 497.877 -3.3704 485.548 -3.3704V3.81839C494.191 3.81839 500.357 10.0523 500.357 17.772H507.546ZM485.548 -3.3704C472.977 -3.3704 463.549 5.83086 463.549 17.772H470.738C470.738 10.0251 476.719 3.81839 485.548 3.81839V-3.3704ZM463.549 17.772C463.549 29.7131 472.977 38.9144 485.548 38.9144V31.7256C476.719 31.7256 470.738 25.5189 470.738 17.772H463.549ZM615.514 150.666H619.109V139.093L612.552 148.63L615.514 150.666ZM615.514 168H611.92V171.594H615.514V168ZM645.688 168V171.594H649.283V168H645.688ZM645.688 49.444H649.283V45.8496H645.688V49.444ZM615.514 49.444V45.8496H611.92V49.444H615.514ZM615.514 66.35L612.594 68.4452L619.109 77.5267V66.35H615.514ZM518.616 108.294C518.616 146.948 543.858 173.52 576.138 173.52V166.332C548.499 166.332 525.805 143.684 525.805 108.294H518.616ZM576.138 173.52C596.189 173.52 610.764 163.92 618.476 152.702L612.552 148.63C606.141 157.956 593.752 166.332 576.138 166.332V173.52ZM611.92 150.666V168H619.109V150.666H611.92ZM615.514 171.594H645.688V164.406H615.514V171.594ZM649.283 168V49.444H642.094V168H649.283ZM645.688 45.8496H615.514V53.0384H645.688V45.8496ZM611.92 49.444V66.35H619.109V49.444H611.92ZM618.435 64.2548C610.747 53.5376 596.638 43.9236 576.352 43.9236V51.1124C594.159 51.1124 606.158 59.4744 612.594 68.4452L618.435 64.2548ZM576.352 43.9236C543.931 43.9236 518.616 69.5595 518.616 108.294H525.805C525.805 72.9845 548.426 51.1124 576.352 51.1124V43.9236ZM611.92 108.722C611.92 119.127 608.47 126.907 603.4 132.071C598.31 137.255 591.387 140.01 584.056 140.01V147.198C593.204 147.198 602.01 143.747 608.529 137.108C615.069 130.448 619.109 120.786 619.109 108.722H611.92ZM584.056 140.01C570.113 140.01 556.407 128.903 556.407 108.294H549.218C549.218 132.625 565.9 147.198 584.056 147.198V140.01ZM556.407 108.294C556.407 97.9067 559.898 90.2418 564.957 85.1824C570.046 80.0941 576.923 77.4344 584.056 77.4344V70.2456C575.14 70.2456 566.395 73.5779 559.874 80.0991C553.324 86.6491 549.218 96.2113 549.218 108.294H556.407ZM584.056 77.4344C591.387 77.4344 598.31 80.1889 603.4 85.373C608.47 90.5365 611.92 98.3165 611.92 108.722H619.109C619.109 96.6575 615.069 86.9965 608.529 80.3364C602.01 73.6971 593.204 70.2456 584.056 70.2456V77.4344Z" fill="#D8D8D8"/>
</svg>
