<svg width="19" height="19" viewBox="0 0 19 19" fill="none" xmlns="http://www.w3.org/2000/svg">
<path d="M16.2936 4.51626C16.2936 5.26372 15.6877 5.86966 14.9402 5.86966C14.1928 5.86966 13.5868 5.26372 13.5868 4.51626C13.5868 3.76879 14.1928 3.16286 14.9402 3.16286C15.6877 3.16286 16.2936 3.76879 16.2936 4.51626Z" fill="#F7C003"/>
<path fill-rule="evenodd" clip-rule="evenodd" d="M9.97775 13.9901C12.4693 13.9901 14.4891 11.9703 14.4891 9.47873C14.4891 6.98719 12.4693 4.96739 9.97775 4.96739C7.48621 4.96739 5.46641 6.98719 5.46641 9.47873C5.46641 11.9703 7.48621 13.9901 9.97775 13.9901ZM9.97775 12.1855C11.4727 12.1855 12.6846 10.9737 12.6846 9.47873C12.6846 7.9838 11.4727 6.77193 9.97775 6.77193C8.48283 6.77193 7.27095 7.9838 7.27095 9.47873C7.27095 10.9737 8.48283 12.1855 9.97775 12.1855Z" fill="#F7C003"/>
<path fill-rule="evenodd" clip-rule="evenodd" d="M0.955078 9.11782C0.955078 6.08592 0.955078 4.56997 1.54513 3.41193C2.06415 2.3933 2.89232 1.56512 3.91096 1.0461C5.06899 0.456055 6.58494 0.456055 9.61684 0.456055H10.3387C13.3706 0.456055 14.8865 0.456055 16.0445 1.0461C17.0632 1.56512 17.8914 2.3933 18.4104 3.41193C19.0004 4.56997 19.0004 6.08592 19.0004 9.11782V9.83963C19.0004 12.8715 19.0004 14.3875 18.4104 15.5455C17.8914 16.5642 17.0632 17.3923 16.0445 17.9114C14.8865 18.5014 13.3706 18.5014 10.3387 18.5014H9.61684C6.58494 18.5014 5.06899 18.5014 3.91096 17.9114C2.89232 17.3923 2.06415 16.5642 1.54513 15.5455C0.955078 14.3875 0.955078 12.8715 0.955078 9.83963V9.11782ZM9.61684 2.26059H10.3387C11.8844 2.26059 12.9352 2.26199 13.7474 2.32835C14.5385 2.39299 14.9431 2.51015 15.2253 2.65395C15.9044 2.99997 16.4565 3.55209 16.8025 4.23118C16.9463 4.5134 17.0635 4.91799 17.1281 5.70912C17.1945 6.52132 17.1959 7.57209 17.1959 9.11782V9.83963C17.1959 11.3854 17.1945 12.4361 17.1281 13.2483C17.0635 14.0395 16.9463 14.4441 16.8025 14.7263C16.4565 15.4054 15.9044 15.9575 15.2253 16.3035C14.9431 16.4473 14.5385 16.5645 13.7474 16.6291C12.9352 16.6955 11.8844 16.6969 10.3387 16.6969H9.61684C8.07112 16.6969 7.02035 16.6955 6.20815 16.6291C5.41701 16.5645 5.01243 16.4473 4.7302 16.3035C4.05111 15.9575 3.49899 15.4054 3.15298 14.7263C3.00918 14.4441 2.89201 14.0395 2.82738 13.2483C2.76102 12.4361 2.75961 11.3854 2.75961 9.83963V9.11782C2.75961 7.57209 2.76102 6.52132 2.82738 5.70912C2.89201 4.91799 3.00918 4.5134 3.15298 4.23118C3.49899 3.55209 4.05111 2.99997 4.7302 2.65395C5.01243 2.51015 5.41701 2.39299 6.20815 2.32835C7.02035 2.26199 8.07112 2.26059 9.61684 2.26059Z" fill="#F7C003"/>
</svg>
