<svg width="46" height="46" viewBox="0 0 46 46" fill="none" xmlns="http://www.w3.org/2000/svg">
<circle cx="22.789" cy="22.9785" r="22.3984" fill="#F7C003"/>
<path d="M31.2306 16.6327C31.2306 17.6071 30.4407 18.397 29.4663 18.397C28.4919 18.397 27.702 17.6071 27.702 16.6327C27.702 15.6583 28.4919 14.8684 29.4663 14.8684C30.4407 14.8684 31.2306 15.6583 31.2306 16.6327Z" fill="#212121"/>
<path fill-rule="evenodd" clip-rule="evenodd" d="M22.9973 28.9827C26.2452 28.9827 28.8782 26.3497 28.8782 23.1018C28.8782 19.8538 26.2452 17.2208 22.9973 17.2208C19.7493 17.2208 17.1163 19.8538 17.1163 23.1018C17.1163 26.3497 19.7493 28.9827 22.9973 28.9827ZM22.9973 26.6303C24.946 26.6303 26.5258 25.0505 26.5258 23.1018C26.5258 21.153 24.946 19.5732 22.9973 19.5732C21.0485 19.5732 19.4687 21.153 19.4687 23.1018C19.4687 25.0505 21.0485 26.6303 22.9973 26.6303Z" fill="#212121"/>
<path fill-rule="evenodd" clip-rule="evenodd" d="M11.2354 22.6313C11.2354 18.6789 11.2354 16.7027 12.0045 15.1931C12.6811 13.8652 13.7607 12.7856 15.0886 12.109C16.5982 11.3398 18.5744 11.3398 22.5268 11.3398H23.4677C27.4201 11.3398 29.3963 11.3398 30.9059 12.109C32.2338 12.7856 33.3134 13.8652 33.99 15.1931C34.7592 16.7027 34.7592 18.6789 34.7592 22.6313V23.5722C34.7592 27.5246 34.7592 29.5008 33.99 31.0104C33.3134 32.3383 32.2338 33.4179 30.9059 34.0945C29.3963 34.8637 27.4201 34.8637 23.4677 34.8637H22.5268C18.5744 34.8637 16.5982 34.8637 15.0886 34.0945C13.7607 33.4179 12.6811 32.3383 12.0045 31.0104C11.2354 29.5008 11.2354 27.5246 11.2354 23.5722V22.6313ZM22.5268 13.6922H23.4677C25.4827 13.6922 26.8525 13.6941 27.9113 13.7806C28.9426 13.8648 29.47 14.0176 29.8379 14.205C30.7232 14.6561 31.4429 15.3758 31.894 16.2611C32.0815 16.629 32.2342 17.1564 32.3185 18.1877C32.405 19.2465 32.4068 20.6163 32.4068 22.6313V23.5722C32.4068 25.5872 32.405 26.957 32.3185 28.0158C32.2342 29.0471 32.0815 29.5745 31.894 29.9424C31.4429 30.8277 30.7232 31.5474 29.8379 31.9985C29.47 32.186 28.9426 32.3387 27.9113 32.4229C26.8525 32.5095 25.4827 32.5113 23.4677 32.5113H22.5268C20.5118 32.5113 19.142 32.5095 18.0832 32.4229C17.0519 32.3387 16.5245 32.186 16.1566 31.9985C15.2713 31.5474 14.5516 30.8277 14.1005 29.9424C13.9131 29.5745 13.7603 29.0471 13.6761 28.0158C13.5896 26.957 13.5877 25.5872 13.5877 23.5722V22.6313C13.5877 20.6163 13.5896 19.2465 13.6761 18.1877C13.7603 17.1564 13.9131 16.629 14.1005 16.2611C14.5516 15.3758 15.2713 14.6561 16.1566 14.205C16.5245 14.0176 17.0519 13.8648 18.0832 13.7806C19.142 13.6941 20.5118 13.6922 22.5268 13.6922Z" fill="#212121"/>
</svg>
