<svg width="45" height="46" viewBox="0 0 45 46" fill="none" xmlns="http://www.w3.org/2000/svg">
<circle cx="22.5859" cy="22.9785" r="22.3984" fill="#F7C003"/>
<path d="M16.5079 14.6692C16.5079 16.1325 15.2395 17.3188 13.6748 17.3188C12.1102 17.3188 10.8418 16.1325 10.8418 14.6692C10.8418 13.2058 12.1102 12.0195 13.6748 12.0195C15.2395 12.0195 16.5079 13.2058 16.5079 14.6692Z" fill="#212121"/>
<path d="M11.2292 19.2664H16.072V33.9413H11.2292V19.2664Z" fill="#212121"/>
<path d="M23.869 19.2664H19.0261V33.9413H23.869C23.869 33.9413 23.869 29.3214 23.869 26.4329C23.869 24.6991 24.4609 22.9578 26.8231 22.9578C29.4926 22.9578 29.4765 25.2267 29.464 26.9844C29.4478 29.2821 29.4866 31.6268 29.4866 33.9413H34.3294V26.1962C34.2884 21.2508 32.9997 18.972 28.7602 18.972C26.2425 18.972 24.6818 20.115 23.869 21.1492V19.2664Z" fill="#212121"/>
</svg>
