<svg width="18" height="17" viewBox="0 0 18 17" fill="none" xmlns="http://www.w3.org/2000/svg">
<path d="M4.73311 2.3075C4.73311 3.39421 3.79118 4.27516 2.62925 4.27516C1.46732 4.27516 0.525391 3.39421 0.525391 2.3075C0.525391 1.22079 1.46732 0.339844 2.62925 0.339844C3.79118 0.339844 4.73311 1.22079 4.73311 2.3075Z" fill="#F7C003"/>
<path d="M0.813098 5.72147H4.40944V16.6193H0.813098V5.72147Z" fill="#F7C003"/>
<path d="M10.1995 5.72147H6.6032V16.6193H10.1995C10.1995 16.6193 10.1995 13.1885 10.1995 11.0434C10.1995 9.75589 10.6392 8.46274 12.3933 8.46274C14.3757 8.46274 14.3638 10.1477 14.3545 11.453C14.3424 13.1592 14.3713 14.9005 14.3713 16.6193H17.9676V10.8677C17.9372 7.19508 16.9802 5.50284 13.8318 5.50284C11.9622 5.50284 10.8032 6.35167 10.1995 7.11963V5.72147Z" fill="#F7C003"/>
</svg>
