<svg width="46" height="46" viewBox="0 0 46 46" fill="none" xmlns="http://www.w3.org/2000/svg">
<circle cx="23.3818" cy="22.9785" r="22.3984" fill="#F7C003"/>
<path d="M15.3833 26.6395C15.5372 25.3652 16.0599 24.6516 17.0448 23.9202C18.4541 22.9296 20.2145 23.49 20.2145 23.49V20.1657C20.6425 20.1548 21.0706 20.1801 21.4939 20.2415V24.5195C21.4939 24.5195 19.7341 23.9591 18.3248 24.9503C17.3404 25.6812 16.8166 26.3952 16.6633 27.6696C16.6585 28.3616 16.7883 29.2661 17.3863 30.0483C17.2385 29.9725 17.0878 29.8861 16.9342 29.7891C15.6169 28.9045 15.3769 27.5774 15.3833 26.6395ZM28.7626 14.0192C27.7931 12.9569 27.4265 11.8843 27.294 11.1309H28.5135C28.5135 11.1309 28.2704 13.1065 30.0425 15.0493L30.0671 15.0754C29.5895 14.7749 29.1515 14.4203 28.7626 14.0192ZM34.6375 17.031V21.2229C34.6375 21.2229 33.0812 21.162 31.9296 20.869C30.3215 20.4592 29.2879 19.8307 29.2879 19.8307C29.2879 19.8307 28.5739 19.3826 28.5162 19.3513V28.0076C28.5162 28.4896 28.3842 29.6933 27.9818 30.6973C27.4564 32.0106 26.6457 32.8726 26.4966 33.0488C26.4966 33.0488 25.5106 34.2141 23.7711 34.9988C22.2031 35.7067 20.8264 35.6887 20.4149 35.7067C20.4149 35.7067 18.0351 35.8009 15.8937 34.4092C15.4306 34.1025 14.9984 33.7551 14.6025 33.3715L14.6132 33.3792C16.7552 34.7709 19.1344 34.6766 19.1344 34.6766C19.5465 34.6587 20.9231 34.6766 22.4906 33.9687C24.2285 33.184 25.2161 32.0188 25.2161 32.0188C25.3636 31.8426 26.1781 30.9805 26.7013 29.6667C27.1027 28.6633 27.2357 27.4591 27.2357 26.9771V18.3218C27.2934 18.3535 28.0069 18.8017 28.0069 18.8017C28.0069 18.8017 29.041 19.4307 30.6491 19.84C31.8013 20.1329 33.357 20.1939 33.357 20.1939V16.9091C33.8893 17.0284 34.343 17.0607 34.6375 17.031Z" fill="#212121"/>
<path d="M33.3584 16.9091V20.1929C33.3584 20.1929 31.8027 20.1319 30.6505 19.8389C29.0424 19.4292 28.0083 18.8007 28.0083 18.8007C28.0083 18.8007 27.2948 18.3525 27.2371 18.3207V26.9781C27.2371 27.4601 27.1051 28.6643 26.7027 29.6677C26.1774 30.9815 25.3666 31.8436 25.2175 32.0198C25.2175 32.0198 24.231 33.1851 22.492 33.9698C20.9245 34.6776 19.5479 34.6597 19.1358 34.6776C19.1358 34.6776 16.7566 34.7719 14.6146 33.3802L14.6039 33.3725C14.3778 33.1535 14.1649 32.9223 13.9664 32.68C13.2828 31.8467 12.8639 30.8612 12.7586 30.58C12.7584 30.5788 12.7584 30.5776 12.7586 30.5764C12.5892 30.0877 12.2332 28.9143 12.2819 27.7777C12.3679 25.7724 13.0733 24.5415 13.2599 24.2332C13.7538 23.3923 14.3963 22.64 15.1587 22.0097C15.8314 21.4658 16.5939 21.033 17.415 20.7291C18.3026 20.3724 19.253 20.1811 20.2154 20.1657V23.49C20.2154 23.49 18.455 22.9316 17.0462 23.9202C16.0613 24.6516 15.5386 25.3652 15.3847 26.6395C15.3783 27.5774 15.6183 28.9045 16.9345 29.7896C17.0881 29.8869 17.2388 29.9733 17.3867 30.0488C17.6166 30.3477 17.8965 30.6082 18.215 30.8197C19.5008 31.6336 20.5782 31.6904 21.956 31.1618C22.8746 30.8084 23.5662 30.0119 23.8868 29.1294C24.0883 28.5782 24.0856 28.0235 24.0856 27.4498V11.1309H27.2922C27.4247 11.8843 27.7913 12.9569 28.7608 14.0192C29.1496 14.4203 29.5877 14.7749 30.0653 15.0754C30.2064 15.2214 30.9278 15.9431 31.854 16.3861C32.3329 16.6151 32.8377 16.7906 33.3584 16.9091Z" fill="#212121"/>
<path d="M17.4146 20.7312C16.5935 21.035 15.831 21.4678 15.1582 22.0117C14.3956 22.6434 13.7533 23.3973 13.26 24.2398C13.0734 24.5471 12.368 25.779 12.282 27.7843C12.2333 28.9209 12.5893 30.0944 12.7587 30.583C12.7585 30.5842 12.7585 30.5854 12.7587 30.5866C12.8656 30.8652 13.2829 31.8507 13.9665 32.6867C14.165 32.929 14.3779 33.1602 14.604 33.3792C13.8795 32.8989 13.2333 32.3182 12.6865 31.6561C12.0089 30.8299 11.591 29.8546 11.4819 29.5668C11.4818 29.5647 11.4818 29.5627 11.4819 29.5606V29.5571C11.312 29.0689 10.955 27.8949 11.0047 26.7568C11.0907 24.7515 11.7962 23.5207 11.9827 23.2123C12.4759 22.3698 13.1182 21.6158 13.881 20.9842C14.5536 20.4401 15.3161 20.0073 16.1373 19.7037C16.6495 19.5 17.183 19.3497 17.7288 19.2555C18.5512 19.1179 19.3912 19.106 20.2176 19.2202V20.1677C19.2543 20.1829 18.303 20.3741 17.4146 20.7312Z" fill="#212121"/>
<path d="M27.2934 11.1321H24.0869V27.4516C24.0869 28.0253 24.0869 28.5785 23.888 29.1312C23.5642 30.0132 22.8753 30.8097 21.9572 31.1631C20.5789 31.6937 19.5015 31.6348 18.2162 30.8209C17.8972 30.6104 17.6166 30.3508 17.3857 30.0526C18.4808 30.6125 19.4609 30.6027 20.6751 30.1356C21.5927 29.7822 22.2826 28.9857 22.6054 28.1032C22.8074 27.552 22.8048 26.9973 22.8048 26.4241V10.1016H27.2325C27.2325 10.1016 27.1828 10.5072 27.2934 11.1321ZM33.3569 16.0022V16.9104C32.8371 16.7917 32.3332 16.6162 31.8552 16.3874C30.929 15.9443 30.2076 15.2226 30.0665 15.0767C30.2302 15.1797 30.4001 15.2734 30.5753 15.3573C31.7013 15.8962 32.8102 16.057 33.3569 16.0022Z" fill="#212121"/>
</svg>
