<svg width="17" height="19" viewBox="0 0 17 19" fill="none" xmlns="http://www.w3.org/2000/svg">
<path d="M3.42576 12.0356C3.53105 11.1638 3.88862 10.6757 4.56244 10.1753C5.52656 9.49758 6.73088 9.88093 6.73088 9.88093V7.60674C7.02366 7.59926 7.31656 7.61662 7.60615 7.65861V10.5853C7.60615 10.5853 6.40219 10.2019 5.43808 10.88C4.76462 11.38 4.40633 11.8685 4.3014 12.7403C4.29811 13.2137 4.38695 13.8326 4.79607 14.3676C4.69492 14.3158 4.59181 14.2567 4.48676 14.1903C3.58553 13.5852 3.42137 12.6772 3.42576 12.0356ZM12.5788 3.40177C11.9156 2.67501 11.6648 1.94124 11.5741 1.42578H12.4084C12.4084 1.42578 12.2421 2.77733 13.4545 4.10645L13.4713 4.12432C13.1445 3.91879 12.8449 3.67618 12.5788 3.40177ZM16.598 5.46221V8.33C16.598 8.33 15.5333 8.2883 14.7454 8.08786C13.6453 7.80753 12.9382 7.37757 12.9382 7.37757C12.9382 7.37757 12.4498 7.07096 12.4103 7.04958V12.9716C12.4103 13.3013 12.32 14.1248 12.0447 14.8116C11.6853 15.7101 11.1306 16.2998 11.0286 16.4204C11.0286 16.4204 10.3541 17.2176 9.16402 17.7544C8.09132 18.2387 7.1495 18.2264 6.86798 18.2387C6.86798 18.2387 5.23992 18.3032 3.77492 17.3511C3.45812 17.1412 3.1624 16.9036 2.8916 16.6411L2.89891 16.6464C4.36428 17.5985 5.99198 17.534 5.99198 17.534C6.27386 17.5217 7.21568 17.534 8.28801 17.0497C9.47698 16.5129 10.1526 15.7157 10.1526 15.7157C10.2535 15.5951 10.8107 15.0054 11.1687 14.1066C11.4432 13.4201 11.5343 12.5963 11.5343 12.2666V6.34525C11.5738 6.36698 12.0618 6.67359 12.0618 6.67359C12.0618 6.67359 12.7693 7.1039 13.8694 7.38388C14.6577 7.58432 15.722 7.62602 15.722 7.62602V5.37881C16.0861 5.46045 16.3965 5.48253 16.598 5.46221Z" fill="#F7C003"/>
<path d="M15.7238 5.37881V7.62532C15.7238 7.62532 14.6595 7.58362 13.8713 7.38318C12.7711 7.10285 12.0637 6.67289 12.0637 6.67289C12.0637 6.67289 11.5756 6.36628 11.5361 6.34455V12.2673C11.5361 12.597 11.4458 13.4208 11.1705 14.1073C10.8111 15.0061 10.2565 15.5958 10.1545 15.7164C10.1545 15.7164 9.47954 16.5136 8.28984 17.0504C7.21751 17.5347 6.27569 17.5224 5.99381 17.5347C5.99381 17.5347 4.36611 17.5992 2.90074 16.6471L2.89343 16.6418C2.73872 16.492 2.59309 16.3339 2.45726 16.1681C1.98964 15.598 1.703 14.9238 1.63098 14.7314C1.63085 14.7306 1.63085 14.7297 1.63098 14.7289C1.51508 14.3946 1.27158 13.5918 1.30485 12.8143C1.36371 11.4424 1.84632 10.6003 1.97392 10.3894C2.31185 9.81414 2.75138 9.29945 3.27293 8.86824C3.73318 8.49614 4.25484 8.20008 4.81654 7.9922C5.42376 7.74812 6.07398 7.6173 6.73234 7.60675V9.88094C6.73234 9.88094 5.52802 9.49898 4.56427 10.1753C3.89045 10.6757 3.53288 11.1638 3.42759 12.0356C3.4232 12.6772 3.58736 13.5852 4.48786 14.1907C4.59291 14.2573 4.69601 14.3164 4.79716 14.368C4.95448 14.5725 5.14596 14.7507 5.36386 14.8954C6.24352 15.4522 6.98059 15.4911 7.92313 15.1294C8.55162 14.8877 9.02472 14.3428 9.24409 13.739C9.38192 13.362 9.38009 12.9825 9.38009 12.59V1.42578H11.5738C11.6644 1.94124 11.9152 2.67501 12.5785 3.40177C12.8445 3.67618 13.1442 3.91879 13.4709 4.12432C13.5674 4.22419 14.061 4.71793 14.6946 5.02104C15.0222 5.17771 15.3676 5.29776 15.7238 5.37881Z" fill="#F7C003"/>
<path d="M4.81511 7.99207C4.25341 8.19995 3.73174 8.49601 3.2715 8.86811C2.74978 9.30029 2.31036 9.81606 1.97285 10.3924C1.84525 10.6027 1.36265 11.4454 1.30378 12.8173C1.27051 13.5949 1.51401 14.3977 1.62991 14.7319C1.62978 14.7328 1.62978 14.7336 1.62991 14.7344C1.70303 14.925 1.98857 15.5992 2.45619 16.1711C2.59202 16.3369 2.73765 16.4951 2.89236 16.6449C2.39666 16.3163 1.95458 15.919 1.58055 15.4661C1.11696 14.9008 0.831048 14.2337 0.756464 14.0367C0.756376 14.0353 0.756376 14.0339 0.756464 14.0325V14.0301C0.6402 13.6961 0.395972 12.893 0.429974 12.1144C0.488837 10.7425 0.971442 9.90043 1.09904 9.68948C1.43645 9.11307 1.87588 8.59728 2.39769 8.16518C2.85784 7.79295 3.37953 7.49688 3.9413 7.28914C4.2917 7.1498 4.65673 7.047 5.03008 6.98253C5.59275 6.88839 6.16741 6.88023 6.73273 6.95835V7.60662C6.07375 7.61695 5.42289 7.74778 4.81511 7.99207Z" fill="#F7C003"/>
<path d="M11.574 1.42574H9.38029V12.5903C9.38029 12.9828 9.38029 13.3612 9.24428 13.7393C9.02272 14.3427 8.55145 14.8876 7.92333 15.1294C6.98042 15.4924 6.24335 15.4521 5.36406 14.8953C5.14578 14.7513 4.95381 14.5737 4.7959 14.3697C5.54503 14.7527 6.21556 14.746 7.04623 14.4265C7.67398 14.1847 8.14599 13.6398 8.36682 13.036C8.50502 12.659 8.50319 12.2795 8.50319 11.8874V0.720703H11.5323C11.5323 0.720703 11.4983 0.998232 11.574 1.42574ZM15.7222 4.75748V5.37876C15.3666 5.29759 15.0218 5.17754 14.6948 5.02099C14.0612 4.71788 13.5676 4.22415 13.4711 4.12428C13.5831 4.19476 13.6993 4.25888 13.8192 4.31631C14.5895 4.68494 15.3481 4.79497 15.7222 4.75748Z" fill="#F7C003"/>
</svg>
