<svg width="21" height="17" viewBox="0 0 21 17" fill="none" xmlns="http://www.w3.org/2000/svg">
<path d="M6.55139 16.7122C4.23554 16.7122 2.07678 16.0386 0.259766 14.8764C1.80247 14.9762 4.52499 14.7371 6.2184 13.1219C3.67096 13.005 2.52211 11.0512 2.37226 10.2163C2.58871 10.2998 3.62101 10.4 4.20376 10.1662C1.27337 9.43145 0.823822 6.85983 0.923722 6.07498C1.47317 6.45905 2.40556 6.59264 2.77186 6.55925C0.041276 4.60548 1.02362 1.66647 1.50647 1.03192C3.46604 3.74674 6.40282 5.27148 10.036 5.35629C9.9675 5.05585 9.93133 4.74306 9.93133 4.42179C9.93133 2.11616 11.7949 0.24707 14.0938 0.24707C15.2949 0.24707 16.3772 0.757312 17.137 1.57347C17.9396 1.38538 19.1476 0.945096 19.7381 0.564349C19.4405 1.63308 18.5138 2.52461 17.9532 2.85505C17.9579 2.86629 17.9487 2.84376 17.9532 2.85505C18.4456 2.78057 19.7779 2.52453 20.3042 2.16744C20.0439 2.76784 19.0615 3.76611 18.2552 4.32499C18.4052 10.9408 13.3434 16.7122 6.55139 16.7122Z" fill="#F7C003"/>
</svg>
