<svg width="46" height="46" viewBox="0 0 46 46" fill="none" xmlns="http://www.w3.org/2000/svg">
<circle cx="22.9921" cy="22.9785" r="22.3984" fill="#F7C003"/>
<path d="M18.734 34.0663C15.6155 34.0663 12.7085 33.1593 10.2617 31.5943C12.3391 31.7287 16.0052 31.4068 18.2856 29.2317C14.8552 29.0743 13.3082 26.4434 13.1064 25.319C13.3979 25.4315 14.7879 25.5664 15.5727 25.2516C11.6266 24.2622 11.0213 20.7992 11.1558 19.7424C11.8957 20.2596 13.1512 20.4394 13.6445 20.3945C9.9675 17.7635 11.2903 13.8059 11.9405 12.9514C14.5793 16.6072 18.5339 18.6604 23.4263 18.7746C23.3341 18.37 23.2854 17.9488 23.2854 17.5162C23.2854 14.4114 25.7949 11.8945 28.8906 11.8945C30.508 11.8945 31.9654 12.5816 32.9885 13.6807C34.0693 13.4274 35.696 12.8345 36.4912 12.3218C36.0903 13.7609 34.8425 14.9615 34.0876 15.4064C34.0939 15.4216 34.0815 15.3912 34.0876 15.4064C34.7507 15.3061 36.5447 14.9613 37.2535 14.4805C36.903 15.289 35.58 16.6333 34.4942 17.3858C34.6963 26.2947 27.8801 34.0663 18.734 34.0663Z" fill="#212121"/>
</svg>
