<svg width="20" height="15" viewBox="0 0 20 15" fill="none" xmlns="http://www.w3.org/2000/svg">
<path d="M0.830269 3.36164C0.917639 2.01654 1.99908 0.962385 3.34536 0.895686C5.29487 0.799103 8.08128 0.682617 10.1807 0.682617C12.2802 0.682617 15.0666 0.799103 17.0161 0.895686C18.3624 0.962385 19.4439 2.01654 19.5312 3.36164C19.6149 4.65035 19.6974 6.23605 19.6974 7.48025C19.6974 8.72445 19.6149 10.3102 19.5312 11.5989C19.4439 12.944 18.3624 13.9981 17.0161 14.0648C15.0666 14.1614 12.2802 14.2779 10.1807 14.2779C8.08128 14.2779 5.29487 14.1614 3.34537 14.0648C1.99908 13.9981 0.917639 12.944 0.830269 11.5989C0.746561 10.3102 0.664062 8.72445 0.664062 7.48025C0.664062 6.23605 0.746561 4.65035 0.830269 3.36164Z" fill="#F7C003"/>
<path d="M8.14062 4.76074V10.1988L13.5787 7.4798L8.14062 4.76074Z" fill="#212121"/>
</svg>
