<svg width="45" height="46" viewBox="0 0 45 46" fill="none" xmlns="http://www.w3.org/2000/svg">
<circle cx="22.3984" cy="22.9785" r="22.3984" fill="#F7C003"/>
<path d="M9.23228 16.8456C9.35438 14.9658 10.8658 13.4926 12.7472 13.3993C15.4718 13.2644 19.3659 13.1016 22.3 13.1016C25.2341 13.1016 29.1282 13.2644 31.8528 13.3993C33.7342 13.4926 35.2456 14.9658 35.3677 16.8456C35.4847 18.6466 35.6 20.8627 35.6 22.6016C35.6 24.3404 35.4847 26.5565 35.3677 28.3575C35.2456 30.2374 33.7342 31.7106 31.8528 31.8038C29.1282 31.9388 25.2341 32.1016 22.3 32.1016C19.3659 32.1016 15.4718 31.9388 12.7472 31.8038C10.8658 31.7106 9.35438 30.2374 9.23228 28.3575C9.1153 26.5565 9 24.3404 9 22.6016C9 20.8627 9.1153 18.6466 9.23228 16.8456Z" fill="#212121"/>
<path d="M19.4492 18.8008V26.4008L27.0492 22.6008L19.4492 18.8008Z" fill="#F7C003"/>
</svg>
