<svg width="719" height="181" viewBox="0 0 719 181" fill="none" xmlns="http://www.w3.org/2000/svg">
<path opacity="0.08" d="M130.4 0.42093H133.994V-3.17346H130.4V0.42093ZM130.4 29.1694V32.7638H133.994V29.1694H130.4ZM83.0792 29.1694V25.575H79.4848V29.1694H83.0792ZM83.0792 178V181.594H86.6736V178H83.0792ZM47.4617 178H43.8673V181.594H47.4617V178ZM47.4617 29.1694H51.0561V25.575H47.4617V29.1694ZM0.141161 29.1694H-3.45323V32.7638H0.141161V29.1694ZM0.141161 0.42093V-3.17346H-3.45323V0.42093H0.141161ZM126.805 0.42093V29.1694H133.994V0.42093H126.805ZM130.4 25.575H83.0792V32.7638H130.4V25.575ZM79.4848 29.1694V178H86.6736V29.1694H79.4848ZM83.0792 174.406H47.4617V181.594H83.0792V174.406ZM51.0561 178V29.1694H43.8673V178H51.0561ZM47.4617 25.575H0.141161V32.7638H47.4617V25.575ZM3.73556 29.1694V0.42093H-3.45323V29.1694H3.73556ZM0.141161 4.01532H130.4V-3.17346H0.141161V4.01532ZM286.392 118.213V121.808H289.437L289.937 118.804L286.392 118.213ZM183.355 118.213V114.619H179.449L179.773 118.512L183.355 118.213ZM194.04 142.128L191.608 144.775L191.608 144.775L194.04 142.128ZM245.431 133.732V130.138H243.195L242.207 132.144L245.431 133.732ZM283.848 133.732L287.29 134.765L288.678 130.138H283.848V133.732ZM260.442 167.315L262.598 170.19L262.612 170.18L262.625 170.17L260.442 167.315ZM181.32 171.385L179.536 174.506L179.566 174.523L179.595 174.539L181.32 171.385ZM156.133 145.69L152.968 147.394L152.978 147.413L152.989 147.431L156.133 145.69ZM156.133 69.112L152.968 67.4079L152.968 67.4079L156.133 69.112ZM181.065 43.6709L182.811 46.8129L182.811 46.8129L181.065 43.6709ZM253.827 43.4164L252.099 46.568L252.109 46.5738L252.12 46.5796L253.827 43.4164ZM278.505 68.0943L275.342 69.8014L275.358 69.8315L275.375 69.8613L278.505 68.0943ZM250.52 94.2987V97.8931H254.181L254.113 94.2321L250.52 94.2987ZM240.598 72.4193L238.241 75.1332L238.261 75.1511L238.282 75.1687L240.598 72.4193ZM194.549 72.1649L196.932 74.8556L196.937 74.8514L194.549 72.1649ZM183.609 94.2987L180.051 93.7904L179.465 97.8931H183.609V94.2987ZM283.815 104.475C283.815 109.409 283.486 113.786 282.846 117.622L289.937 118.804C290.655 114.5 291.004 109.718 291.004 104.475H283.815ZM286.392 114.619H183.355V121.808H286.392V114.619ZM179.773 118.512C180.68 129.399 184.541 138.28 191.608 144.775L196.472 139.481C190.989 134.442 187.726 127.38 186.937 117.915L179.773 118.512ZM191.608 144.775C198.599 151.199 207.206 154.372 217.192 154.372V147.184C208.86 147.184 202.032 144.591 196.472 139.481L191.608 144.775ZM217.192 154.372C224.328 154.372 230.66 152.836 236.031 149.594C241.412 146.346 245.601 141.523 248.656 135.321L242.207 132.144C239.665 137.305 236.349 141.005 232.316 143.439C228.274 145.879 223.285 147.184 217.192 147.184V154.372ZM245.431 137.327H283.848V130.138H245.431V137.327ZM280.405 132.7C276.557 145.524 269.206 156.087 258.258 164.459L262.625 170.17C274.744 160.903 282.997 149.078 287.29 134.765L280.405 132.7ZM258.285 164.439C247.472 172.549 234.101 176.695 217.955 176.695V183.884C235.391 183.884 250.344 179.381 262.598 170.19L258.285 164.439ZM217.955 176.695C204.929 176.695 193.32 173.851 183.044 168.232L179.595 174.539C191.029 180.792 203.843 183.884 217.955 183.884V176.695ZM183.103 168.264C173.003 162.493 165.072 154.412 159.277 143.948L152.989 147.431C159.405 159.017 168.265 168.066 179.536 174.506L183.103 168.264ZM159.298 143.986C153.684 133.559 150.823 121.441 150.823 107.528H143.634C143.634 122.449 146.71 135.771 152.968 147.394L159.298 143.986ZM150.823 107.528C150.823 93.4381 153.687 81.2364 159.298 70.8161L152.968 67.4079C146.707 79.0365 143.634 92.4455 143.634 107.528H150.823ZM159.298 70.8161C164.917 60.3811 172.742 52.4069 182.811 46.8129L179.32 40.5288C168.018 46.8073 159.222 55.7938 152.968 67.4079L159.298 70.8161ZM182.811 46.8129C192.892 41.2122 204.573 38.3608 217.955 38.3608V31.1721C203.522 31.1721 190.609 34.257 179.32 40.5288L182.811 46.8129ZM217.955 38.3608C230.822 38.3608 242.173 41.1247 252.099 46.568L255.555 40.2648C244.45 34.1749 231.886 31.1721 217.955 31.1721V38.3608ZM252.12 46.5796C262.188 52.0133 269.908 59.7331 275.342 69.8014L281.668 66.3872C275.568 55.085 266.836 46.3529 255.534 40.2533L252.12 46.5796ZM275.375 69.8613C280.967 79.7671 283.815 91.2695 283.815 104.475H291.004C291.004 90.2043 287.915 77.4529 281.635 66.3273L275.375 69.8613ZM254.113 94.2321C253.926 84.1383 250.226 75.8283 242.913 69.6699L238.282 75.1687C243.859 79.8652 246.774 86.1414 246.926 94.3652L254.113 94.2321ZM242.954 69.7054C235.793 63.4862 227.045 60.4294 216.937 60.4294V67.6181C225.486 67.6181 232.512 70.1583 238.241 75.1332L242.954 69.7054ZM216.937 60.4294C207.313 60.4294 198.98 63.4175 192.161 69.4784L196.937 74.8514C202.33 70.0574 208.922 67.6181 216.937 67.6181V60.4294ZM192.166 69.4742C185.465 75.4096 181.502 83.6332 180.051 93.7904L187.168 94.807C188.43 85.9682 191.761 79.4359 196.932 74.8556L192.166 69.4742ZM183.609 97.8931H250.52V90.7043H183.609V97.8931ZM312.644 69.112L309.459 67.446L309.449 67.4653L309.439 67.4848L312.644 69.112ZM335.795 43.6709L333.938 40.5934L333.926 40.6005L333.914 40.6078L335.795 43.6709ZM396.091 41.1267L394.374 44.2848L394.388 44.2925L394.403 44.3001L396.091 41.1267ZM415.171 57.1546L412.278 59.2868L418.766 68.0921V57.1546H415.171ZM415.171 37.0562V33.4618H411.577V37.0562H415.171ZM451.043 37.0562H454.638V33.4618H451.043V37.0562ZM451.043 178V181.594H454.638V178H451.043ZM415.171 178H411.577V181.594H415.171V178ZM415.171 157.393H418.766V145.886L412.216 155.347L415.171 157.393ZM396.091 173.929L397.779 177.103L397.791 177.096L397.803 177.09L396.091 173.929ZM335.795 171.131L333.876 174.17L333.888 174.177L333.9 174.185L335.795 171.131ZM312.644 145.435L309.429 147.043L309.443 147.072L309.459 147.101L312.644 145.435ZM410.083 85.3943L406.921 87.1035L406.931 87.1217L406.941 87.1399L410.083 85.3943ZM396.345 71.1473L394.523 74.2454L394.557 74.2656L394.592 74.285L396.345 71.1473ZM359.455 70.8928L357.662 67.7779L357.662 67.7779L359.455 70.8928ZM345.717 85.1399L342.591 83.3657L342.583 83.3799L342.575 83.3943L345.717 85.1399ZM345.717 129.407L342.536 131.082L342.563 131.132L342.591 131.182L345.717 129.407ZM359.455 143.909L357.592 146.983L357.613 146.995L357.633 147.007L359.455 143.909ZM396.345 144.163L398.098 147.301L398.133 147.282L398.167 147.261L396.345 144.163ZM410.083 129.916L413.225 131.662L413.235 131.644L413.245 131.625L410.083 129.916ZM307.843 107.019C307.843 93.2513 310.544 81.1876 315.849 70.7391L309.439 67.4848C303.549 79.0853 300.654 92.2932 300.654 107.019H307.843ZM315.829 70.778C321.325 60.271 328.614 52.2984 337.676 46.7339L333.914 40.6078C323.641 46.9158 315.496 55.904 309.459 67.446L315.829 70.778ZM337.652 46.7483C346.902 41.1668 357.194 38.3608 368.614 38.3608V31.1721C355.95 31.1721 344.363 34.3023 333.938 40.5934L337.652 46.7483ZM368.614 38.3608C378.641 38.3608 387.188 40.3794 394.374 44.2848L397.807 37.9686C389.389 33.3936 379.619 31.1721 368.614 31.1721V38.3608ZM394.403 44.3001C401.96 48.3202 407.886 53.327 412.278 59.2868L418.065 55.0224C412.959 48.0921 406.164 42.4136 397.779 37.9533L394.403 44.3001ZM418.766 57.1546V37.0562H411.577V57.1546H418.766ZM415.171 40.6505H451.043V33.4618H415.171V40.6505ZM447.449 37.0562V178H454.638V37.0562H447.449ZM451.043 174.406H415.171V181.594H451.043V174.406ZM418.766 178V157.393H411.577V178H418.766ZM412.216 155.347C408.003 161.432 402.099 166.587 394.379 170.769L397.803 177.09C406.365 172.452 413.181 166.583 418.127 159.439L412.216 155.347ZM394.403 170.756C387.03 174.677 378.384 176.695 368.36 176.695V183.884C379.367 183.884 389.208 181.662 397.779 177.103L394.403 170.756ZM368.36 176.695C357.139 176.695 346.944 173.82 337.691 168.077L333.9 174.185C344.321 180.653 355.835 183.884 368.36 183.884V176.695ZM337.714 168.092C328.629 162.354 321.328 154.284 315.829 143.769L309.459 147.101C315.492 158.636 323.626 167.696 333.876 174.17L337.714 168.092ZM315.859 143.828C310.547 133.204 307.843 120.963 307.843 107.019H300.654C300.654 121.909 303.547 135.279 309.429 147.043L315.859 143.828ZM418.766 107.528C418.766 98.4111 416.977 90.4016 413.225 83.6487L406.941 87.1399C409.974 92.5987 411.577 99.3451 411.577 107.528H418.766ZM413.245 83.6851C409.556 76.8593 404.508 71.5916 398.098 68.0096L394.592 74.285C399.715 77.148 403.826 81.3783 406.921 87.1035L413.245 83.6851ZM398.167 68.0491C391.855 64.336 385.036 62.4646 377.773 62.4646V69.6534C383.739 69.6534 389.302 71.1743 394.523 74.2454L398.167 68.0491ZM377.773 62.4646C370.545 62.4646 363.818 64.2334 357.662 67.7779L361.249 74.0078C366.287 71.1072 371.772 69.6534 377.773 69.6534V62.4646ZM357.662 67.7779C351.446 71.3568 346.431 76.5994 342.591 83.3657L348.843 86.9141C352.126 81.1294 356.271 76.874 361.249 74.0078L357.662 67.7779ZM342.575 83.3943C338.829 90.1373 337.035 98.058 337.035 107.019H344.223C344.223 99.0197 345.821 92.3542 348.859 86.8855L342.575 83.3943ZM337.035 107.019C337.035 115.987 338.831 124.041 342.536 131.082L348.898 127.733C345.819 121.883 344.223 115.012 344.223 107.019H337.035ZM342.591 131.182C346.424 137.935 351.418 143.241 357.592 146.983L361.318 140.835C356.299 137.793 352.134 133.431 348.843 127.633L342.591 131.182ZM357.633 147.007C363.93 150.711 370.662 152.592 377.773 152.592V145.403C371.994 145.403 366.514 143.891 361.278 140.811L357.633 147.007ZM377.773 152.592C385.001 152.592 391.795 150.823 398.098 147.301L394.592 141.026C389.362 143.948 383.775 145.403 377.773 145.403V152.592ZM398.167 147.261C404.512 143.53 409.536 138.302 413.225 131.662L406.941 128.171C403.846 133.742 399.712 138.013 394.523 141.065L398.167 147.261ZM413.245 131.625C416.976 124.724 418.766 116.649 418.766 107.528H411.577C411.577 115.707 409.975 122.557 406.921 128.207L413.245 131.625ZM702.589 51.0488L700.027 53.57L700.047 53.5905L700.067 53.6106L702.589 51.0488ZM718.616 178V181.594H722.211V178H718.616ZM682.999 178H679.405V181.594H682.999V178ZM674.603 74.9634L671.988 77.4292L672.006 77.4482L672.024 77.4668L674.603 74.9634ZM628.555 74.9634L625.977 72.4589L625.976 72.46L628.555 74.9634ZM620.159 178V181.594H623.754V178H620.159ZM584.542 178H580.947V181.594H584.542V178ZM576.146 74.9634L573.531 77.4292L573.549 77.4482L573.567 77.4668L576.146 74.9634ZM529.843 74.9634L527.265 72.4589L527.264 72.46L529.843 74.9634ZM521.448 178V181.594H525.042V178H521.448ZM485.83 178H482.236V181.594H485.83V178ZM485.83 37.0562V33.4618H482.236V37.0562H485.83ZM521.448 37.0562H525.042V33.4618H521.448V37.0562ZM521.448 54.1017H517.853V64.6458L524.294 56.2972L521.448 54.1017ZM539.002 40.1091L537.486 36.85L537.471 36.8568L537.457 36.8638L539.002 40.1091ZM592.428 42.1444L590.699 45.2951L590.723 45.3083L590.747 45.3211L592.428 42.1444ZM612.527 61.9885L609.376 63.7183L612.489 69.3878L615.66 63.7506L612.527 61.9885ZM632.371 42.3988L630.62 39.2596L630.607 39.2668L630.594 39.2742L632.371 42.3988ZM660.865 38.6153C677.363 38.6153 690.292 43.6781 700.027 53.57L705.15 48.5276C693.854 37.0489 678.967 31.4265 660.865 31.4265V38.6153ZM700.067 53.6106C709.894 63.2816 715.022 77.0123 715.022 95.3163H722.211C722.211 75.6282 716.653 59.8473 705.11 48.4869L700.067 53.6106ZM715.022 95.3163V178H722.211V95.3163H715.022ZM718.616 174.406H682.999V181.594H718.616V174.406ZM686.593 178V100.15H679.405V178H686.593ZM686.593 100.15C686.593 88.5447 683.641 79.1144 677.183 72.46L672.024 77.4668C676.759 82.3458 679.405 89.7066 679.405 100.15H686.593ZM677.219 72.4976C670.817 65.7083 662.165 62.4646 651.706 62.4646V69.6534C660.583 69.6534 667.195 72.346 671.988 77.4292L677.219 72.4976ZM651.706 62.4646C641.244 62.4646 632.534 65.7084 625.977 72.4589L631.133 77.4679C636.109 72.346 642.833 69.6534 651.706 69.6534V62.4646ZM625.976 72.46C619.517 79.1144 616.565 88.5447 616.565 100.15H623.754C623.754 89.7066 626.399 82.3458 631.134 77.4668L625.976 72.46ZM616.565 100.15V178H623.754V100.15H616.565ZM620.159 174.406H584.542V181.594H620.159V174.406ZM588.136 178V100.15H580.947V178H588.136ZM588.136 100.15C588.136 88.5447 585.184 79.1144 578.725 72.46L573.567 77.4668C578.302 82.3458 580.947 89.7066 580.947 100.15H588.136ZM578.761 72.4976C572.36 65.7083 563.708 62.4646 553.249 62.4646V69.6534C562.125 69.6534 568.738 72.346 573.531 77.4292L578.761 72.4976ZM553.249 62.4646C542.638 62.4646 533.835 65.6959 527.265 72.4589L532.422 77.468C537.385 72.3585 544.186 69.6534 553.249 69.6534V62.4646ZM527.264 72.46C520.805 79.1144 517.853 88.5447 517.853 100.15H525.042C525.042 89.7066 527.687 82.3458 532.423 77.4668L527.264 72.46ZM517.853 100.15V178H525.042V100.15H517.853ZM521.448 174.406H485.83V181.594H521.448V174.406ZM489.425 178V37.0562H482.236V178H489.425ZM485.83 40.6505H521.448V33.4618H485.83V40.6505ZM517.853 37.0562V54.1017H525.042V37.0562H517.853ZM524.294 56.2972C528.51 50.8317 533.906 46.5167 540.547 43.3543L537.457 36.8638C529.851 40.4858 523.544 45.4992 518.602 51.9062L524.294 56.2972ZM540.518 43.3682C547.301 40.2132 554.75 38.6153 562.917 38.6153V31.4265C553.783 31.4265 545.289 33.2206 537.486 36.85L540.518 43.3682ZM562.917 38.6153C573.409 38.6153 582.639 40.87 590.699 45.2951L594.158 38.9936C584.918 33.9207 574.474 31.4265 562.917 31.4265V38.6153ZM590.747 45.3211C598.771 49.5691 604.962 55.6783 609.376 63.7183L615.678 60.2586C610.594 50.9986 603.386 43.8784 594.11 38.9677L590.747 45.3211ZM615.66 63.7506C619.898 56.2157 626.027 50.1413 634.148 45.5234L630.594 39.2742C621.416 44.4935 614.315 51.4789 609.394 60.2263L615.66 63.7506ZM634.122 45.538C642.402 40.9203 651.297 38.6153 660.865 38.6153V31.4265C650.081 31.4265 639.979 34.04 630.62 39.2596L634.122 45.538Z" fill="#D8D8D8"/>
</svg>
