<svg width="770" height="192" viewBox="0 0 770 192" fill="none" xmlns="http://www.w3.org/2000/svg">
<path opacity="0.05" d="M132.145 188.819L128.748 189.994L129.585 192.414H132.145V188.819ZM169.798 188.819V192.414H174.908L173.181 187.605L169.798 188.819ZM105.941 10.9858L109.324 9.77109L108.469 7.39145H105.941V10.9858ZM64.4719 10.9858V7.39145H61.9435L61.089 9.77109L64.4719 10.9858ZM0.614693 188.819L-2.76821 187.605L-4.4951 192.414H0.614693V188.819ZM38.0132 188.819V192.414H40.5733L41.4101 189.994L38.0132 188.819ZM49.7161 154.983V151.388H47.1559L46.3191 153.808L49.7161 154.983ZM120.442 154.983L123.839 153.808L123.003 151.388H120.442V154.983ZM110.775 126.489V130.083H115.821L114.172 125.314L110.775 126.489ZM59.3837 126.489L55.9868 125.314L54.3371 130.083H59.3837V126.489ZM85.0792 52.2005L88.4762 51.0255L85.0792 41.2047L81.6823 51.0255L85.0792 52.2005ZM132.145 192.414H169.798V185.225H132.145V192.414ZM173.181 187.605L109.324 9.77109L102.558 12.2006L166.415 190.034L173.181 187.605ZM105.941 7.39145H64.4719V14.5802H105.941V7.39145ZM61.089 9.77109L-2.76821 187.605L3.9976 190.034L67.8548 12.2006L61.089 9.77109ZM0.614693 192.414H38.0132V185.225H0.614693V192.414ZM41.4101 189.994L53.113 156.158L46.3191 153.808L34.6162 187.644L41.4101 189.994ZM49.7161 158.577H120.442V151.388H49.7161V158.577ZM117.045 156.158L128.748 189.994L135.542 187.644L123.839 153.808L117.045 156.158ZM110.775 122.894H59.3837V130.083H110.775V122.894ZM62.7806 127.664L88.4762 53.3754L81.6823 51.0255L55.9868 125.314L62.7806 127.664ZM81.6823 53.3754L107.378 127.664L114.172 125.314L88.4762 51.0255L81.6823 53.3754ZM229.285 68.4828H225.69V80.3543L232.275 70.4766L229.285 68.4828ZM229.285 0.554994H232.879V-3.0394H229.285V0.554994ZM193.667 0.554994V-3.0394H190.073V0.554994H193.667ZM193.667 188.819H190.073V192.414H193.667V188.819ZM229.285 188.819V192.414H232.879V188.819H229.285ZM229.285 168.721L232.218 166.643L225.69 157.428V168.721H229.285ZM232.879 68.4828V0.554994H225.69V68.4828H232.879ZM229.285 -3.0394H193.667V4.14939H229.285V-3.0394ZM190.073 0.554994V188.819H197.262V0.554994H190.073ZM193.667 192.414H229.285V185.225H193.667V192.414ZM232.879 188.819V168.721H225.69V188.819H232.879ZM226.352 170.798C235.662 183.943 252.52 194.703 275.842 194.703V187.515C254.897 187.515 240.207 177.922 232.218 166.643L226.352 170.798ZM275.842 194.703C314.289 194.703 343.802 163.484 343.802 117.839H336.614C336.614 160.22 309.648 187.515 275.842 187.515V194.703ZM343.802 117.839C343.802 72.1225 314.224 41.9914 275.842 41.9914V49.1802C309.712 49.1802 336.614 75.5283 336.614 117.839H343.802ZM275.842 41.9914C253.334 41.9914 235.646 52.4615 226.294 66.489L232.275 70.4766C240.224 58.5541 255.609 49.1802 275.842 49.1802V41.9914ZM300.233 117.839C300.233 142.675 283.673 156.222 266.429 156.222V163.411C287.855 163.411 307.422 146.429 307.422 117.839H300.233ZM266.429 156.222C249.395 156.222 232.879 143.138 232.879 118.347H225.69C225.69 146.984 245.301 163.411 266.429 163.411V156.222ZM232.879 118.347C232.879 93.5572 249.395 80.4728 266.429 80.4728V73.284C245.301 73.284 225.69 89.7113 225.69 118.347H232.879ZM266.429 80.4728C275.216 80.4728 283.632 83.7062 289.843 89.8885C296.025 96.0421 300.233 105.33 300.233 117.839H307.422C307.422 103.634 302.598 92.4418 294.914 84.7936C287.26 77.174 276.976 73.284 266.429 73.284V80.4728ZM505.795 118.347C505.795 95.1926 497.505 76.0443 483.712 62.6886C469.937 49.351 450.884 41.9914 429.693 41.9914V49.1802C449.208 49.1802 466.408 55.9404 478.711 67.8531C490.995 79.7477 498.606 96.9802 498.606 118.347H505.795ZM429.693 41.9914C408.502 41.9914 389.449 49.351 375.675 62.6886C361.882 76.0443 353.592 95.1926 353.592 118.347H360.78C360.78 96.9802 368.391 79.7477 380.675 67.8531C392.978 55.9404 410.178 49.1802 429.693 49.1802V41.9914ZM353.592 118.347C353.592 141.344 361.605 160.486 375.137 173.883C388.659 187.27 407.47 194.703 428.676 194.703V187.515C409.175 187.515 392.242 180.701 380.195 168.774C368.159 156.858 360.78 139.618 360.78 118.347H353.592ZM428.676 194.703C471.461 194.703 505.795 164.756 505.795 118.347H498.606C498.606 160.474 467.81 187.515 428.676 187.515V194.703ZM396.907 118.347C396.907 104.964 400.931 95.489 406.783 89.3831C412.645 83.2676 420.637 80.2184 429.184 80.2184V73.0296C418.905 73.0296 408.961 76.7222 401.594 84.4086C394.217 92.1045 389.718 103.491 389.718 118.347H396.907ZM429.184 80.2184C437.739 80.2184 445.87 83.2731 451.864 89.4076C457.838 95.5232 461.971 104.994 461.971 118.347H469.16C469.16 103.461 464.515 92.0703 457.006 84.384C449.515 76.7167 439.457 73.0296 429.184 73.0296V80.2184ZM461.971 118.347C461.971 131.536 457.735 141.01 451.627 147.174C445.493 153.365 437.218 156.476 428.676 156.476V163.665C438.959 163.665 449.13 159.908 456.734 152.233C464.364 144.532 469.16 133.144 469.16 118.347H461.971ZM428.676 156.476C420.017 156.476 412.17 153.376 406.469 147.254C400.762 141.126 396.907 131.641 396.907 118.347H389.718C389.718 133.039 394.003 144.416 401.208 152.153C408.419 159.896 418.253 163.665 428.676 163.665V156.476ZM661.384 47.8755H664.979V44.2811H661.384V47.8755ZM625.512 47.8755V44.2811H621.918V47.8755H625.512ZM562.673 47.8755H566.267V44.2811H562.673V47.8755ZM527.055 47.8755V44.2811H523.461V47.8755H527.055ZM625.512 171.011H629.107V160.166L622.63 168.864L625.512 171.011ZM625.512 188.819H621.918V192.414H625.512V188.819ZM661.384 188.819V192.414H664.979V188.819H661.384ZM661.384 44.2811H625.512V51.4699H661.384V44.2811ZM621.918 47.8755V125.471H629.107V47.8755H621.918ZM621.918 125.471C621.918 136.169 619.039 143.906 614.357 148.942C609.706 153.944 602.858 156.731 593.965 156.731V163.92C604.408 163.92 613.333 160.6 619.622 153.837C625.88 147.105 629.107 137.415 629.107 125.471H621.918ZM593.965 156.731C585.351 156.731 578.556 153.959 573.892 148.942C569.2 143.895 566.267 136.15 566.267 125.471H559.078C559.078 137.435 562.379 147.116 568.627 153.837C574.902 160.586 583.753 163.92 593.965 163.92V156.731ZM566.267 125.471V47.8755H559.078V125.471H566.267ZM562.673 44.2811H527.055V51.4699H562.673V44.2811ZM523.461 47.8755V130.559H530.65V47.8755H523.461ZM523.461 130.559C523.461 150.637 529.618 166.623 540.426 177.603C551.232 188.58 566.335 194.195 583.535 194.195V187.006C567.915 187.006 554.779 181.935 545.549 172.56C536.322 163.186 530.65 149.151 530.65 130.559H523.461ZM583.535 194.195C602.097 194.195 618.74 186.123 628.395 173.157L622.63 168.864C614.476 179.813 600.08 187.006 583.535 187.006V194.195ZM621.918 171.011V188.819H629.107V171.011H621.918ZM625.512 192.414H661.384V185.225H625.512V192.414ZM664.979 188.819V47.8755H657.79V188.819H664.979ZM769.543 188.819V192.414H773.137V188.819H769.543ZM769.543 158.799H773.137V155.204H769.543V158.799ZM737.996 77.1328V73.5384H734.402V77.1328H737.996ZM769.543 77.1328V80.7272H773.137V77.1328H769.543ZM769.543 47.8755H773.137V44.2811H769.543V47.8755ZM737.996 47.8755H734.402V51.4699H737.996V47.8755ZM737.996 13.0211H741.59V9.42674H737.996V13.0211ZM702.124 13.0211V9.42674H698.53V13.0211H702.124ZM702.124 47.8755V51.4699H705.718V47.8755H702.124ZM685.333 47.8755V44.2811H681.738V47.8755H685.333ZM685.333 77.1328H681.738V80.7272H685.333V77.1328ZM702.124 77.1328H705.718V73.5384H702.124V77.1328ZM698.53 145.061C698.53 161.88 703.251 173.966 712.16 181.761C720.975 189.474 733.249 192.414 747.155 192.414V185.225C734.093 185.225 723.852 182.44 716.893 176.351C710.029 170.344 705.718 160.551 705.718 145.061H698.53ZM747.155 192.414H769.543V185.225H747.155V192.414ZM773.137 188.819V158.799H765.949V188.819H773.137ZM769.543 155.204H753.006V162.393H769.543V155.204ZM753.006 155.204C747.687 155.204 745.092 154.205 743.755 152.958C742.49 151.778 741.59 149.654 741.59 145.315H734.402C734.402 150.389 735.41 155.007 738.852 158.216C742.221 161.357 747.131 162.393 753.006 162.393V155.204ZM741.59 145.315V77.1328H734.402V145.315H741.59ZM737.996 80.7272H769.543V73.5384H737.996V80.7272ZM773.137 77.1328V47.8755H765.949V77.1328H773.137ZM769.543 44.2811H737.996V51.4699H769.543V44.2811ZM741.59 47.8755V13.0211H734.402V47.8755H741.59ZM737.996 9.42674H702.124V16.6155H737.996V9.42674ZM698.53 13.0211V47.8755H705.718V13.0211H698.53ZM702.124 44.2811H685.333V51.4699H702.124V44.2811ZM681.738 47.8755V77.1328H688.927V47.8755H681.738ZM685.333 80.7272H702.124V73.5384H685.333V80.7272ZM698.53 77.1328V145.061H705.718V77.1328H698.53Z" fill="#D8D8D8"/>
</svg>
