<svg width="73" height="39" viewBox="0 0 73 39" fill="none" xmlns="http://www.w3.org/2000/svg">
<rect width="42.0455" height="37.7208" transform="matrix(-1 0 0 1 72.1279 0.816406)" fill="#D8D8D8"/>
<path d="M0.924698 20.8146C0.338909 20.2288 0.338909 19.279 0.924698 18.6932L10.4706 9.1473C11.0564 8.56152 12.0062 8.56152 12.592 9.1473C13.1777 9.73309 13.1777 10.6828 12.592 11.2686L4.10668 19.7539L12.592 28.2392C13.1777 28.825 13.1777 29.7747 12.592 30.3605C12.0062 30.9463 11.0564 30.9463 10.4706 30.3605L0.924698 20.8146ZM56.1348 21.2539H1.98536V18.2539H56.1348V21.2539Z" fill="#212121"/>
<path d="M0.924694 18.6932C0.338907 19.279 0.338907 20.2288 0.924694 20.8146L10.4706 30.3605C11.0564 30.9463 12.0062 30.9463 12.592 30.3605C13.1777 29.7747 13.1777 28.825 12.592 28.2392L4.10667 19.7539L12.592 11.2686C13.1777 10.6828 13.1777 9.73309 12.592 9.1473C12.0062 8.56152 11.0564 8.56152 10.4706 9.1473L0.924694 18.6932ZM30.082 18.2539L1.98536 18.2539V21.2539L30.082 21.2539V18.2539Z" fill="white"/>
</svg>
