<svg width="192" height="54" viewBox="0 0 192 54" fill="none" xmlns="http://www.w3.org/2000/svg">
<g clip-path="url(#clip0_308_154)">
<path d="M58.5068 2.82043L59.54 0.767578H64.9914L66.684 5.96524L64.9694 7.77787L63.079 3.36641L58.5068 2.82043Z" fill="white"/>
<path d="M73.6298 29.4199L72.2669 30.7303L72.6846 32.8486L68.6399 36.321L66.7275 39.9026L68.4861 38.5923L73.5419 38.09L73.8276 36.0371L73.5638 34.9888L75.0806 33.7877L73.6298 29.4199Z" fill="white"/>
<path fill-rule="evenodd" clip-rule="evenodd" d="M93.8744 10.1143C99.2599 15.9671 80.2018 26.4934 77.9377 27.7819C77.8718 27.2578 77.6739 26.6026 77.4102 26.1003C80.0919 23.6325 92.6215 11.7303 93.8744 10.1143Z" fill="white"/>
<path fill-rule="evenodd" clip-rule="evenodd" d="M93.6774 24.3096C94.7764 29.4199 82.2689 31.1888 77.8945 31.5382C78.0264 30.8394 78.0924 30.2934 78.1583 29.5727C79.8949 28.6555 91.2594 24.6153 93.6774 24.3096Z" fill="white"/>
<path fill-rule="evenodd" clip-rule="evenodd" d="M87.8085 34.2683C87.0611 38.658 76.6858 35.9718 76.1582 35.535C76.5099 34.9235 76.9276 34.3339 77.1694 33.5913C81.0161 33.5695 84.5552 33.7879 87.8085 34.2683Z" fill="white"/>
<path fill-rule="evenodd" clip-rule="evenodd" d="M74.7302 37.4785C76.2029 38.3739 80.2476 40.8417 80.7971 41.1911C78.7748 44.1831 74.2026 41.1256 73.1035 39.2038C73.6311 38.6141 74.1806 38.0463 74.7302 37.4785Z" fill="white"/>
<path fill-rule="evenodd" clip-rule="evenodd" d="M71.1463 40.7764C71.498 41.6499 72.4212 44.4016 72.7729 45.4499C70.4209 47.6993 68.9701 44.3361 69.1899 42.0867C69.8493 41.6499 70.4868 41.2131 71.1463 40.7764Z" fill="white"/>
<path fill-rule="evenodd" clip-rule="evenodd" d="M67.124 43.1348C66.8602 44.3141 66.3326 46.3888 66.1128 47.175C63.3211 49.0531 64.662 44.3359 65.3215 43.8773C65.9369 43.6152 66.5305 43.375 67.124 43.1348Z" fill="white"/>
<path d="M36.371 2.82043L35.3159 0.767578H29.8645L28.1719 5.96524L29.8864 7.77787L31.7769 3.36641L36.371 2.82043Z" fill="white"/>
<path d="M21.2252 29.4199L22.61 30.7303L22.1924 32.8486L26.215 36.321L28.1274 39.9026L26.3689 38.5923L21.3131 38.09L21.0274 36.0371L21.3131 34.9888L19.7744 33.7877L21.2252 29.4199Z" fill="white"/>
<path fill-rule="evenodd" clip-rule="evenodd" d="M17.4452 26.1003C17.1814 26.6026 16.9836 27.2796 16.9176 27.7819C14.6535 26.4716 -4.40457 15.9671 0.980935 10.1143C2.23389 11.7303 14.7634 23.6325 17.4452 26.1003Z" fill="white"/>
<path fill-rule="evenodd" clip-rule="evenodd" d="M16.6975 29.5727C16.7634 30.2934 16.8514 30.8612 16.9613 31.5382C12.5869 31.167 0.0793598 29.4199 1.17844 24.3096C3.6184 24.6153 14.9829 28.6555 16.6975 29.5727Z" fill="white"/>
<path fill-rule="evenodd" clip-rule="evenodd" d="M17.7085 33.5913C17.9503 34.312 18.3459 34.9235 18.7196 35.535C18.1701 35.9936 7.81671 38.658 7.06934 34.2683C10.3226 33.7879 13.8397 33.5695 17.7085 33.5913Z" fill="white"/>
<path fill-rule="evenodd" clip-rule="evenodd" d="M21.7756 39.2038C20.6765 41.1256 16.1043 44.1831 14.082 41.1911C14.6316 40.8417 18.6762 38.3521 20.149 37.4785C20.6765 38.0463 21.2261 38.6141 21.7756 39.2038Z" fill="white"/>
<path fill-rule="evenodd" clip-rule="evenodd" d="M25.667 42.0867C25.8868 44.3361 24.436 47.6993 22.084 45.4499C22.4357 44.4016 23.3589 41.6499 23.7106 40.7764C24.3701 41.2131 25.0295 41.6499 25.667 42.0867Z" fill="white"/>
<path fill-rule="evenodd" clip-rule="evenodd" d="M29.5339 43.8548C30.1934 44.3134 31.5343 49.0525 28.7426 47.1525C28.5228 46.3663 28.0172 44.3134 27.7314 43.1123C28.3249 43.3744 28.9185 43.6146 29.5339 43.8548Z" fill="white"/>
<path d="M38.8115 45.7773L39.5589 48.1796L47.4063 53.8796L55.2538 48.1796L56.0012 45.7773L47.4063 51.2371L38.8115 45.7773Z" fill="white"/>
<path d="M61.255 28.4597L64.838 26.516L64.6841 26.6034C62.5739 19.1345 59.7382 11.4254 58.815 9.21963C54.4846 8.82653 48.066 8.80469 47.4065 8.80469C46.7471 8.80469 40.3064 8.82653 35.998 9.21963C35.0528 11.4472 32.2172 19.1345 30.1289 26.6034L30.041 26.5597L33.5581 28.4597L35.8662 36.016C35.8662 36.016 35.8662 36.016 35.8881 36.0378V35.9941C36.6135 36.6056 46.6811 43.6814 47.4065 43.878C48.1319 43.6814 58.1995 36.6056 58.9249 35.9941V36.0378C58.9469 36.016 58.9469 36.016 58.9469 36.016L61.255 28.4597Z" fill="white" stroke="white" stroke-width="3" stroke-miterlimit="10"/>
<path d="M55.0569 18.9594V18.0858H54.1556V17.1904H53.2544H52.3531H51.4739H50.5726H49.6934H48.7921H47.8909V18.0858H47.8689H46.9896V17.1904H46.0884H45.1871H44.2859H43.3846H42.4834H41.6041H40.7029H39.8016H38.9443V18.0858V18.9594V19.8548V20.7502V21.6456V22.541V23.4364V24.3318V25.2053H39.8456V26.0789H40.7468H41.6481H42.5273H43.4286H44.3298H45.2311H46.1323H47.0336H47.9128V25.2053H47.9348H48.8361V26.0789H49.7373H50.6166H51.5178H52.4191H53.3203H54.2216H55.1228V25.2053H56.0021V24.3318V23.4364V22.541V21.6456V20.7502V19.8548V18.9594H55.0569ZM46.1104 18.9594H45.2091H44.3079H43.4066H42.5054H41.6261V19.8548V20.7502H42.5054H43.4066H44.3079H45.2091V21.6456H44.3079H43.4066H42.5054H41.6261V22.541V23.4364H42.5054H43.4066H44.3079H45.2091H46.1104V24.3318H45.2091H44.3079H43.4066H42.5054H41.6261H40.7249H39.8236V23.4364V22.541V21.6456V20.7502V19.8548V18.9594V18.0858H40.7249H41.6261H42.5054H43.4066H44.3079H45.2091H46.1104V18.9594ZM54.1556 19.8329H53.2544H52.3531V18.9375H51.4739H50.5726H49.6934V19.8329V20.7283H50.5726H51.4739H52.3751H53.2764V21.6237H54.1776V22.5191V23.4145H53.2764V24.3099H52.3751H51.4739H50.5726H49.6934H48.7921V23.4145H47.8909V22.5191H48.7921H49.6934V23.4145H50.5726H51.4739H52.3751V22.5191V21.6237H51.4739H50.5726H49.6934H48.7921V20.7283H47.8909V19.8329V18.9375H48.7921V18.064H49.6934H50.5726H51.4739H52.3751H53.2764V18.9375H54.1776V19.8329H54.1556Z" fill="black"/>
<path d="M55.9362 35.033V34.1594V33.2859V32.3905H55.0569V31.4951V30.5997V29.7043H55.9362V28.8089V27.9135V27.0399H55.0569V26.1445H54.1556H53.2544H52.3531H51.4739H50.5726H49.6934H48.7921H47.8909H46.9896H46.0884H45.1871H44.2859H43.3846V27.0399H42.4834V26.1445H41.6041H40.7029H39.8016H38.9443V27.0399V27.9135V28.8089V29.7043V30.5997V31.4951V32.3905V33.2859V34.1594H39.8456V35.033H40.7468H41.6481H42.5273H43.4286V34.1594H44.3298V35.033H55.9362ZM44.3079 32.3905V31.4951V30.5997V29.7043H43.4066V30.5997H42.5054V29.7043H41.6261V30.5997V31.4951V32.3905V33.2859H40.7249H39.8236V32.3905V31.4951V30.5997V29.7043V28.8089V27.9135V27.0399H40.7249H41.6261V27.9135H42.5054V28.8089H43.4066V27.9135H44.3079V27.0399H45.2091H46.1104V27.9135V28.8089V29.7043V30.5997V31.4951V32.3905V33.2859H45.2091H44.3079V32.3905ZM54.1556 27.9353H53.2544H52.3531H51.4739H50.5726H49.6934V28.8307V29.7261H50.5726H51.4739H52.3751H53.2764V30.6215H52.3751H51.4739H50.5726H49.6934V31.5169V32.4123H50.5726H51.4739H52.3751H53.2764H54.1776V33.3077H53.2764H52.3751H51.4739H50.5726H49.6934H48.7921H47.8909V32.4123V31.5169V30.6215V29.7261V28.8307V27.9353V27.0618H48.7921H49.6934H50.5726H51.4739H52.3751H53.2764H54.1776V27.9353H54.1556Z" fill="black"/>
<path d="M81.302 18.916L80.6865 19.0252L61.7823 28.9619L54.4844 53.0065L54.5943 53.7272L58.8587 52.7226L70.487 31.386L78.9719 23.3712L81.302 18.916Z" fill="white"/>
<path d="M13.5537 18.916L14.1912 19.0252L33.0954 28.9619L40.3713 53.0065L40.2834 53.7272L36.019 52.7226L24.3907 31.386L15.8838 23.3712L13.5537 18.916Z" fill="white"/>
</g>
<path d="M107.487 29.2053V9.09068H115.93V11.6733H111.163V17.4594H114.912V20.0171H111.163V26.6723H115.98V29.2053H107.487Z" fill="white"/>
<path d="M123.175 29.4785C121.967 29.4785 120.957 29.2467 120.145 28.7831C119.334 28.303 118.722 27.6077 118.308 26.6972C117.894 25.7866 117.662 24.6692 117.613 23.3447L120.766 22.7239C120.799 23.502 120.89 24.1891 121.039 24.785C121.205 25.381 121.445 25.8446 121.76 26.1757C122.091 26.4902 122.521 26.6475 123.051 26.6475C123.647 26.6475 124.069 26.4737 124.317 26.126C124.566 25.7618 124.69 25.3065 124.69 24.7602C124.69 23.8828 124.491 23.1626 124.094 22.5998C123.697 22.0369 123.167 21.474 122.505 20.9111L119.972 18.6762C119.26 18.0636 118.689 17.3849 118.258 16.6399C117.844 15.8783 117.637 14.943 117.637 13.8338C117.637 12.2445 118.101 11.0194 119.028 10.1585C119.955 9.29762 121.222 8.86719 122.827 8.86719C123.771 8.86719 124.557 9.01618 125.187 9.31418C125.816 9.59562 126.312 9.99294 126.677 10.5062C127.057 11.0194 127.339 11.6071 127.521 12.2693C127.703 12.9149 127.819 13.602 127.868 14.3304L124.74 14.8767C124.706 14.2476 124.632 13.6848 124.516 13.1881C124.417 12.6914 124.226 12.3024 123.945 12.021C123.68 11.7395 123.283 11.5988 122.753 11.5988C122.207 11.5988 121.784 11.7809 121.486 12.1451C121.205 12.4928 121.064 12.9315 121.064 13.4613C121.064 14.14 121.205 14.7029 121.486 15.1499C121.768 15.5803 122.173 16.0273 122.703 16.4909L125.211 18.701C126.039 19.3963 126.743 20.2158 127.322 21.1595C127.918 22.0865 128.216 23.2123 128.216 24.5367C128.216 25.4969 128.001 26.3495 127.57 27.0945C127.157 27.8395 126.569 28.4272 125.807 28.8576C125.062 29.2715 124.185 29.4785 123.175 29.4785Z" fill="white"/>
<path d="M130.186 29.2053V9.09068H136.096C137.305 9.09068 138.282 9.31418 139.027 9.76117C139.788 10.2082 140.343 10.8621 140.69 11.723C141.055 12.5673 141.237 13.5937 141.237 14.8022C141.237 16.1101 141.013 17.1696 140.566 17.9808C140.119 18.7755 139.49 19.3549 138.679 19.7191C137.884 20.0834 136.941 20.2655 135.848 20.2655H133.861V29.2053H130.186ZM133.861 17.6829H135.252C135.914 17.6829 136.427 17.5918 136.792 17.4097C137.172 17.211 137.429 16.9048 137.561 16.4909C137.71 16.0604 137.785 15.4893 137.785 14.7774C137.785 14.049 137.727 13.4613 137.611 13.0143C137.512 12.5507 137.28 12.2113 136.916 11.9961C136.568 11.7809 136.014 11.6733 135.252 11.6733H133.861V17.6829Z" fill="white"/>
<path d="M148.745 29.4785C147.321 29.4785 146.187 29.2136 145.343 28.6838C144.498 28.154 143.894 27.3925 143.53 26.3992C143.166 25.4059 142.984 24.2304 142.984 22.8729V15.3486C142.984 13.991 143.166 12.8322 143.53 11.872C143.894 10.8952 144.498 10.1502 145.343 9.63701C146.187 9.12379 147.321 8.86719 148.745 8.86719C150.202 8.86719 151.344 9.12379 152.172 9.63701C153.016 10.1502 153.62 10.8952 153.984 11.872C154.365 12.8322 154.556 13.991 154.556 15.3486V22.8977C154.556 24.2387 154.365 25.4059 153.984 26.3992C153.62 27.3759 153.016 28.1375 152.172 28.6838C151.344 29.2136 150.202 29.4785 148.745 29.4785ZM148.745 26.7717C149.357 26.7717 149.804 26.6392 150.086 26.3743C150.384 26.1095 150.582 25.7453 150.682 25.2817C150.781 24.8182 150.831 24.3132 150.831 23.7669V14.5042C150.831 13.9414 150.781 13.4364 150.682 12.9894C150.582 12.5425 150.384 12.1948 150.086 11.9465C149.804 11.6816 149.357 11.5491 148.745 11.5491C148.165 11.5491 147.727 11.6816 147.429 11.9465C147.131 12.1948 146.932 12.5425 146.833 12.9894C146.733 13.4364 146.684 13.9414 146.684 14.5042V23.7669C146.684 24.3132 146.725 24.8182 146.808 25.2817C146.907 25.7453 147.106 26.1095 147.404 26.3743C147.702 26.6392 148.149 26.7717 148.745 26.7717Z" fill="white"/>
<path d="M157.274 29.2053V9.09068H162.092C163.449 9.09068 164.592 9.25624 165.519 9.58734C166.462 9.90189 167.174 10.4482 167.654 11.2263C168.151 12.0044 168.399 13.0639 168.399 14.4049C168.399 15.2161 168.325 15.9446 168.176 16.5902C168.027 17.2359 167.77 17.7905 167.406 18.254C167.058 18.701 166.57 19.0487 165.941 19.297L168.747 29.2053H165.072L162.638 19.9923H160.95V29.2053H157.274ZM160.95 17.6829H162.092C162.804 17.6829 163.367 17.5835 163.78 17.3849C164.211 17.1696 164.517 16.8385 164.699 16.3915C164.881 15.928 164.972 15.3403 164.972 14.6284C164.972 13.6185 164.782 12.8653 164.401 12.3686C164.037 11.8554 163.333 11.5988 162.29 11.5988H160.95V17.6829Z" fill="white"/>
<path d="M173.109 29.2053V11.7975H169.905V9.09068H179.938V11.7975H176.784V29.2053H173.109Z" fill="white"/>
<path d="M186.833 29.4785C185.625 29.4785 184.615 29.2467 183.804 28.7831C182.993 28.303 182.38 27.6077 181.966 26.6972C181.552 25.7866 181.321 24.6692 181.271 23.3447L184.425 22.7239C184.458 23.502 184.549 24.1891 184.698 24.785C184.863 25.381 185.103 25.8446 185.418 26.1757C185.749 26.4902 186.18 26.6475 186.709 26.6475C187.305 26.6475 187.727 26.4737 187.976 26.126C188.224 25.7618 188.348 25.3065 188.348 24.7602C188.348 23.8828 188.15 23.1626 187.752 22.5998C187.355 22.0369 186.825 21.474 186.163 20.9111L183.63 18.6762C182.918 18.0636 182.347 17.3849 181.917 16.6399C181.503 15.8783 181.296 14.943 181.296 13.8338C181.296 12.2445 181.759 11.0194 182.686 10.1585C183.614 9.29762 184.88 8.86719 186.486 8.86719C187.429 8.86719 188.216 9.01618 188.845 9.31418C189.474 9.59562 189.971 9.99294 190.335 10.5062C190.716 11.0194 190.997 11.6071 191.179 12.2693C191.361 12.9149 191.477 13.602 191.527 14.3304L188.398 14.8767C188.365 14.2476 188.29 13.6848 188.174 13.1881C188.075 12.6914 187.885 12.3024 187.603 12.021C187.338 11.7395 186.941 11.5988 186.411 11.5988C185.865 11.5988 185.443 11.7809 185.145 12.1451C184.863 12.4928 184.723 12.9315 184.723 13.4613C184.723 14.14 184.863 14.7029 185.145 15.1499C185.426 15.5803 185.832 16.0273 186.362 16.4909L188.87 18.701C189.698 19.3963 190.401 20.2158 190.981 21.1595C191.577 22.0865 191.875 23.2123 191.875 24.5367C191.875 25.4969 191.659 26.3495 191.229 27.0945C190.815 27.8395 190.227 28.4272 189.466 28.8576C188.721 29.2715 187.843 29.4785 186.833 29.4785Z" fill="white"/>
<path d="M107.487 45.6831H109.073V39.0614L112.036 45.6831H113.135L116.084 39.0614V45.6831H117.67V36.0148H115.973L112.593 43.5964L109.198 36.0148H107.487V45.6831Z" fill="white"/>
<path d="M119.755 45.6831H121.34V36.0148H119.755V45.6831Z" fill="white"/>
<path d="M126.58 36.0148H123.423V45.6831H126.58C129.683 45.6831 131.714 43.8607 131.714 40.8837C131.714 37.8928 129.683 36.0148 126.58 36.0148ZM125.008 44.3893V37.3086H126.58C128.862 37.3086 130.086 38.6719 130.086 40.8837C130.086 43.0817 128.862 44.3893 126.58 44.3893H125.008Z" fill="white"/>
<path d="M136.443 36.0148H133.285V45.6831H136.443C139.545 45.6831 141.576 43.8607 141.576 40.8837C141.576 37.8928 139.545 36.0148 136.443 36.0148ZM134.871 44.3893V37.3086H136.443C138.725 37.3086 139.949 38.6719 139.949 40.8837C139.949 43.0817 138.725 44.3893 136.443 44.3893H134.871Z" fill="white"/>
<path d="M143.148 36.0148V45.6831H148.003V44.4032H144.734V36.0148H143.148Z" fill="white"/>
<path d="M154.671 36.0009H149.329V45.6831H154.671V44.3893H150.915V41.4263H154.254V40.1325H150.915V37.2947H154.671V36.0009Z" fill="white"/>
<path d="M165.58 36.0009H160.238V45.6831H165.58V44.3893H161.824V41.4263H165.163V40.1325H161.824V37.2947H165.58V36.0009Z" fill="white"/>
<path d="M174.058 45.6831H175.727L172.263 36.0009H170.427L166.963 45.6831H168.618L169.314 43.7077H173.362L174.058 45.6831ZM172.917 42.4139H169.759L171.345 37.9207L172.917 42.4139Z" fill="white"/>
<path d="M183.757 42.9426C183.757 39.4092 178.638 40.7724 178.638 38.5884C178.638 37.6564 179.347 37.2112 180.266 37.239C181.267 37.2668 181.837 37.865 181.893 38.5188H183.646C183.507 36.8634 182.199 35.8896 180.349 35.8896C178.374 35.8896 177.024 36.9469 177.024 38.644C177.024 42.2053 182.157 40.689 182.157 43.026C182.157 43.8468 181.531 44.445 180.419 44.445C179.32 44.445 178.763 43.8051 178.694 43.0121H176.996C176.996 44.7232 178.485 45.7804 180.419 45.7804C182.575 45.7804 183.757 44.3893 183.757 42.9426Z" fill="white"/>
<path d="M185.128 37.3086H187.715V45.6831H189.301V37.3086H191.875V36.0148H185.128V37.3086Z" fill="white"/>
<defs>
<clipPath id="clip0_308_154">
<rect width="94.7849" height="53.1122" fill="white" transform="translate(0.0361328 0.767578)"/>
</clipPath>
</defs>
</svg>
