<svg width="72" height="39" viewBox="0 0 72 39" fill="none" xmlns="http://www.w3.org/2000/svg">
<rect x="0.12793" y="0.816406" width="42.1979" height="37.7208" fill="#F7C003"/>
<path d="M71.3312 20.8146C71.917 20.2288 71.917 19.279 71.3312 18.6932L61.7852 9.1473C61.1994 8.56152 60.2497 8.56152 59.6639 9.1473C59.0781 9.73309 59.0781 10.6828 59.6639 11.2686L68.1492 19.7539L59.6639 28.2392C59.0781 28.825 59.0781 29.7747 59.6639 30.3605C60.2497 30.9463 61.1994 30.9463 61.7852 30.3605L71.3312 20.8146ZM16.1211 21.2539H70.2705V18.2539H16.1211V21.2539Z" fill="#212121"/>
<path d="M71.3312 20.8146C71.917 20.2288 71.917 19.279 71.3312 18.6932L61.7852 9.14731C61.1994 8.56152 60.2497 8.56152 59.6639 9.14731C59.0781 9.73309 59.0781 10.6828 59.6639 11.2686L68.1492 19.7539L59.6639 28.2392C59.0781 28.825 59.0781 29.7747 59.6639 30.3605C60.2497 30.9463 61.1994 30.9463 61.7852 30.3605L71.3312 20.8146ZM42.3262 21.2539L70.2705 21.2539L70.2705 18.2539L42.3262 18.2539L42.3262 21.2539Z" fill="white"/>
</svg>
