<svg width="22" height="20" viewBox="0 0 22 20" fill="none" xmlns="http://www.w3.org/2000/svg">
<path d="M21.0327 18.0274L16.8138 8.07298C16.7359 7.88915 16.6037 7.73198 16.434 7.62139C16.2643 7.5108 16.0648 7.45177 15.8606 7.45177C15.6564 7.45177 15.4568 7.5108 15.2871 7.62139C15.1174 7.73198 14.9853 7.88915 14.9074 8.07298L10.6885 18.0274C10.636 18.1495 10.6088 18.2805 10.6085 18.4128C10.6081 18.5452 10.6347 18.6763 10.6865 18.7986C10.7383 18.9209 10.8144 19.0321 10.9105 19.1257C11.0066 19.2192 11.1207 19.2934 11.2462 19.3439C11.3718 19.3944 11.5064 19.4202 11.6423 19.4199C11.7781 19.4196 11.9126 19.3931 12.0379 19.342C12.1632 19.291 12.2769 19.2163 12.3725 19.1222C12.4681 19.0282 12.5437 18.9167 12.5949 18.7941L13.4542 16.7671H18.267L19.1262 18.7941C19.2041 18.978 19.3363 19.1353 19.5061 19.2459C19.6758 19.3565 19.8755 19.4156 20.0797 19.4156C20.2492 19.4155 20.416 19.3747 20.5654 19.2969C20.7148 19.219 20.8423 19.1065 20.9365 18.9693C21.0306 18.832 21.0886 18.6743 21.1053 18.51C21.122 18.3457 21.0969 18.18 21.0322 18.0274H21.0327ZM14.3059 14.758L15.8608 11.089L17.4157 14.758H14.3059ZM11.1657 13.8867C11.3259 13.6712 11.3917 13.4025 11.3488 13.1396C11.3058 12.8768 11.1575 12.6413 10.9365 12.4849C10.9271 12.4781 10.2333 11.9767 9.22593 10.899C11.0846 8.44787 12.1374 5.65925 12.5668 4.34691H14.0795C14.353 4.34691 14.6153 4.24107 14.8087 4.05267C15.0021 3.86428 15.1108 3.60876 15.1108 3.34233C15.1108 3.0759 15.0021 2.82038 14.8087 2.63199C14.6153 2.44359 14.353 2.33775 14.0795 2.33775H8.64185V1.4245C8.64185 1.15807 8.5332 0.902551 8.3398 0.714156C8.1464 0.525761 7.88409 0.419922 7.61057 0.419922C7.33706 0.419922 7.07475 0.525761 6.88135 0.714156C6.68794 0.902551 6.57929 1.15807 6.57929 1.4245V2.33775H1.14163C0.868119 2.33775 0.605809 2.44359 0.412407 2.63199C0.219004 2.82038 0.110352 3.0759 0.110352 3.34233C0.110352 3.60876 0.219004 3.86428 0.412407 4.05267C0.605809 4.24107 0.868119 4.34691 1.14163 4.34691H10.388C9.94174 5.57752 9.11999 7.52046 7.86652 9.29491C6.39413 7.39169 5.84708 6.16017 5.84286 6.15013C5.73507 5.90747 5.53342 5.71599 5.28164 5.61722C5.02986 5.51845 4.74826 5.52035 4.49792 5.62251C4.24757 5.72467 4.04866 5.91886 3.94433 6.16295C3.84001 6.40704 3.83867 6.68135 3.94062 6.92639C3.96781 6.9894 4.62267 8.48942 6.41851 10.7589C6.46163 10.8132 6.50429 10.8662 6.54695 10.9191C4.70752 12.9443 2.90278 14.2004 2.1476 14.6059C1.90747 14.7335 1.7292 14.9488 1.65202 15.2044C1.57483 15.46 1.60505 15.735 1.73602 15.969C1.867 16.2029 2.088 16.3765 2.35041 16.4517C2.61283 16.5269 2.89515 16.4975 3.13528 16.3699C3.23654 16.316 5.41348 15.142 7.89933 12.4616C8.95499 13.5612 9.68063 14.0799 9.72423 14.11C9.83392 14.1876 9.95824 14.2434 10.0901 14.2742C10.2219 14.3049 10.3587 14.3101 10.4926 14.2893C10.6265 14.2685 10.7548 14.2222 10.8703 14.1531C10.9858 14.0839 11.0862 13.9933 11.1657 13.8863V13.8867Z" fill="#D8D8D8"/>
</svg>
