<svg width="101" height="101" viewBox="0 0 101 101" fill="none" xmlns="http://www.w3.org/2000/svg">
<path d="M101 50.5C101 78.3904 78.3904 101 50.5 101C22.6096 101 0 78.3904 0 50.5C0 22.6096 22.6096 0 50.5 0C78.3904 0 101 22.6096 101 50.5Z" fill="#F7C003"/>
<path d="M43.2462 34.0936L43.2464 34.0937L63.0016 46.2712C63.0017 46.2713 63.0017 46.2713 63.0018 46.2714C64.4933 47.1897 65.3836 48.7872 65.3801 50.5395C65.3765 52.2918 64.4798 53.8854 62.9842 54.7981L43.2462 34.0936ZM43.2462 34.0936C41.6833 33.1315 39.7877 33.0913 38.1855 33.9865C36.5833 34.8815 35.6237 36.5169 35.6237 38.3521V62.5965C35.6237 65.3685 37.857 67.6415 40.6123 67.6566H40.6146L40.6228 67.6566L40.6351 67.6566C41.5106 67.6565 42.4061 67.3826 43.2288 66.8806M43.2462 34.0936L62.9836 54.7985L48.7026 63.5425C47.8844 64.0435 46.8149 63.7863 46.3139 62.968C45.8129 62.1498 46.0702 61.0804 46.8884 60.5794L61.1717 51.8339L61.1722 51.8336C61.641 51.5476 61.9044 51.0788 61.9056 50.5325C61.9067 49.9858 61.6449 49.5162 61.1794 49.2295L61.1792 49.2294L41.4239 37.0519C40.9453 36.7572 40.3717 36.745 39.88 37.0197C39.3885 37.2943 39.0981 37.7891 39.0981 38.3522V62.5965C39.0981 63.5362 39.8967 64.1774 40.6297 64.1821C40.8368 64.1819 41.1079 64.1045 41.4192 63.9147C42.2381 63.4149 43.3073 63.6737 43.807 64.4929C44.3067 65.3119 44.0478 66.3809 43.2288 66.8806M43.2288 66.8806L43.0033 66.511M43.2288 66.8806C43.2288 66.8806 43.2288 66.8806 43.2288 66.8806L43.0033 66.511M43.0033 66.511C42.2389 66.9775 41.4205 67.2236 40.6351 67.2237L40.6146 67.2236L41.6447 64.2842C42.2595 63.909 43.0622 64.1033 43.4374 64.7183C43.8126 65.3332 43.6183 66.1358 43.0033 66.511Z" fill="white" stroke="white" stroke-width="0.86585"/>
</svg>
