<svg width="1047" height="203" viewBox="0 0 1047 203" fill="none" xmlns="http://www.w3.org/2000/svg">
<path opacity="0.08" d="M36.172 103.069H32.5776V106.664H36.172V103.069ZM36.172 51.4238V47.8294H32.5776V51.4238H36.172ZM0.554379 22.4209V18.8265H-3.04002V22.4209H0.554379ZM0.554379 200H-3.04002V203.594H0.554379V200ZM36.172 200V203.594H39.7664V200H36.172ZM36.172 131.818V128.223H32.5776V131.818H36.172ZM39.7664 103.069V51.4238H32.5776V103.069H39.7664ZM36.172 55.0182H64.4116V47.8294H36.172V55.0182ZM64.4116 55.0182C73.9394 55.0182 80.1567 57.3119 83.9887 60.9124C87.7813 64.4759 89.8201 69.8709 89.8201 77.3738H97.0089C97.0089 68.5943 94.5955 61.0143 88.9113 55.6734C83.2665 50.3696 74.9823 47.8294 64.4116 47.8294V55.0182ZM89.8201 77.3738C89.8201 84.5936 87.797 89.9388 83.9887 93.5171C80.1445 97.1291 73.9156 99.4749 64.4116 99.4749V106.664C75.0061 106.664 83.2787 104.048 88.9113 98.7561C94.5798 93.43 97.0089 85.9274 97.0089 77.3738H89.8201ZM64.4116 99.4749H36.172V106.664H64.4116V99.4749ZM133.644 77.3738C133.644 61.1268 127.985 46.3795 116.463 35.7156C104.96 25.0678 87.9795 18.8265 65.9381 18.8265V26.0153C86.6378 26.0153 101.713 31.8586 111.58 40.9913C121.43 50.1078 126.455 62.837 126.455 77.3738H133.644ZM65.9381 18.8265H0.554379V26.0153H65.9381V18.8265ZM-3.04002 22.4209V200H4.14877V22.4209H-3.04002ZM0.554379 203.594H36.172V196.406H0.554379V203.594ZM39.7664 200V131.818H32.5776V200H39.7664ZM36.172 135.412H65.9381V128.223H36.172V135.412ZM65.9381 135.412C89.5727 135.412 106.587 128.303 117.7 117.258C128.787 106.24 133.644 91.6571 133.644 77.3738H126.455C126.455 90.058 122.154 102.697 112.633 112.159C103.139 121.594 88.0975 128.223 65.9381 128.223V135.412ZM295.042 129.528C295.042 106.373 286.752 87.225 272.959 73.8693C259.185 60.5317 240.132 53.1721 218.941 53.1721V60.3608C238.455 60.3608 255.656 67.121 267.959 79.0338C280.243 90.9284 287.853 108.161 287.853 129.528H295.042ZM218.941 53.1721C197.75 53.1721 178.696 60.5317 164.922 73.8693C151.129 87.225 142.839 106.373 142.839 129.528H150.028C150.028 108.161 157.639 90.9284 169.923 79.0338C182.225 67.121 199.426 60.3608 218.941 60.3608V53.1721ZM142.839 129.528C142.839 152.525 150.853 171.666 164.385 185.064C177.906 198.45 196.717 205.884 217.923 205.884V198.695C198.423 198.695 181.489 191.882 169.442 179.955C157.406 168.038 150.028 150.799 150.028 129.528H142.839ZM217.923 205.884C260.708 205.884 295.042 175.937 295.042 129.528H287.853C287.853 171.654 257.058 198.695 217.923 198.695V205.884ZM186.154 129.528C186.154 116.145 190.178 106.67 196.031 100.564C201.893 94.4483 209.884 91.399 218.432 91.399V84.2102C208.153 84.2102 198.209 87.9029 190.841 95.5892C183.464 103.285 178.965 114.672 178.965 129.528H186.154ZM218.432 91.399C226.986 91.399 235.118 94.4538 241.111 100.588C247.086 106.704 251.218 116.175 251.218 129.528H258.407C258.407 114.642 253.762 103.251 246.253 95.5647C238.763 87.8974 228.704 84.2102 218.432 84.2102V91.399ZM251.218 129.528C251.218 142.717 246.982 152.19 240.874 158.354C234.74 164.545 226.466 167.657 217.923 167.657V174.846C228.207 174.846 238.377 171.089 245.981 163.414C253.612 155.713 258.407 144.325 258.407 129.528H251.218ZM217.923 167.657C209.265 167.657 201.417 164.557 195.717 158.435C190.01 152.306 186.154 142.821 186.154 129.528H178.965C178.965 144.22 183.251 155.597 190.456 163.334C197.666 171.077 207.5 174.846 217.923 174.846V167.657ZM396.442 94.4193V98.0137H400.037V94.4193H396.442ZM396.442 57.0209H400.037V53.4265H396.442V57.0209ZM353.192 80.9355H349.598V93.6584L356.255 82.8163L353.192 80.9355ZM353.192 59.0562H356.787V55.4618H353.192V59.0562ZM317.575 59.0562V55.4618H313.98V59.0562H317.575ZM317.575 200H313.98V203.594H317.575V200ZM353.192 200V203.594H356.787V200H353.192ZM356.787 129.782C356.787 116.652 359.86 108.991 364.646 104.519C369.479 100.003 376.818 98.0137 387.029 98.0137V90.8249C376.124 90.8249 366.545 92.906 359.738 99.2664C352.885 105.67 349.598 115.691 349.598 129.782H356.787ZM387.029 98.0137H396.442V90.8249H387.029V98.0137ZM400.037 94.4193V57.0209H392.848V94.4193H400.037ZM396.442 53.4265C375.541 53.4265 359.654 63.5426 350.129 79.0547L356.255 82.8163C364.539 69.3255 378.164 60.6152 396.442 60.6152V53.4265ZM356.787 80.9355V59.0562H349.598V80.9355H356.787ZM353.192 55.4618H317.575V62.6505H353.192V55.4618ZM313.98 59.0562V200H321.169V59.0562H313.98ZM317.575 203.594H353.192V196.406H317.575V203.594ZM356.787 200V129.782H349.598V200H356.787ZM493.448 200V203.594H497.043V200H493.448ZM493.448 169.979H497.043V166.385H493.448V169.979ZM461.901 88.3134V84.7191H458.307V88.3134H461.901ZM493.448 88.3134V91.9078H497.043V88.3134H493.448ZM493.448 59.0562H497.043V55.4618H493.448V59.0562ZM461.901 59.0562H458.307V62.6505H461.901V59.0562ZM461.901 24.2018H465.496V20.6074H461.901V24.2018ZM426.029 24.2018V20.6074H422.435V24.2018H426.029ZM426.029 59.0562V62.6505H429.624V59.0562H426.029ZM409.238 59.0562V55.4618H405.644V59.0562H409.238ZM409.238 88.3134H405.644V91.9078H409.238V88.3134ZM426.029 88.3134H429.624V84.7191H426.029V88.3134ZM422.435 156.241C422.435 173.061 427.156 185.147 436.065 192.942C444.88 200.655 457.154 203.594 471.06 203.594V196.406C457.999 196.406 447.757 193.621 440.799 187.532C433.934 181.525 429.624 171.732 429.624 156.241H422.435ZM471.06 203.594H493.448V196.406H471.06V203.594ZM497.043 200V169.979H489.854V200H497.043ZM493.448 166.385H476.912V173.574H493.448V166.385ZM476.912 166.385C471.592 166.385 468.997 165.386 467.66 164.139C466.395 162.959 465.496 160.835 465.496 156.496H458.307C458.307 161.57 459.316 166.187 462.758 169.396C466.127 172.538 471.037 173.574 476.912 173.574V166.385ZM465.496 156.496V88.3134H458.307V156.496H465.496ZM461.901 91.9078H493.448V84.7191H461.901V91.9078ZM497.043 88.3134V59.0562H489.854V88.3134H497.043ZM493.448 55.4618H461.901V62.6505H493.448V55.4618ZM465.496 59.0562V24.2018H458.307V59.0562H465.496ZM461.901 20.6074H426.029V27.7962H461.901V20.6074ZM422.435 24.2018V59.0562H429.624V24.2018H422.435ZM426.029 55.4618H409.238V62.6505H426.029V55.4618ZM405.644 59.0562V88.3134H412.833V59.0562H405.644ZM409.238 91.9078H426.029V84.7191H409.238V91.9078ZM422.435 88.3134V156.241H429.624V88.3134H422.435ZM522.883 200H519.288V203.594H522.883V200ZM559.009 200V203.594H562.603V200H559.009ZM559.009 88.3134V84.7191H555.415V88.3134H559.009ZM583.687 88.3134V91.9078H587.281V88.3134H583.687ZM583.687 59.0562H587.281V55.4618H583.687V59.0562ZM559.009 59.0562H555.415V62.6505H559.009V59.0562ZM582.16 32.343L582.055 35.9358L585.755 36.0446V32.343H582.16ZM582.16 2.32244H585.755V-1.18097L582.253 -1.27077L582.16 2.32244ZM522.883 59.0562V62.6505H526.477V59.0562H522.883ZM506.855 59.0562V55.4618H503.26V59.0562H506.855ZM506.855 88.3134H503.26V91.9078H506.855V88.3134ZM522.883 88.3134H526.477V84.7191H522.883V88.3134ZM522.883 203.594H559.009V196.406H522.883V203.594ZM562.603 200V88.3134H555.415V200H562.603ZM559.009 91.9078H583.687V84.7191H559.009V91.9078ZM587.281 88.3134V59.0562H580.092V88.3134H587.281ZM583.687 55.4618H559.009V62.6505H583.687V55.4618ZM562.603 59.0562V53.2047H555.415V59.0562H562.603ZM562.603 53.2047C562.603 45.5848 564.054 41.5727 566.52 39.3234C569.054 37.0109 573.596 35.687 582.055 35.9358L582.266 28.7501C573.425 28.4901 566.391 29.7103 561.675 34.0125C556.89 38.3779 555.415 45.0511 555.415 53.2047H562.603ZM585.755 32.343V2.32244H578.566V32.343H585.755ZM582.253 -1.27077C562.011 -1.78979 546.159 2.00299 535.339 11.0082C524.399 20.1131 519.288 33.9589 519.288 51.9326H526.477C526.477 35.3064 531.161 23.8384 539.938 16.5337C548.834 9.12937 562.622 5.41702 582.068 5.91565L582.253 -1.27077ZM519.288 51.9326V59.0562H526.477V51.9326H519.288ZM522.883 55.4618H506.855V62.6505H522.883V55.4618ZM503.26 59.0562V88.3134H510.449V59.0562H503.26ZM506.855 91.9078H522.883V84.7191H506.855V91.9078ZM519.288 88.3134V200H526.477V88.3134H519.288ZM746.473 129.528C746.473 106.373 738.183 87.225 724.39 73.8693C710.616 60.5317 691.563 53.1721 670.372 53.1721V60.3608C689.886 60.3608 707.087 67.121 719.389 79.0338C731.674 90.9284 739.284 108.161 739.284 129.528H746.473ZM670.372 53.1721C649.18 53.1721 630.127 60.5317 616.353 73.8693C602.56 87.225 594.27 106.373 594.27 129.528H601.459C601.459 108.161 609.07 90.9284 621.354 79.0338C633.656 67.121 650.857 60.3608 670.372 60.3608V53.1721ZM594.27 129.528C594.27 152.525 602.284 171.666 615.816 185.064C629.337 198.45 648.148 205.884 669.354 205.884V198.695C649.854 198.695 632.92 191.882 620.873 179.955C608.837 168.038 601.459 150.799 601.459 129.528H594.27ZM669.354 205.884C712.139 205.884 746.473 175.937 746.473 129.528H739.284C739.284 171.654 708.489 198.695 669.354 198.695V205.884ZM637.585 129.528C637.585 116.145 641.609 106.67 647.462 100.564C653.323 94.4483 661.315 91.399 669.863 91.399V84.2102C659.584 84.2102 649.64 87.9029 642.272 95.5892C634.895 103.285 630.396 114.672 630.396 129.528H637.585ZM669.863 91.399C678.417 91.399 686.549 94.4538 692.542 100.588C698.517 106.704 702.649 116.175 702.649 129.528H709.838C709.838 114.642 705.193 103.251 697.684 95.5647C690.193 87.8974 680.135 84.2102 669.863 84.2102V91.399ZM702.649 129.528C702.649 142.717 698.413 152.19 692.305 158.354C686.171 164.545 677.897 167.657 669.354 167.657V174.846C679.638 174.846 689.808 171.089 697.412 163.414C705.043 155.713 709.838 144.325 709.838 129.528H702.649ZM669.354 167.657C660.696 167.657 652.848 164.557 647.148 158.435C641.441 152.306 637.585 142.821 637.585 129.528H630.396C630.396 144.22 634.682 155.597 641.886 163.334C649.097 171.077 658.931 174.846 669.354 174.846V167.657ZM769.006 200H765.411V203.594H769.006V200ZM804.623 200V203.594H808.218V200H804.623ZM804.623 11.7357H808.218V8.14126H804.623V11.7357ZM769.006 11.7357V8.14126H765.411V11.7357H769.006ZM769.006 203.594H804.623V196.406H769.006V203.594ZM808.218 200V11.7357H801.029V200H808.218ZM804.623 8.14126H769.006V15.3301H804.623V8.14126ZM765.411 11.7357V200H772.6V11.7357H765.411ZM839.813 200H836.219V203.594H839.813V200ZM875.431 200V203.594H879.025V200H875.431ZM875.431 59.0562H879.025V55.4618H875.431V59.0562ZM839.813 59.0562V55.4618H836.219V59.0562H839.813ZM839.813 203.594H875.431V196.406H839.813V203.594ZM879.025 200V59.0562H871.837V200H879.025ZM875.431 55.4618H839.813V62.6505H875.431V55.4618ZM836.219 59.0562V200H843.408V59.0562H836.219ZM857.877 45.8594C872.186 45.8594 883.35 35.2305 883.35 21.4033H876.162C876.162 30.9819 868.5 38.6706 857.877 38.6706V45.8594ZM883.35 21.4033C883.35 7.57611 872.186 -3.05284 857.877 -3.05284V4.13595C868.5 4.13595 876.162 11.8246 876.162 21.4033H883.35ZM857.877 -3.05284C843.285 -3.05284 832.403 7.60323 832.403 21.4033H839.592C839.592 11.7975 847.027 4.13595 857.877 4.13595V-3.05284ZM832.403 21.4033C832.403 35.2033 843.285 45.8594 857.877 45.8594V38.6706C847.027 38.6706 839.592 31.0091 839.592 21.4033H832.403ZM1050.33 129.528C1050.33 106.373 1042.04 87.225 1028.24 73.8693C1014.47 60.5317 995.415 53.1721 974.224 53.1721V60.3608C993.739 60.3608 1010.94 67.121 1023.24 79.0338C1035.53 90.9284 1043.14 108.161 1043.14 129.528H1050.33ZM974.224 53.1721C953.033 53.1721 933.98 60.5317 920.205 73.8693C906.412 87.225 898.122 106.373 898.122 129.528H905.311C905.311 108.161 912.922 90.9284 925.206 79.0338C937.509 67.121 954.709 60.3608 974.224 60.3608V53.1721ZM898.122 129.528C898.122 152.525 906.136 171.666 919.668 185.064C933.19 198.45 952.001 205.884 973.206 205.884V198.695C953.706 198.695 936.773 191.882 924.726 179.955C912.689 168.038 905.311 150.799 905.311 129.528H898.122ZM973.206 205.884C1015.99 205.884 1050.33 175.937 1050.33 129.528H1043.14C1043.14 171.654 1012.34 198.695 973.206 198.695V205.884ZM941.438 129.528C941.438 116.145 945.462 106.67 951.314 100.564C957.176 94.4483 965.168 91.399 973.715 91.399V84.2102C963.436 84.2102 953.492 87.9029 946.125 95.5892C938.748 103.285 934.249 114.672 934.249 129.528H941.438ZM973.715 91.399C982.269 91.399 990.401 94.4538 996.395 100.588C1002.37 106.704 1006.5 116.175 1006.5 129.528H1013.69C1013.69 114.642 1009.05 103.251 1001.54 95.5647C994.046 87.8974 983.988 84.2102 973.715 84.2102V91.399ZM1006.5 129.528C1006.5 142.717 1002.27 152.19 996.158 158.354C990.024 164.545 981.749 167.657 973.206 167.657V174.846C983.49 174.846 993.661 171.089 1001.26 163.414C1008.9 155.713 1013.69 144.325 1013.69 129.528H1006.5ZM973.206 167.657C964.548 167.657 956.701 164.557 951 158.435C945.293 152.306 941.438 142.821 941.438 129.528H934.249C934.249 144.22 938.534 155.597 945.739 163.334C952.95 171.077 962.784 174.846 973.206 174.846V167.657Z" fill="#D8D8D8"/>
</svg>
