<svg width="1130" height="192" viewBox="0 0 1130 192" fill="none" xmlns="http://www.w3.org/2000/svg">
<path opacity="0.08" d="M110.206 11.4209H113.8V7.82654H110.206V11.4209ZM110.206 40.1694V43.7638H113.8V40.1694H110.206ZM36.172 40.1694V36.575H32.5776V40.1694H36.172ZM36.172 85.709H32.5776V89.3034H36.172V85.709ZM92.9057 85.709H96.5001V82.1146H92.9057V85.709ZM92.9057 113.949V117.543H96.5001V113.949H92.9057ZM36.172 113.949V110.354H32.5776V113.949H36.172ZM36.172 189V192.594H39.7664V189H36.172ZM0.554379 189H-3.04002V192.594H0.554379V189ZM0.554379 11.4209V7.82654H-3.04002V11.4209H0.554379ZM106.611 11.4209V40.1694H113.8V11.4209H106.611ZM110.206 36.575H36.172V43.7638H110.206V36.575ZM32.5776 40.1694V85.709H39.7664V40.1694H32.5776ZM36.172 89.3034H92.9057V82.1146H36.172V89.3034ZM89.3113 85.709V113.949H96.5001V85.709H89.3113ZM92.9057 110.354H36.172V117.543H92.9057V110.354ZM32.5776 113.949V189H39.7664V113.949H32.5776ZM36.172 185.406H0.554379V192.594H36.172V185.406ZM4.14877 189V11.4209H-3.04002V189H4.14877ZM0.554379 15.0153H110.206V7.82654H0.554379V15.0153ZM265.466 129.213V132.808H268.511L269.012 129.804L265.466 129.213ZM162.43 129.213V125.619H158.523L158.848 129.512L162.43 129.213ZM173.115 153.128L170.683 155.775L170.683 155.775L173.115 153.128ZM224.506 144.732V141.138H222.27L221.281 143.144L224.506 144.732ZM262.922 144.732L266.365 145.765L267.753 141.138H262.922V144.732ZM239.516 178.315L241.673 181.19L241.686 181.18L241.7 181.17L239.516 178.315ZM160.394 182.385L158.611 185.506L158.64 185.523L158.67 185.539L160.394 182.385ZM135.207 156.69L132.043 158.394L132.053 158.413L132.063 158.431L135.207 156.69ZM135.207 80.112L132.043 78.4079L132.043 78.4079L135.207 80.112ZM160.14 54.6709L161.885 57.8129L161.885 57.8129L160.14 54.6709ZM232.901 54.4164L231.173 57.568L231.184 57.5738L231.194 57.5796L232.901 54.4164ZM257.579 79.0943L254.416 80.8014L254.432 80.8315L254.449 80.8613L257.579 79.0943ZM229.594 105.299V108.893H233.256L233.188 105.232L229.594 105.299ZM219.672 83.4193L217.315 86.1332L217.336 86.1511L217.357 86.1687L219.672 83.4193ZM173.624 83.1649L176.007 85.8556L176.012 85.8514L173.624 83.1649ZM162.684 105.299L159.126 104.79L158.54 108.893H162.684V105.299ZM262.889 115.475C262.889 120.409 262.56 124.786 261.921 128.622L269.012 129.804C269.729 125.5 270.078 120.718 270.078 115.475H262.889ZM265.466 125.619H162.43V132.808H265.466V125.619ZM158.848 129.512C159.755 140.399 163.615 149.28 170.683 155.775L175.547 150.481C170.063 145.442 166.8 138.38 166.011 128.915L158.848 129.512ZM170.683 155.775C177.674 162.199 186.28 165.372 196.266 165.372V158.184C187.935 158.184 181.107 155.591 175.547 150.481L170.683 155.775ZM196.266 165.372C203.402 165.372 209.734 163.836 215.106 160.594C220.486 157.346 224.675 152.523 227.73 146.321L221.281 143.144C218.739 148.305 215.423 152.005 211.391 154.439C207.349 156.879 202.36 158.184 196.266 158.184V165.372ZM224.506 148.327H262.922V141.138H224.506V148.327ZM259.479 143.7C255.632 156.524 248.281 167.087 237.333 175.459L241.7 181.17C253.818 171.903 262.071 160.078 266.365 145.765L259.479 143.7ZM237.359 175.439C226.547 183.549 213.176 187.695 197.029 187.695V194.884C214.465 194.884 229.419 190.381 241.673 181.19L237.359 175.439ZM197.029 187.695C184.004 187.695 172.395 184.851 162.119 179.232L158.67 185.539C170.103 191.792 182.918 194.884 197.029 194.884V187.695ZM162.178 179.264C152.078 173.493 144.147 165.412 138.352 154.948L132.063 158.431C138.48 170.017 147.34 179.066 158.611 185.506L162.178 179.264ZM138.372 154.986C132.758 144.559 129.897 132.441 129.897 118.528H122.709C122.709 133.449 125.784 146.771 132.043 158.394L138.372 154.986ZM129.897 118.528C129.897 104.438 132.761 92.2364 138.372 81.8161L132.043 78.4079C125.781 90.0365 122.709 103.446 122.709 118.528H129.897ZM138.372 81.8161C143.991 71.3811 151.816 63.4069 161.885 57.8129L158.394 51.5288C147.093 57.8073 138.296 66.7938 132.043 78.4079L138.372 81.8161ZM161.885 57.8129C171.967 52.2122 183.647 49.3608 197.029 49.3608V42.1721C182.596 42.1721 169.683 45.257 158.394 51.5288L161.885 57.8129ZM197.029 49.3608C209.896 49.3608 221.247 52.1247 231.173 57.568L234.63 51.2648C223.525 45.1749 210.96 42.1721 197.029 42.1721V49.3608ZM231.194 57.5796C241.263 63.0133 248.982 70.7331 254.416 80.8014L260.742 77.3872C254.643 66.085 245.911 57.3529 234.609 51.2533L231.194 57.5796ZM254.449 80.8613C260.041 90.7671 262.889 102.27 262.889 115.475H270.078C270.078 101.204 266.99 88.4529 260.709 77.3273L254.449 80.8613ZM233.188 105.232C233.001 95.1383 229.3 86.8283 221.987 80.6699L217.357 86.1687C222.934 90.8652 225.848 97.1414 226 105.365L233.188 105.232ZM222.029 80.7054C214.867 74.4862 206.12 71.4294 196.012 71.4294V78.6181C204.561 78.6181 211.587 81.1583 217.315 86.1332L222.029 80.7054ZM196.012 71.4294C186.388 71.4294 178.054 74.4175 171.236 80.4784L176.012 85.8514C181.405 81.0574 187.996 78.6181 196.012 78.6181V71.4294ZM171.24 80.4742C164.539 86.4096 160.577 94.6332 159.126 104.79L166.242 105.807C167.505 96.9682 170.836 90.4359 176.007 85.8556L171.24 80.4742ZM162.684 108.893H229.594V101.704H162.684V108.893ZM291.718 80.112L288.533 78.446L288.523 78.4653L288.513 78.4848L291.718 80.112ZM314.87 54.6709L313.012 51.5934L313.001 51.6005L312.989 51.6078L314.87 54.6709ZM375.165 52.1267L373.449 55.2848L373.463 55.2925L373.477 55.3001L375.165 52.1267ZM394.246 68.1546L391.352 70.2868L397.84 79.0921V68.1546H394.246ZM394.246 48.0562V44.4618H390.651V48.0562H394.246ZM430.118 48.0562H433.712V44.4618H430.118V48.0562ZM430.118 189V192.594H433.712V189H430.118ZM394.246 189H390.651V192.594H394.246V189ZM394.246 168.393H397.84V156.886L391.291 166.347L394.246 168.393ZM375.165 184.929L376.853 188.103L376.865 188.096L376.877 188.09L375.165 184.929ZM314.87 182.131L312.95 185.17L312.962 185.177L312.974 185.185L314.87 182.131ZM291.718 156.435L288.503 158.043L288.518 158.072L288.533 158.101L291.718 156.435ZM389.158 96.3943L385.996 98.1035L386.006 98.1217L386.016 98.1399L389.158 96.3943ZM375.419 82.1473L373.597 85.2454L373.631 85.2656L373.666 85.285L375.419 82.1473ZM338.53 81.8928L336.736 78.7779L336.736 78.7779L338.53 81.8928ZM324.792 96.1399L321.666 94.3657L321.658 94.3799L321.65 94.3943L324.792 96.1399ZM324.792 140.407L321.611 142.082L321.637 142.132L321.666 142.182L324.792 140.407ZM338.53 154.909L336.667 157.983L336.687 157.995L336.707 158.007L338.53 154.909ZM375.419 155.163L377.173 158.301L377.208 158.282L377.242 158.261L375.419 155.163ZM389.158 140.916L392.3 142.662L392.31 142.644L392.32 142.625L389.158 140.916ZM286.917 118.019C286.917 104.251 289.619 92.1876 294.923 81.7391L288.513 78.4848C282.624 90.0853 279.728 103.293 279.728 118.019H286.917ZM294.903 81.778C300.399 71.271 307.688 63.2984 316.75 57.7339L312.989 51.6078C302.716 57.9158 294.571 66.904 288.533 78.446L294.903 81.778ZM316.727 57.7483C325.976 52.1668 336.268 49.3608 347.689 49.3608V42.1721C335.025 42.1721 323.438 45.3023 313.012 51.5934L316.727 57.7483ZM347.689 49.3608C357.715 49.3608 366.263 51.3794 373.449 55.2848L376.881 48.9686C368.463 44.3936 358.693 42.1721 347.689 42.1721V49.3608ZM373.477 55.3001C381.035 59.3202 386.961 64.327 391.352 70.2868L397.14 66.0224C392.033 59.0921 385.238 53.4136 376.853 48.9533L373.477 55.3001ZM397.84 68.1546V48.0562H390.651V68.1546H397.84ZM394.246 51.6505H430.118V44.4618H394.246V51.6505ZM426.523 48.0562V189H433.712V48.0562H426.523ZM430.118 185.406H394.246V192.594H430.118V185.406ZM397.84 189V168.393H390.651V189H397.84ZM391.291 166.347C387.078 172.432 381.173 177.587 373.453 181.769L376.877 188.09C385.439 183.452 392.255 177.583 397.201 170.439L391.291 166.347ZM373.477 181.756C366.105 185.677 357.458 187.695 347.434 187.695V194.884C358.441 194.884 368.282 192.662 376.853 188.103L373.477 181.756ZM347.434 187.695C336.214 187.695 326.018 184.82 316.765 179.077L312.974 185.185C323.395 191.653 334.91 194.884 347.434 194.884V187.695ZM316.789 179.092C307.703 173.354 300.403 165.284 294.903 154.769L288.533 158.101C294.567 169.636 302.7 178.696 312.95 185.17L316.789 179.092ZM294.933 154.828C289.621 144.204 286.917 131.963 286.917 118.019H279.728C279.728 132.909 282.621 146.279 288.503 158.043L294.933 154.828ZM397.84 118.528C397.84 109.411 396.051 101.402 392.3 94.6487L386.016 98.1399C389.048 103.599 390.651 110.345 390.651 118.528H397.84ZM392.32 94.6851C388.63 87.8593 383.583 82.5916 377.173 79.0096L373.666 85.285C378.789 88.148 382.901 92.3783 385.996 98.1035L392.32 94.6851ZM377.242 79.0491C370.93 75.336 364.111 73.4646 356.847 73.4646V80.6534C362.814 80.6534 368.376 82.1743 373.597 85.2454L377.242 79.0491ZM356.847 73.4646C349.619 73.4646 342.893 75.2334 336.736 78.7779L340.323 85.0078C345.361 82.1072 350.846 80.6534 356.847 80.6534V73.4646ZM336.736 78.7779C330.52 82.3568 325.506 87.5994 321.666 94.3657L327.918 97.9141C331.201 92.1294 335.345 87.874 340.323 85.0078L336.736 78.7779ZM321.65 94.3943C317.903 101.137 316.109 109.058 316.109 118.019H323.298C323.298 110.02 324.896 103.354 327.934 97.8855L321.65 94.3943ZM316.109 118.019C316.109 126.987 317.906 135.041 321.611 142.082L327.972 138.733C324.893 132.883 323.298 126.012 323.298 118.019H316.109ZM321.666 142.182C325.499 148.935 330.492 154.241 336.667 157.983L340.393 151.835C335.373 148.793 331.208 144.431 327.918 138.633L321.666 142.182ZM336.707 158.007C343.004 161.711 349.736 163.592 356.847 163.592V156.403C351.068 156.403 345.589 154.891 340.352 151.811L336.707 158.007ZM356.847 163.592C364.075 163.592 370.87 161.823 377.173 158.301L373.666 152.026C368.436 154.948 362.849 156.403 356.847 156.403V163.592ZM377.242 158.261C383.586 154.53 388.611 149.302 392.3 142.662L386.016 139.171C382.921 144.742 378.786 149.013 373.597 152.065L377.242 158.261ZM392.32 142.625C396.05 135.724 397.84 127.649 397.84 118.528H390.651C390.651 126.707 389.05 133.557 385.996 139.207L392.32 142.625ZM506.374 77.3134V73.7191H502.779V77.3134H506.374ZM509.681 155.927L507.139 158.468L507.237 158.566L507.342 158.656L509.681 155.927ZM537.921 158.979H541.515V155.385H537.921V158.979ZM537.921 189V192.594H541.515V189H537.921ZM470.502 77.3134H474.096V73.7191H470.502V77.3134ZM453.711 77.3134H450.116V80.9078H453.711V77.3134ZM453.711 48.0562V44.4618H450.116V48.0562H453.711ZM470.502 48.0562V51.6505H474.096V48.0562H470.502ZM470.502 13.2018V9.60741H466.907V13.2018H470.502ZM506.374 13.2018H509.968V9.60741H506.374V13.2018ZM506.374 48.0562H502.779V51.6505H506.374V48.0562ZM537.921 48.0562H541.515V44.4618H537.921V48.0562ZM537.921 77.3134V80.9078H541.515V77.3134H537.921ZM502.779 77.3134V145.496H509.968V77.3134H502.779ZM502.779 145.496C502.779 150.708 503.979 155.308 507.139 158.468L512.223 153.385C510.973 152.135 509.968 149.781 509.968 145.496H502.779ZM507.342 158.656C510.7 161.534 515.672 162.574 521.384 162.574V155.385C516.241 155.385 513.411 154.389 512.02 153.197L507.342 158.656ZM521.384 162.574H537.921V155.385H521.384V162.574ZM534.326 158.979V189H541.515V158.979H534.326ZM537.921 185.406H515.532V192.594H537.921V185.406ZM515.532 185.406C501.051 185.406 490.855 181.887 484.264 175.483C477.693 169.097 474.096 159.247 474.096 145.241H466.907C466.907 160.408 470.815 172.437 479.254 180.638C487.674 188.82 499.994 192.594 515.532 192.594V185.406ZM474.096 145.241V77.3134H466.907V145.241H474.096ZM470.502 73.7191H453.711V80.9078H470.502V73.7191ZM457.305 77.3134V48.0562H450.116V77.3134H457.305ZM453.711 51.6505H470.502V44.4618H453.711V51.6505ZM474.096 48.0562V13.2018H466.907V48.0562H474.096ZM470.502 16.7962H506.374V9.60741H470.502V16.7962ZM502.779 13.2018V48.0562H509.968V13.2018H502.779ZM506.374 51.6505H537.921V44.4618H506.374V51.6505ZM534.326 48.0562V77.3134H541.515V48.0562H534.326ZM537.921 73.7191H506.374V80.9078H537.921V73.7191ZM696.596 48.0562H700.19V44.4618H696.596V48.0562ZM696.596 189V192.594H700.19V189H696.596ZM660.724 189H657.129V192.594H660.724V189ZM660.724 171.191H664.318V160.408L657.848 169.035L660.724 171.191ZM642.661 185.693L644.176 188.952L644.193 188.944L644.209 188.937L642.661 185.693ZM589.489 183.912L587.732 187.048L587.756 187.061L587.781 187.075L589.489 183.912ZM569.39 163.304L566.199 164.959L566.218 164.995L566.237 165.03L569.39 163.304ZM562.267 48.0562V44.4618H558.672V48.0562H562.267ZM597.884 48.0562H601.479V44.4618H597.884V48.0562ZM606.28 151.602L603.63 154.03L603.647 154.049L603.665 154.067L606.28 151.602ZM652.328 151.602L654.943 154.067L654.961 154.049L654.978 154.03L652.328 151.602ZM660.724 48.0562V44.4618H657.129V48.0562H660.724ZM693.001 48.0562V189H700.19V48.0562H693.001ZM696.596 185.406H660.724V192.594H696.596V185.406ZM664.318 189V171.191H657.129V189H664.318ZM657.848 169.035C653.646 174.638 648.096 179.116 641.112 182.449L644.209 188.937C652.151 185.146 658.643 179.956 663.599 173.348L657.848 169.035ZM641.145 182.434C634.362 185.589 626.912 187.186 618.746 187.186V194.375C627.879 194.375 636.373 192.581 644.176 188.952L641.145 182.434ZM618.746 187.186C608.231 187.186 599.081 185.007 591.197 180.749L587.781 187.075C596.857 191.976 607.212 194.375 618.746 194.375V187.186ZM591.245 180.776C583.386 176.375 577.156 170.01 572.543 161.579L566.237 165.03C571.461 174.577 578.631 181.951 587.732 187.048L591.245 180.776ZM572.581 161.65C568.149 153.102 565.861 142.838 565.861 130.74H558.672C558.672 143.743 561.134 155.19 566.199 164.959L572.581 161.65ZM565.861 130.74V48.0562H558.672V130.74H565.861ZM562.267 51.6505H597.884V44.4618H562.267V51.6505ZM594.29 48.0562V125.652H601.479V48.0562H594.29ZM594.29 125.652C594.29 137.424 597.239 147.058 603.63 154.03L608.929 149.173C604.127 143.933 601.479 136.267 601.479 125.652H594.29ZM603.665 154.067C610.066 160.857 618.718 164.1 629.177 164.1V156.912C620.301 156.912 613.688 154.219 608.895 149.136L603.665 154.067ZM629.177 164.1C639.784 164.1 648.53 160.87 654.943 154.067L649.713 149.136C644.932 154.206 638.244 156.912 629.177 156.912V164.1ZM654.978 154.03C661.369 147.058 664.318 137.424 664.318 125.652H657.129C657.129 136.267 654.481 143.933 649.679 149.173L654.978 154.03ZM664.318 125.652V48.0562H657.129V125.652H664.318ZM660.724 51.6505H696.596V44.4618H660.724V51.6505ZM767.356 69.9355H763.762V82.6655L770.42 71.8154L767.356 69.9355ZM785.165 52.3811L783.389 49.256L783.374 49.2648L783.358 49.2738L785.165 52.3811ZM810.606 46.0209H814.2V42.4265H810.606V46.0209ZM810.606 83.4193V87.0137H814.2V83.4193H810.606ZM775.751 91.3061L773.33 88.65L773.31 88.668L773.29 88.6863L775.751 91.3061ZM767.356 189V192.594H770.95V189H767.356ZM731.738 189H728.144V192.594H731.738V189ZM731.738 48.0562V44.4618H728.144V48.0562H731.738ZM767.356 48.0562H770.95V44.4618H767.356V48.0562ZM770.42 71.8154C774.7 64.8396 780.212 59.4183 786.971 55.4885L783.358 49.2738C775.531 53.8244 769.171 60.106 764.292 68.0556L770.42 71.8154ZM786.94 55.5063C793.806 51.6056 801.662 49.6153 810.606 49.6153V42.4265C800.553 42.4265 791.449 44.6763 783.389 49.256L786.94 55.5063ZM807.011 46.0209V83.4193H814.2V46.0209H807.011ZM810.606 79.8249H801.193V87.0137H810.606V79.8249ZM801.193 79.8249C789.489 79.8249 779.997 82.5709 773.33 88.65L778.173 93.9622C783.039 89.5256 790.508 87.0137 801.193 87.0137V79.8249ZM773.29 88.6863C766.601 94.9707 763.762 105.388 763.762 118.782H770.95C770.95 106.057 773.708 98.1571 778.212 93.9258L773.29 88.6863ZM763.762 118.782V189H770.95V118.782H763.762ZM767.356 185.406H731.738V192.594H767.356V185.406ZM735.333 189V48.0562H728.144V189H735.333ZM731.738 51.6505H767.356V44.4618H731.738V51.6505ZM763.762 48.0562V69.9355H770.95V48.0562H763.762ZM964.6 129.213V132.808H967.645L968.146 129.804L964.6 129.213ZM861.564 129.213V125.619H857.657L857.982 129.512L861.564 129.213ZM872.249 153.128L869.817 155.775L869.817 155.775L872.249 153.128ZM923.64 144.732V141.138H921.404L920.415 143.144L923.64 144.732ZM962.056 144.732L965.499 145.765L966.887 141.138H962.056V144.732ZM938.65 178.315L940.807 181.19L940.82 181.18L940.834 181.17L938.65 178.315ZM859.528 182.385L857.745 185.506L857.774 185.523L857.804 185.539L859.528 182.385ZM834.342 156.69L831.177 158.394L831.187 158.413L831.197 158.431L834.342 156.69ZM834.342 80.112L831.177 78.4079L831.177 78.4079L834.342 80.112ZM859.274 54.6709L861.019 57.8129L861.019 57.8129L859.274 54.6709ZM932.036 54.4164L930.307 57.568L930.318 57.5738L930.328 57.5796L932.036 54.4164ZM956.713 79.0943L953.55 80.8014L953.567 80.8315L953.583 80.8613L956.713 79.0943ZM928.728 105.299V108.893H932.39L932.322 105.232L928.728 105.299ZM918.806 83.4193L916.449 86.1332L916.47 86.1511L916.491 86.1687L918.806 83.4193ZM872.758 83.1649L875.141 85.8556L875.146 85.8514L872.758 83.1649ZM861.818 105.299L858.26 104.79L857.674 108.893H861.818V105.299ZM962.023 115.475C962.023 120.409 961.694 124.786 961.055 128.622L968.146 129.804C968.863 125.5 969.212 120.718 969.212 115.475H962.023ZM964.6 125.619H861.564V132.808H964.6V125.619ZM857.982 129.512C858.889 140.399 862.75 149.28 869.817 155.775L874.681 150.481C869.197 145.442 865.934 138.38 865.146 128.915L857.982 129.512ZM869.817 155.775C876.808 162.199 885.414 165.372 895.4 165.372V158.184C887.069 158.184 880.241 155.591 874.681 150.481L869.817 155.775ZM895.4 165.372C902.536 165.372 908.868 163.836 914.24 160.594C919.62 157.346 923.809 152.523 926.864 146.321L920.415 143.144C917.873 148.305 914.557 152.005 910.525 154.439C906.483 156.879 901.494 158.184 895.4 158.184V165.372ZM923.64 148.327H962.056V141.138H923.64V148.327ZM958.613 143.7C954.766 156.524 947.415 167.087 936.467 175.459L940.834 181.17C952.952 171.903 961.205 160.078 965.499 145.765L958.613 143.7ZM936.494 175.439C925.681 183.549 912.31 187.695 896.164 187.695V194.884C913.599 194.884 928.553 190.381 940.807 181.19L936.494 175.439ZM896.164 187.695C883.138 187.695 871.529 184.851 861.253 179.232L857.804 185.539C869.237 191.792 882.052 194.884 896.164 194.884V187.695ZM861.312 179.264C851.212 173.493 843.281 165.412 837.486 154.948L831.197 158.431C837.614 170.017 846.474 179.066 857.745 185.506L861.312 179.264ZM837.506 154.986C831.892 144.559 829.032 132.441 829.032 118.528H821.843C821.843 133.449 824.918 146.771 831.177 158.394L837.506 154.986ZM829.032 118.528C829.032 104.438 831.895 92.2364 837.506 81.8161L831.177 78.4079C824.915 90.0365 821.843 103.446 821.843 118.528H829.032ZM837.506 81.8161C843.125 71.3811 850.95 63.4069 861.019 57.8129L857.528 51.5288C846.227 57.8073 837.431 66.7938 831.177 78.4079L837.506 81.8161ZM861.019 57.8129C871.101 52.2122 882.781 49.3608 896.164 49.3608V42.1721C881.73 42.1721 868.818 45.257 857.528 51.5288L861.019 57.8129ZM896.164 49.3608C909.03 49.3608 920.381 52.1247 930.307 57.568L933.764 51.2648C922.659 45.1749 910.095 42.1721 896.164 42.1721V49.3608ZM930.328 57.5796C940.397 63.0133 948.117 70.7331 953.55 80.8014L959.877 77.3872C953.777 66.085 945.045 57.3529 933.743 51.2533L930.328 57.5796ZM953.583 80.8613C959.175 90.7671 962.023 102.27 962.023 115.475H969.212C969.212 101.204 966.124 88.4529 959.844 77.3273L953.583 80.8613ZM932.322 105.232C932.135 95.1383 928.434 86.8283 921.121 80.6699L916.491 86.1687C922.068 90.8652 924.982 97.1414 925.134 105.365L932.322 105.232ZM921.163 80.7054C914.001 74.4862 905.254 71.4294 895.146 71.4294V78.6181C903.695 78.6181 910.721 81.1583 916.449 86.1332L921.163 80.7054ZM895.146 71.4294C885.522 71.4294 877.188 74.4175 870.37 80.4784L875.146 85.8514C880.539 81.0574 887.131 78.6181 895.146 78.6181V71.4294ZM870.374 80.4742C863.673 86.4096 859.711 94.6332 858.26 104.79L865.376 105.807C866.639 96.9682 869.97 90.4359 875.141 85.8556L870.374 80.4742ZM861.818 108.893H928.728V101.704H861.818V108.893ZM990.852 80.112L987.667 78.446L987.657 78.4653L987.647 78.4848L990.852 80.112ZM1014.26 54.6709L1016.12 57.7483L1016.12 57.7483L1014.26 54.6709ZM1073.28 51.8723L1071.7 55.1003L1071.73 55.1134L1071.75 55.1261L1073.28 51.8723ZM1093.13 67.6458L1090.24 69.7906L1096.72 78.5034V67.6458H1093.13ZM1093.13 0.735658V-2.85874H1089.53V0.735658H1093.13ZM1129.25 0.735658H1132.85V-2.85874H1129.25V0.735658ZM1129.25 189V192.594H1132.85V189H1129.25ZM1093.13 189H1089.53V192.594H1093.13V189ZM1093.13 168.138H1096.72V155.758L1090.09 166.213L1093.13 168.138ZM1074.55 184.929L1072.87 181.756L1072.87 181.756L1074.55 184.929ZM1014.26 182.131L1016.15 179.077L1016.15 179.077L1014.26 182.131ZM990.852 156.435L987.637 158.043L987.652 158.072L987.667 158.101L990.852 156.435ZM1088.29 96.3943L1085.13 98.1035L1085.14 98.1217L1085.15 98.1399L1088.29 96.3943ZM1074.55 82.1473L1072.73 85.2454L1072.77 85.2656L1072.8 85.285L1074.55 82.1473ZM1037.66 81.8928L1035.87 78.7779L1035.87 78.7779L1037.66 81.8928ZM1023.93 96.1399L1020.8 94.3657L1020.79 94.3799L1020.78 94.3943L1023.93 96.1399ZM1023.93 140.407L1020.74 142.082L1020.77 142.132L1020.8 142.182L1023.93 140.407ZM1037.66 154.909L1035.8 157.983L1035.82 157.995L1035.84 158.007L1037.66 154.909ZM1074.55 155.163L1076.31 158.301L1076.34 158.282L1076.38 158.261L1074.55 155.163ZM1088.29 140.916L1091.43 142.662L1091.44 142.644L1091.45 142.625L1088.29 140.916ZM986.051 118.019C986.051 104.251 988.753 92.1876 994.057 81.7391L987.647 78.4848C981.758 90.0853 978.862 103.293 978.862 118.019H986.051ZM994.037 81.778C999.525 71.2866 1006.89 63.3165 1016.12 57.7483L1012.4 51.5934C1001.95 57.8977 993.713 66.8884 987.667 78.446L994.037 81.778ZM1016.12 57.7483C1025.36 52.1668 1035.66 49.3608 1047.08 49.3608V42.1721C1034.41 42.1721 1022.83 45.3023 1012.4 51.5934L1016.12 57.7483ZM1047.08 49.3608C1055.68 49.3608 1063.88 51.2682 1071.7 55.1003L1074.86 48.6443C1066.06 44.3353 1056.79 42.1721 1047.08 42.1721V49.3608ZM1071.75 55.1261C1079.59 58.8042 1085.72 63.7041 1090.24 69.7906L1096.01 65.501C1090.7 58.3582 1083.59 52.7424 1074.81 48.6185L1071.75 55.1261ZM1096.72 67.6458V0.735658H1089.53V67.6458H1096.72ZM1093.13 4.33005H1129.25V-2.85874H1093.13V4.33005ZM1125.66 0.735658V189H1132.85V0.735658H1125.66ZM1129.25 185.406H1093.13V192.594H1129.25V185.406ZM1096.72 189V168.138H1089.53V189H1096.72ZM1090.09 166.213C1086.05 172.592 1080.34 177.779 1072.87 181.756L1076.24 188.103C1084.71 183.599 1091.39 177.593 1096.16 170.063L1090.09 166.213ZM1072.87 181.756C1065.49 185.677 1056.85 187.695 1046.82 187.695V194.884C1057.83 194.884 1067.67 192.662 1076.24 188.103L1072.87 181.756ZM1046.82 187.695C1035.6 187.695 1025.41 184.82 1016.15 179.077L1012.36 185.185C1022.78 191.653 1034.3 194.884 1046.82 194.884V187.695ZM1016.15 179.077C1006.9 173.335 999.529 165.268 994.037 154.769L987.667 158.101C993.709 169.651 1001.94 178.715 1012.36 185.185L1016.15 179.077ZM994.067 154.828C988.755 144.204 986.051 131.963 986.051 118.019H978.862C978.862 132.909 981.755 146.279 987.637 158.043L994.067 154.828ZM1096.97 118.528C1096.97 109.411 1095.19 101.402 1091.43 94.6487L1085.15 98.1399C1088.18 103.599 1089.79 110.345 1089.79 118.528H1096.97ZM1091.45 94.6851C1087.76 87.8593 1082.72 82.5916 1076.31 79.0096L1072.8 85.285C1077.92 88.148 1082.04 92.3783 1085.13 98.1035L1091.45 94.6851ZM1076.38 79.0491C1070.06 75.336 1063.24 73.4646 1055.98 73.4646V80.6534C1061.95 80.6534 1067.51 82.1743 1072.73 85.2454L1076.38 79.0491ZM1055.98 73.4646C1048.75 73.4646 1042.03 75.2334 1035.87 78.7779L1039.46 85.0078C1044.5 82.1072 1049.98 80.6534 1055.98 80.6534V73.4646ZM1035.87 78.7779C1029.65 82.3568 1024.64 87.5994 1020.8 94.3657L1027.05 97.9141C1030.33 92.1294 1034.48 87.874 1039.46 85.0078L1035.87 78.7779ZM1020.78 94.3943C1017.04 101.137 1015.24 109.058 1015.24 118.019H1022.43C1022.43 110.02 1024.03 103.354 1027.07 97.8855L1020.78 94.3943ZM1015.24 118.019C1015.24 126.987 1017.04 135.041 1020.74 142.082L1027.11 138.733C1024.03 132.883 1022.43 126.012 1022.43 118.019H1015.24ZM1020.8 142.182C1024.63 148.935 1029.63 154.241 1035.8 157.983L1039.53 151.835C1034.51 148.793 1030.34 144.431 1027.05 138.633L1020.8 142.182ZM1035.84 158.007C1042.14 161.711 1048.87 163.592 1055.98 163.592V156.403C1050.2 156.403 1044.72 154.891 1039.49 151.811L1035.84 158.007ZM1055.98 163.592C1063.21 163.592 1070 161.823 1076.31 158.301L1072.8 152.026C1067.57 154.948 1061.98 156.403 1055.98 156.403V163.592ZM1076.38 158.261C1082.72 154.53 1087.74 149.302 1091.43 142.662L1085.15 139.171C1082.05 144.742 1077.92 149.013 1072.73 152.065L1076.38 158.261ZM1091.45 142.625C1095.18 135.724 1096.97 127.649 1096.97 118.528H1089.79C1089.79 126.707 1088.18 133.557 1085.13 139.207L1091.45 142.625Z" fill="#D8D8D8"/>
</svg>
