<svg width="95" height="63" viewBox="0 0 95 63" fill="none" xmlns="http://www.w3.org/2000/svg">
<path d="M94.7058 42.5354C94.7058 45.3329 94.123 47.9555 92.9574 50.4033C91.9083 52.8511 90.4513 55.0075 88.5863 56.8724C86.8379 58.6209 84.7398 60.0196 82.292 61.0687C79.8442 62.1177 77.2216 62.6422 74.4241 62.6422C71.6266 62.6422 69.004 62.1177 66.5562 61.0687C64.1084 60.0196 61.952 58.6209 60.087 56.8724C58.3386 55.0075 56.9399 52.8511 55.8908 50.4033C54.8418 47.9555 54.3172 45.3329 54.3172 42.5354C54.3172 37.8729 55.0749 33.5601 56.5902 29.597C58.1055 25.5174 60.1453 21.7291 62.7097 18.2323C65.3906 14.7354 68.4212 11.53 71.8015 8.61595C75.2983 5.70191 78.9117 3.07928 82.6417 0.748047L89.1109 6.343C86.8962 8.32455 84.8564 10.8306 82.9914 13.8612C81.1264 16.8918 79.9025 19.9224 79.3197 22.953C83.749 24.0021 87.4207 26.3916 90.3348 30.1216C93.2488 33.735 94.7058 37.8729 94.7058 42.5354ZM41.0292 42.5354C41.0292 45.3329 40.4464 47.9555 39.2808 50.4033C38.2317 52.8511 36.7747 55.0075 34.9097 56.8724C33.1613 58.6209 31.0049 60.0196 28.4406 61.0687C25.9928 62.1177 23.3701 62.6422 20.5727 62.6422C17.7752 62.6422 15.1525 62.1177 12.7047 61.0687C10.3735 60.0196 8.27541 58.6209 6.41042 56.8724C4.662 55.0075 3.26326 52.8511 2.21421 50.4033C1.16515 47.9555 0.640625 45.3329 0.640625 42.5354C0.640625 37.8729 1.39828 33.5601 2.91358 29.597C4.42888 25.5174 6.4687 21.7291 9.03306 18.2323C11.714 14.7354 14.7446 11.53 18.1249 8.61595C21.6217 5.70191 25.2351 3.07928 28.9651 0.748047L35.2594 6.343C33.1613 8.32455 31.1798 10.8306 29.3148 13.8612C27.4498 16.8918 26.2259 19.9224 25.6431 22.953C30.0724 24.0021 33.7441 26.3916 36.6582 30.1216C39.5722 33.735 41.0292 37.8729 41.0292 42.5354Z" fill="#393939"/>
</svg>
