<svg width="1643" height="203" viewBox="0 0 1643 203" fill="none" xmlns="http://www.w3.org/2000/svg">
<path opacity="0.08" d="M130.617 22.8409H134.211V19.2465H130.617V22.8409ZM130.617 51.5893V55.1837H134.211V51.5893H130.617ZM83.296 51.5893V47.9949H79.7016V51.5893H83.296ZM83.296 200.42V204.014H86.8904V200.42H83.296ZM47.6785 200.42H44.0841V204.014H47.6785V200.42ZM47.6785 51.5893H51.2729V47.9949H47.6785V51.5893ZM0.357958 51.5893H-3.23644V55.1837H0.357958V51.5893ZM0.357958 22.8409V19.2465H-3.23644V22.8409H0.357958ZM127.022 22.8409V51.5893H134.211V22.8409H127.022ZM130.617 47.9949H83.296V55.1837H130.617V47.9949ZM79.7016 51.5893V200.42H86.8904V51.5893H79.7016ZM83.296 196.826H47.6785V204.014H83.296V196.826ZM51.2729 200.42V51.5893H44.0841V200.42H51.2729ZM47.6785 47.9949H0.357958V55.1837H47.6785V47.9949ZM3.95235 51.5893V22.8409H-3.23644V51.5893H3.95235ZM0.357958 26.4352H130.617V19.2465H0.357958V26.4352ZM286.608 140.633V144.228H289.653L290.154 141.224L286.608 140.633ZM183.572 140.633V137.039H179.665L179.99 140.932L183.572 140.633ZM194.257 164.548L191.825 167.195L194.257 164.548ZM245.648 156.152V152.558H243.412L242.424 154.564L245.648 156.152ZM284.064 156.152L287.507 157.185L288.895 152.558H284.064V156.152ZM260.658 189.735L262.815 192.61L262.829 192.6L262.842 192.59L260.658 189.735ZM181.537 193.805L179.753 196.926L179.782 196.943L179.812 196.959L181.537 193.805ZM156.35 168.11L153.185 169.814L153.195 169.833L153.205 169.851L156.35 168.11ZM156.35 91.5319L153.185 89.8278L156.35 91.5319ZM181.282 66.0908L183.028 69.2328L181.282 66.0908ZM254.044 65.8363L252.315 68.988L252.326 68.9938L252.337 68.9995L254.044 65.8363ZM278.722 90.5143L275.559 92.2213L275.575 92.2514L275.592 92.2812L278.722 90.5143ZM250.736 116.719V120.313H254.398L254.33 116.652L250.736 116.719ZM240.814 94.8392L238.458 97.5531L238.478 97.571L238.499 97.5886L240.814 94.8392ZM194.766 94.5848L197.149 97.2756L197.154 97.2713L194.766 94.5848ZM183.826 116.719L180.268 116.21L179.682 120.313H183.826V116.719ZM284.032 126.895C284.032 131.829 283.702 136.206 283.063 140.042L290.154 141.224C290.871 136.919 291.22 132.138 291.22 126.895H284.032ZM286.608 137.039H183.572V144.228H286.608V137.039ZM179.99 140.932C180.897 151.819 184.758 160.7 191.825 167.195L196.689 161.901C191.205 156.862 187.943 149.8 187.154 140.335L179.99 140.932ZM191.825 167.195C198.816 173.619 207.422 176.792 217.409 176.792V169.604C209.077 169.604 202.249 167.011 196.689 161.901L191.825 167.195ZM217.409 176.792C224.544 176.792 230.877 175.256 236.248 172.014C241.629 168.766 245.818 163.943 248.873 157.741L242.424 154.564C239.882 159.725 236.566 163.425 232.533 165.859C228.491 168.299 223.502 169.604 217.409 169.604V176.792ZM245.648 159.747H284.064V152.558H245.648V159.747ZM280.621 155.12C276.774 167.944 269.423 178.507 258.475 186.879L262.842 192.59C274.96 183.323 283.213 171.498 287.507 157.185L280.621 155.12ZM258.502 186.859C247.689 194.969 234.318 199.115 218.172 199.115V206.304C235.608 206.304 250.561 201.801 262.815 192.61L258.502 186.859ZM218.172 199.115C205.146 199.115 193.537 196.271 183.261 190.652L179.812 196.959C191.246 203.212 204.06 206.304 218.172 206.304V199.115ZM183.32 190.684C173.22 184.913 165.289 176.832 159.494 166.368L153.205 169.851C159.622 181.437 168.482 190.486 179.753 196.926L183.32 190.684ZM159.515 166.406C153.9 155.979 151.04 143.861 151.04 129.948H143.851C143.851 144.869 146.927 158.191 153.185 169.814L159.515 166.406ZM151.04 129.948C151.04 115.858 153.904 103.656 159.515 93.236L153.185 89.8278C146.924 101.456 143.851 114.865 143.851 129.948H151.04ZM159.515 93.236C165.133 82.8011 172.959 74.8268 183.028 69.2328L179.537 62.9487C168.235 69.2272 159.439 78.2137 153.185 89.8278L159.515 93.236ZM183.028 69.2328C193.109 63.6321 204.789 60.7808 218.172 60.7808V53.592C203.738 53.592 190.826 56.6769 179.537 62.9487L183.028 69.2328ZM218.172 60.7808C231.039 60.7808 242.389 63.5446 252.315 68.988L255.772 62.6847C244.667 56.5948 232.103 53.592 218.172 53.592V60.7808ZM252.337 68.9995C262.405 74.4332 270.125 82.153 275.559 92.2213L281.885 88.8072C275.785 77.5049 267.053 68.7728 255.751 62.6732L252.337 68.9995ZM275.592 92.2812C281.184 102.187 284.032 113.689 284.032 126.895H291.22C291.22 112.624 288.132 99.8728 281.852 88.7473L275.592 92.2812ZM254.33 116.652C254.143 106.558 250.443 98.2482 243.13 92.0898L238.499 97.5886C244.076 102.285 246.99 108.561 247.143 116.785L254.33 116.652ZM243.171 92.1254C236.01 85.9061 227.262 82.8493 217.154 82.8493V90.0381C225.703 90.0381 232.729 92.5783 238.458 97.5531L243.171 92.1254ZM217.154 82.8493C207.53 82.8493 199.196 85.8374 192.378 91.8983L197.154 97.2713C202.547 92.4773 209.139 90.0381 217.154 90.0381V82.8493ZM192.383 91.8941C185.681 97.8295 181.719 106.053 180.268 116.21L187.385 117.227C188.647 108.388 191.978 101.856 197.149 97.2756L192.383 91.8941ZM183.826 120.313H250.736V113.124H183.826V120.313ZM336.521 196.604L335.011 199.866L335.036 199.877L335.061 199.888L336.521 196.604ZM314.641 179.558L311.749 181.693L311.766 181.715L311.782 181.737L314.641 179.558ZM305.991 155.898V152.304H302.179L302.403 156.109L305.991 155.898ZM341.863 155.898L345.43 155.452L345.036 152.304H341.863V155.898ZM349.75 169.382L347.543 172.219L347.568 172.238L347.593 172.257L349.75 169.382ZM383.078 170.654L381.025 167.703L380.994 167.725L380.964 167.747L383.078 170.654ZM381.806 150.046L380.151 153.237L380.221 153.274L380.292 153.307L381.806 150.046ZM359.672 142.414L360.598 138.941L360.558 138.93L360.517 138.921L359.672 142.414ZM333.722 134.527L332.358 137.853L332.373 137.859L332.387 137.865L333.722 134.527ZM316.422 122.061L313.681 124.387L313.702 124.411L313.722 124.434L316.422 122.061ZM315.913 78.0481L312.983 75.9662L312.965 75.9921L312.947 76.0184L315.913 78.0481ZM335.249 62.7834L333.801 59.4934L333.789 59.4988L333.776 59.5044L335.249 62.7834ZM405.212 69.9069L402.888 72.6491L402.902 72.6606L402.915 72.6721L405.212 69.9069ZM421.749 103.744V107.338H425.609L425.334 103.488L421.749 103.744ZM387.657 103.744L384.078 104.069L384.375 107.338H387.657V103.744ZM380.534 90.5143L378.233 93.2755L378.295 93.3272L378.359 93.376L380.534 90.5143ZM348.987 88.9878L346.993 85.9971L346.959 86.0197L346.926 86.0431L348.987 88.9878ZM351.022 109.85L349.325 113.018L349.369 113.042L349.415 113.064L351.022 109.85ZM373.156 117.227L372.27 120.711L372.277 120.713L372.284 120.715L373.156 117.227ZM415.388 137.835L412.614 140.12L412.65 140.164L412.688 140.207L415.388 137.835ZM423.021 160.223H426.615V160.19L426.614 160.158L423.021 160.223ZM416.151 182.102L413.221 180.02L413.203 180.046L413.185 180.073L416.151 182.102ZM396.816 197.367L398.232 200.671L398.248 200.664L398.264 200.657L396.816 197.367ZM367.559 199.115C356.453 199.115 346.616 197.157 337.981 193.319L335.061 199.888C344.744 204.192 355.598 206.304 367.559 206.304V199.115ZM338.031 193.342C329.335 189.316 322.53 183.981 317.5 177.38L311.782 181.737C317.607 189.382 325.389 195.411 335.011 199.866L338.031 193.342ZM317.533 177.424C312.679 170.847 310.047 163.626 309.58 155.687L302.403 156.109C302.954 165.47 306.088 174.022 311.749 181.693L317.533 177.424ZM305.991 159.492H341.863V152.304H305.991V159.492ZM338.297 156.344C339.101 162.779 342.262 168.111 347.543 172.219L351.957 166.544C348.079 163.529 345.982 159.872 345.43 155.452L338.297 156.344ZM347.593 172.257C353.067 176.362 359.711 178.319 367.305 178.319V171.13C360.99 171.13 355.931 169.525 351.907 166.506L347.593 172.257ZM367.305 178.319C374.507 178.319 380.618 176.887 385.192 173.561L380.964 167.747C378.075 169.848 373.67 171.13 367.305 171.13V178.319ZM385.131 173.604C389.862 170.313 392.524 165.796 392.524 160.223H385.335C385.335 163.13 384.096 165.567 381.025 167.703L385.131 173.604ZM392.524 160.223C392.524 157.277 391.748 154.547 390.093 152.183C388.459 149.848 386.119 148.086 383.32 146.786L380.292 153.307C382.242 154.212 383.464 155.248 384.204 156.306C384.924 157.334 385.335 158.589 385.335 160.223H392.524ZM383.461 146.856C378.517 144.292 370.823 141.668 360.598 138.941L358.746 145.887C368.874 148.588 375.937 151.052 380.151 153.237L383.461 146.856ZM360.517 138.921C350.097 136.4 341.626 133.818 335.057 131.19L332.387 137.865C339.387 140.665 348.216 143.341 358.827 145.908L360.517 138.921ZM335.086 131.202C329.006 128.708 323.691 124.887 319.122 119.689L313.722 124.434C318.991 130.429 325.209 134.92 332.358 137.853L335.086 131.202ZM319.163 119.736C315.11 114.959 312.893 108.32 312.893 99.4186H305.704C305.704 109.513 308.236 117.969 313.681 124.387L319.163 119.736ZM312.893 99.4186C312.893 92.3418 314.879 85.9256 318.88 80.0778L312.947 76.0184C308.129 83.0607 305.704 90.8916 305.704 99.4186H312.893ZM318.844 80.13C322.999 74.2817 328.904 69.5722 336.721 66.0625L333.776 59.5044C324.972 63.4574 317.987 68.9243 312.983 75.9662L318.844 80.13ZM336.696 66.0734C344.629 62.5828 354.039 60.7808 365.015 60.7808V53.592C353.263 53.592 342.829 55.5213 333.801 59.4934L336.696 66.0734ZM365.015 60.7808C381.199 60.7808 393.695 64.8584 402.888 72.6491L407.536 67.1648C396.715 57.9947 382.413 53.592 365.015 53.592V60.7808ZM402.915 72.6721C412.091 80.2922 417.208 90.6237 418.163 104L425.334 103.488C424.254 88.3695 418.347 76.1432 407.508 67.1418L402.915 72.6721ZM421.749 100.149H387.657V107.338H421.749V100.149ZM391.237 103.418C390.643 96.8787 387.801 91.5228 382.709 87.6525L378.359 93.376C381.747 95.9507 383.655 99.4145 384.078 104.069L391.237 103.418ZM382.835 87.753C377.94 83.6739 371.526 81.8316 363.997 81.8316V89.0204C370.376 89.0204 374.987 90.5703 378.233 93.2755L382.835 87.753ZM363.997 81.8316C357.179 81.8316 351.374 83.0766 346.993 85.9971L350.981 91.9785C353.724 90.1499 357.926 89.0204 363.997 89.0204V81.8316ZM346.926 86.0431C342.545 89.1093 340.304 93.5303 340.304 98.9098H347.493C347.493 95.8089 348.644 93.6153 351.048 91.9324L346.926 86.0431ZM340.304 98.9098C340.304 101.914 341.066 104.708 342.667 107.168C344.254 109.605 346.543 111.527 349.325 113.018L352.72 106.681C350.753 105.627 349.479 104.455 348.692 103.245C347.919 102.059 347.493 100.654 347.493 98.9098H340.304ZM349.415 113.064C354.519 115.617 362.201 118.151 372.27 120.711L374.042 113.744C364.097 111.216 357.023 108.831 352.63 106.635L349.415 113.064ZM372.284 120.715C382.363 123.234 390.579 125.814 396.978 128.44L399.707 121.789C392.877 118.987 384.302 116.309 374.028 113.74L372.284 120.715ZM396.978 128.44C403.019 130.918 408.224 134.79 412.614 140.12L418.163 135.55C413.054 129.347 406.895 124.738 399.707 121.789L396.978 128.44ZM412.688 140.207C416.915 145.017 419.269 151.59 419.427 160.288L426.614 160.158C426.433 150.2 423.699 141.847 418.088 135.462L412.688 140.207ZM419.426 160.223C419.426 167.642 417.355 174.203 413.221 180.02L419.082 184.184C424.107 177.112 426.615 169.087 426.615 160.223H419.426ZM413.185 180.073C409.22 185.868 403.351 190.565 395.369 194.077L398.264 200.657C407.242 196.706 414.264 191.227 419.118 184.132L413.185 180.073ZM395.4 194.063C387.63 197.393 378.379 199.115 367.559 199.115V206.304C379.127 206.304 389.381 204.464 398.232 200.671L395.4 194.063ZM493.727 88.7334V85.139H490.133V88.7334H493.727ZM497.034 167.346L494.493 169.888L494.59 169.986L494.695 170.076L497.034 167.346ZM525.274 170.399H528.868V166.805H525.274V170.399ZM525.274 200.42V204.014H528.868V200.42H525.274ZM457.855 88.7334H461.449V85.139H457.855V88.7334ZM441.064 88.7334H437.469V92.3278H441.064V88.7334ZM441.064 59.4761V55.8817H437.469V59.4761H441.064ZM457.855 59.4761V63.0705H461.449V59.4761H457.855ZM457.855 24.6217V21.0273H454.261V24.6217H457.855ZM493.727 24.6217H497.321V21.0273H493.727V24.6217ZM493.727 59.4761H490.133V63.0705H493.727V59.4761ZM525.274 59.4761H528.868V55.8817H525.274V59.4761ZM525.274 88.7334V92.3278H528.868V88.7334H525.274ZM490.133 88.7334V156.916H497.321V88.7334H490.133ZM490.133 156.916C490.133 162.128 491.332 166.728 494.493 169.888L499.576 164.805C498.326 163.555 497.321 161.201 497.321 156.916H490.133ZM494.695 170.076C498.054 172.954 503.025 173.994 508.737 173.994V166.805C503.594 166.805 500.764 165.809 499.374 164.617L494.695 170.076ZM508.737 173.994H525.274V166.805H508.737V173.994ZM521.68 170.399V200.42H528.868V170.399H521.68ZM525.274 196.826H502.886V204.014H525.274V196.826ZM502.886 196.826C488.404 196.826 478.208 193.307 471.618 186.902C465.047 180.517 461.449 170.667 461.449 156.661H454.261C454.261 171.828 458.169 183.857 466.608 192.058C475.028 200.24 487.347 204.014 502.886 204.014V196.826ZM461.449 156.661V88.7334H454.261V156.661H461.449ZM457.855 85.139H441.064V92.3278H457.855V85.139ZM444.658 88.7334V59.4761H437.469V88.7334H444.658ZM441.064 63.0705H457.855V55.8817H441.064V63.0705ZM461.449 59.4761V24.6217H454.261V59.4761H461.449ZM457.855 28.2161H493.727V21.0273H457.855V28.2161ZM490.133 24.6217V59.4761H497.321V24.6217H490.133ZM493.727 63.0705H525.274V55.8817H493.727V63.0705ZM521.68 59.4761V88.7334H528.868V59.4761H521.68ZM525.274 85.139H493.727V92.3278H525.274V85.139ZM553.182 36.8335L550.64 39.3751L550.693 39.428L550.748 39.4787L553.182 36.8335ZM553.182 7.06734L555.669 9.66245L555.671 9.6603L553.182 7.06734ZM584.474 7.06734L581.933 9.60896L581.986 9.66189L582.041 9.71257L584.474 7.06734ZM584.474 36.8335L586.961 39.4286L586.964 39.4264L584.474 36.8335ZM586.51 59.4761H590.104V55.8817H586.51V59.4761ZM586.51 200.42V204.014H590.104V200.42H586.51ZM550.892 200.42H547.298V204.014H550.892V200.42ZM550.892 59.4761V55.8817H547.298V59.4761H550.892ZM568.955 39.0905C563.494 39.0905 559.13 37.4221 555.615 34.1882L550.748 39.4787C555.713 44.0468 561.866 46.2793 568.955 46.2793V39.0905ZM555.723 34.2919C552.35 30.9185 550.67 26.8394 550.67 21.8232H543.481C543.481 28.6795 545.872 34.6073 550.64 39.3751L555.723 34.2919ZM550.67 21.8232C550.67 16.8087 552.346 12.8464 555.669 9.66245L550.695 4.47223C545.876 9.09028 543.481 14.9652 543.481 21.8232H550.67ZM555.671 9.6603C559.194 6.27864 563.539 4.55587 568.955 4.55587V-2.63292C561.821 -2.63292 555.65 -0.285106 550.693 4.47439L555.671 9.6603ZM568.955 4.55587C574.372 4.55587 578.6 6.27656 581.933 9.60896L587.016 4.52572C582.207 -0.283026 576.089 -2.63292 568.955 -2.63292V4.55587ZM582.041 9.71257C585.516 12.9099 587.24 16.8577 587.24 21.8232H594.429C594.429 14.9162 591.913 9.02675 586.908 4.42212L582.041 9.71257ZM587.24 21.8232C587.24 26.7917 585.511 30.8553 581.985 34.2405L586.964 39.4264C591.918 34.6704 594.429 28.7272 594.429 21.8232H587.24ZM581.987 34.2384C578.664 37.4233 574.418 39.0905 568.955 39.0905V46.2793C576.044 46.2793 582.144 44.0456 586.961 39.4286L581.987 34.2384ZM582.915 59.4761V200.42H590.104V59.4761H582.915ZM586.51 196.826H550.892V204.014H586.51V196.826ZM554.486 200.42V59.4761H547.298V200.42H554.486ZM550.892 63.0705H586.51V55.8817H550.892V63.0705ZM838.458 73.4687L835.896 75.9899L835.917 76.0104L835.937 76.0306L838.458 73.4687ZM854.486 200.42V204.014H858.081V200.42H854.486ZM818.869 200.42H815.274V204.014H818.869V200.42ZM810.473 97.3833L807.858 99.8492L807.876 99.8681L807.894 99.8868L810.473 97.3833ZM764.425 97.3833L761.846 94.8788L761.845 94.8799L764.425 97.3833ZM756.029 200.42V204.014H759.623V200.42H756.029ZM720.411 200.42H716.817V204.014H720.411V200.42ZM712.016 97.3833L709.401 99.8492L709.418 99.8681L709.437 99.8868L712.016 97.3833ZM665.713 97.3833L663.135 94.8788L663.134 94.8799L665.713 97.3833ZM657.317 200.42V204.014H660.912V200.42H657.317ZM621.7 200.42H618.105V204.014H621.7V200.42ZM621.7 59.4761V55.8817H618.105V59.4761H621.7ZM657.317 59.4761H660.912V55.8817H657.317V59.4761ZM657.317 76.5216H653.723V87.0657L660.163 78.7171L657.317 76.5216ZM674.872 62.529L673.356 59.2699L673.341 59.2768L673.326 59.2838L674.872 62.529ZM728.298 64.5643L726.568 67.7151L726.592 67.7282L726.616 67.741L728.298 64.5643ZM748.397 84.4084L745.246 86.1382L748.359 91.8077L751.529 86.1706L748.397 84.4084ZM768.241 64.8187L766.49 61.6795L766.477 61.6868L766.464 61.6941L768.241 64.8187ZM796.735 61.0352C813.233 61.0352 826.162 66.0981 835.896 75.9899L841.02 70.9475C829.724 59.4688 814.837 53.8464 796.735 53.8464V61.0352ZM835.937 76.0306C845.764 85.7015 850.892 99.4323 850.892 117.736H858.081C858.081 98.0482 852.523 82.2672 840.979 70.9068L835.937 76.0306ZM850.892 117.736V200.42H858.081V117.736H850.892ZM854.486 196.826H818.869V204.014H854.486V196.826ZM822.463 200.42V122.57H815.274V200.42H822.463ZM822.463 122.57C822.463 110.965 819.511 101.534 813.052 94.8799L807.894 99.8868C812.629 104.766 815.274 112.127 815.274 122.57H822.463ZM813.088 94.9175C806.687 88.1282 798.035 84.8846 787.576 84.8846V92.0733C796.452 92.0733 803.065 94.7659 807.858 99.8492L813.088 94.9175ZM787.576 84.8846C777.114 84.8846 768.404 88.1283 761.846 94.8788L767.003 99.8879C771.978 94.7659 778.703 92.0733 787.576 92.0733V84.8846ZM761.845 94.8799C755.387 101.534 752.435 110.965 752.435 122.57H759.623C759.623 112.127 762.268 104.766 767.004 99.8868L761.845 94.8799ZM752.435 122.57V200.42H759.623V122.57H752.435ZM756.029 196.826H720.411V204.014H756.029V196.826ZM724.006 200.42V122.57H716.817V200.42H724.006ZM724.006 122.57C724.006 110.965 721.054 101.534 714.595 94.8799L709.437 99.8868C714.172 104.766 716.817 112.127 716.817 122.57H724.006ZM714.631 94.9175C708.23 88.1282 699.578 84.8846 689.119 84.8846V92.0733C697.995 92.0733 704.608 94.7659 709.401 99.8492L714.631 94.9175ZM689.119 84.8846C678.508 84.8846 669.705 88.1158 663.135 94.8788L668.291 99.8879C673.255 94.7784 680.055 92.0733 689.119 92.0733V84.8846ZM663.134 94.8799C656.675 101.534 653.723 110.965 653.723 122.57H660.912C660.912 112.127 663.557 104.766 668.292 99.8868L663.134 94.8799ZM653.723 122.57V200.42H660.912V122.57H653.723ZM657.317 196.826H621.7V204.014H657.317V196.826ZM625.294 200.42V59.4761H618.105V200.42H625.294ZM621.7 63.0705H657.317V55.8817H621.7V63.0705ZM653.723 59.4761V76.5216H660.912V59.4761H653.723ZM660.163 78.7171C664.38 73.2516 669.776 68.9366 676.417 65.7742L673.326 59.2838C665.72 62.9057 659.414 67.9191 654.471 74.3262L660.163 78.7171ZM676.388 65.7881C683.171 62.6332 690.62 61.0352 698.786 61.0352V53.8464C689.653 53.8464 681.159 55.6406 673.356 59.2699L676.388 65.7881ZM698.786 61.0352C709.278 61.0352 718.508 63.29 726.568 67.7151L730.028 61.4135C720.788 56.3406 710.344 53.8464 698.786 53.8464V61.0352ZM726.616 67.741C734.641 71.989 740.832 78.0982 745.246 86.1382L751.547 82.6785C746.464 73.4186 739.256 66.2984 729.98 61.3876L726.616 67.741ZM751.529 86.1706C755.768 78.6357 761.896 72.5612 770.017 67.9433L766.464 61.6941C757.285 66.9134 750.184 73.8988 745.264 82.6462L751.529 86.1706ZM769.991 67.9579C778.271 63.3402 787.166 61.0352 796.735 61.0352V53.8464C785.95 53.8464 775.849 56.46 766.49 61.6795L769.991 67.9579ZM914.235 193.805L912.473 196.938L912.492 196.949L912.51 196.959L914.235 193.805ZM888.539 168.11L885.395 169.851L885.405 169.87L885.416 169.888L888.539 168.11ZM888.794 91.7863L885.691 89.9722L885.68 89.9901L885.67 90.0082L888.794 91.7863ZM914.998 66.3452L916.702 69.5099L916.721 69.4998L916.74 69.4895L914.998 66.3452ZM988.778 66.3452L987.036 69.4895L987.055 69.4998L987.073 69.5099L988.778 66.3452ZM1014.73 91.7863L1011.6 93.5644L1011.61 93.5825L1011.62 93.6004L1014.73 91.7863ZM1014.47 168.11L1011.39 166.26L1011.38 166.278L1011.37 166.296L1014.47 168.11ZM988.014 193.805L989.718 196.97L989.727 196.965L989.735 196.961L988.014 193.805ZM968.933 167.092L970.655 170.248L970.671 170.239L970.687 170.23L968.933 167.092ZM982.672 152.845L985.834 154.554L982.672 152.845ZM977.075 99.1642L974.473 101.645L974.503 101.676L974.533 101.706L977.075 99.1642ZM925.684 99.1642L923.082 96.6838L923.081 96.6853L925.684 99.1642ZM925.429 160.986L922.767 163.401L922.796 163.433L922.826 163.465L925.429 160.986ZM950.87 199.115C937.845 199.115 926.236 196.271 915.96 190.652L912.51 196.959C923.944 203.212 936.759 206.304 950.87 206.304V199.115ZM915.997 190.672C905.722 184.892 897.622 176.8 891.663 166.332L885.416 169.888C892.008 181.468 901.039 190.506 912.473 196.938L915.997 190.672ZM891.684 166.368C885.913 155.949 882.975 143.844 882.975 129.948H875.786C875.786 144.885 878.954 158.221 885.395 169.851L891.684 166.368ZM882.975 129.948C882.975 116.068 885.991 103.977 891.918 93.5644L885.67 90.0082C879.046 101.645 875.786 114.994 875.786 129.948H882.975ZM891.897 93.6004C898.016 83.1342 906.271 75.1266 916.702 69.5099L913.294 63.1804C901.676 69.4363 892.462 78.3895 885.691 89.9722L891.897 93.6004ZM916.74 69.4895C927.191 63.7013 938.88 60.7808 951.888 60.7808V53.592C937.758 53.592 924.855 56.7773 913.257 63.2008L916.74 69.4895ZM951.888 60.7808C964.895 60.7808 976.585 63.7013 987.036 69.4895L990.519 63.2008C978.921 56.7773 966.018 53.592 951.888 53.592V60.7808ZM987.073 69.5099C997.496 75.122 1005.66 83.1181 1011.6 93.5644L1017.85 90.0082C1011.25 78.4055 1002.11 69.4409 990.482 63.1804L987.073 69.5099ZM1011.62 93.6004C1017.71 104.006 1020.8 116.085 1020.8 129.948H1027.99C1027.99 114.978 1024.64 101.615 1017.83 89.9722L1011.62 93.6004ZM1020.8 129.948C1020.8 143.794 1017.63 155.86 1011.39 166.26L1017.56 169.959C1024.54 158.31 1027.99 144.935 1027.99 129.948H1020.8ZM1011.37 166.296C1005.25 176.756 996.912 184.857 986.293 190.65L989.735 196.961C1001.5 190.541 1010.8 181.512 1017.58 169.924L1011.37 166.296ZM986.31 190.64C975.859 196.268 964.073 199.115 950.87 199.115V206.304C965.144 206.304 978.121 203.215 989.718 196.97L986.31 190.64ZM950.87 175.266C957.91 175.266 964.524 173.592 970.655 170.248L967.212 163.937C962.149 166.698 956.721 168.077 950.87 168.077V175.266ZM970.687 170.23C977.097 166.648 982.144 161.38 985.834 154.554L979.51 151.136C976.415 156.861 972.303 161.091 967.18 163.954L970.687 170.23ZM985.834 154.554C989.574 147.634 991.354 139.382 991.354 129.948H984.166C984.166 138.493 982.554 145.505 979.51 151.136L985.834 154.554ZM991.354 129.948C991.354 115.921 987.613 104.62 979.616 96.6226L974.533 101.706C980.783 107.956 984.166 117.177 984.166 129.948H991.354ZM979.676 96.6838C972.036 88.6714 962.528 84.6301 951.379 84.6301V91.8189C960.584 91.8189 968.205 95.0708 974.473 101.645L979.676 96.6838ZM951.379 84.6301C940.231 84.6301 930.722 88.6714 923.082 96.6838L928.285 101.645C934.553 95.0708 942.175 91.8189 951.379 91.8189V84.6301ZM923.081 96.6853C915.459 104.688 911.913 115.966 911.913 129.948H919.102C919.102 117.132 922.34 107.887 928.286 101.643L923.081 96.6853ZM911.913 129.948C911.913 143.914 915.365 155.24 922.767 163.401L928.092 158.571C922.264 152.147 919.102 142.78 919.102 129.948H911.913ZM922.826 163.465C930.315 171.328 939.748 175.266 950.87 175.266V168.077C941.639 168.077 934.112 164.891 928.032 158.507L922.826 163.465ZM1169.33 73.4687L1166.75 75.969L1166.76 75.9793L1166.77 75.9896L1169.33 73.4687ZM1184.85 200.42V204.014H1188.45V200.42H1184.85ZM1149.23 200.42H1145.64V204.014H1149.23V200.42ZM1140.84 96.8745L1138.19 99.3034L1138.21 99.322L1138.22 99.3403L1140.84 96.8745ZM1094.54 96.8745L1091.92 94.4065L1091.92 94.4087L1094.54 96.8745ZM1086.14 200.42V204.014H1089.73V200.42H1086.14ZM1050.52 200.42H1046.93V204.014H1050.52V200.42ZM1050.52 59.4761V55.8817H1046.93V59.4761H1050.52ZM1086.14 59.4761H1089.73V55.8817H1086.14V59.4761ZM1086.14 77.0304H1082.55V87.5064L1088.98 79.2372L1086.14 77.0304ZM1104.2 62.7834L1105.72 66.0425L1105.73 66.035L1105.75 66.0273L1104.2 62.7834ZM1128.63 61.0352C1144.58 61.0352 1157.17 66.076 1166.75 75.969L1171.91 70.9684C1160.8 59.4908 1146.25 53.8464 1128.63 53.8464V61.0352ZM1166.77 75.9896C1176.28 85.655 1181.26 99.4003 1181.26 117.736H1188.45C1188.45 98.0801 1183.08 82.3137 1171.89 70.9478L1166.77 75.9896ZM1181.26 117.736V200.42H1188.45V117.736H1181.26ZM1184.85 196.826H1149.23V204.014H1184.85V196.826ZM1152.83 200.42V122.57H1145.64V200.42H1152.83ZM1152.83 122.57C1152.83 110.805 1149.88 101.227 1143.45 94.4087L1138.22 99.3403C1142.99 104.395 1145.64 111.947 1145.64 122.57H1152.83ZM1143.49 94.4457C1137.09 87.4713 1128.43 84.1213 1117.94 84.1213V91.3101C1126.79 91.3101 1133.39 94.066 1138.19 99.3034L1143.49 94.4457ZM1117.94 84.1213C1107.3 84.1213 1098.48 87.4578 1091.92 94.4065L1097.15 99.3425C1102.12 94.0795 1108.91 91.3101 1117.94 91.3101V84.1213ZM1091.92 94.4087C1085.49 101.227 1082.55 110.805 1082.55 122.57H1089.73C1089.73 111.947 1092.38 104.395 1097.15 99.3403L1091.92 94.4087ZM1082.55 122.57V200.42H1089.73V122.57H1082.55ZM1086.14 196.826H1050.52V204.014H1086.14V196.826ZM1054.12 200.42V59.4761H1046.93V200.42H1054.12ZM1050.52 63.0705H1086.14V55.8817H1050.52V63.0705ZM1082.55 59.4761V77.0304H1089.73V59.4761H1082.55ZM1088.98 79.2372C1093.36 73.6003 1098.92 69.2038 1105.72 66.0425L1102.69 59.5243C1094.9 63.1474 1088.42 68.2489 1083.3 74.8237L1088.98 79.2372ZM1105.75 66.0273C1112.7 62.7115 1120.31 61.0352 1128.63 61.0352V53.8464C1119.31 53.8464 1110.63 55.7318 1102.65 59.5396L1105.75 66.0273ZM1221.01 36.8335L1218.47 39.3751L1218.52 39.428L1218.58 39.4787L1221.01 36.8335ZM1221.01 7.06734L1223.5 9.66245L1223.5 9.6603L1221.01 7.06734ZM1252.3 7.06734L1249.76 9.60896L1249.82 9.66189L1249.87 9.71257L1252.3 7.06734ZM1252.3 36.8335L1254.79 39.4286L1254.79 39.4264L1252.3 36.8335ZM1254.34 59.4761H1257.93V55.8817H1254.34V59.4761ZM1254.34 200.42V204.014H1257.93V200.42H1254.34ZM1218.72 200.42H1215.13V204.014H1218.72V200.42ZM1218.72 59.4761V55.8817H1215.13V59.4761H1218.72ZM1236.78 39.0905C1231.32 39.0905 1226.96 37.4221 1223.44 34.1882L1218.58 39.4787C1223.54 44.0468 1229.7 46.2793 1236.78 46.2793V39.0905ZM1223.55 34.2919C1220.18 30.9185 1218.5 26.8394 1218.5 21.8232H1211.31C1211.31 28.6795 1213.7 34.6073 1218.47 39.3751L1223.55 34.2919ZM1218.5 21.8232C1218.5 16.8087 1220.18 12.8464 1223.5 9.66245L1218.52 4.47223C1213.71 9.09028 1211.31 14.9652 1211.31 21.8232H1218.5ZM1223.5 9.6603C1227.02 6.27864 1231.37 4.55587 1236.78 4.55587V-2.63292C1229.65 -2.63292 1223.48 -0.285106 1218.52 4.47439L1223.5 9.6603ZM1236.78 4.55587C1242.2 4.55587 1246.43 6.27656 1249.76 9.60896L1254.85 4.52572C1250.04 -0.283026 1243.92 -2.63292 1236.78 -2.63292V4.55587ZM1249.87 9.71257C1253.35 12.9099 1255.07 16.8577 1255.07 21.8232H1262.26C1262.26 14.9162 1259.74 9.02675 1254.74 4.42212L1249.87 9.71257ZM1255.07 21.8232C1255.07 26.7917 1253.34 30.8553 1249.81 34.2405L1254.79 39.4264C1259.75 34.6704 1262.26 28.7272 1262.26 21.8232H1255.07ZM1249.82 34.2384C1246.49 37.4233 1242.25 39.0905 1236.78 39.0905V46.2793C1243.87 46.2793 1249.97 44.0456 1254.79 39.4286L1249.82 34.2384ZM1250.74 59.4761V200.42H1257.93V59.4761H1250.74ZM1254.34 196.826H1218.72V204.014H1254.34V196.826ZM1222.32 200.42V59.4761H1215.13V200.42H1222.32ZM1218.72 63.0705H1254.34V55.8817H1218.72V63.0705ZM1288.77 91.5319L1285.58 89.8659L1285.57 89.8853L1285.56 89.9047L1288.77 91.5319ZM1311.92 66.0908L1310.06 63.0133L1310.05 63.0205L1310.04 63.0277L1311.92 66.0908ZM1372.21 63.5466L1370.5 66.7048L1370.51 66.7125L1370.53 66.72L1372.21 63.5466ZM1391.29 79.5746L1388.4 81.7068L1394.89 90.512V79.5746H1391.29ZM1391.29 59.4761V55.8817H1387.7V59.4761H1391.29ZM1427.17 59.4761H1430.76V55.8817H1427.17V59.4761ZM1427.17 200.42V204.014H1430.76V200.42H1427.17ZM1391.29 200.42H1387.7V204.014H1391.29V200.42ZM1391.29 179.813H1394.89V168.306L1388.34 177.767L1391.29 179.813ZM1372.21 196.349L1373.9 199.523L1373.91 199.516L1373.93 199.51L1372.21 196.349ZM1311.92 193.551L1310 196.59L1310.01 196.597L1310.02 196.605L1311.92 193.551ZM1288.77 167.855L1285.55 169.463L1285.57 169.492L1285.58 169.521L1288.77 167.855ZM1386.21 107.814L1383.04 109.523L1383.05 109.542L1383.06 109.56L1386.21 107.814ZM1372.47 93.5672L1370.65 96.6653L1370.68 96.6855L1370.71 96.7049L1372.47 93.5672ZM1335.58 93.3128L1333.78 90.1978L1335.58 93.3128ZM1321.84 107.56L1318.71 105.786L1318.71 105.8L1318.7 105.814L1321.84 107.56ZM1321.84 151.827L1318.66 153.501L1318.69 153.552L1318.71 153.602L1321.84 151.827ZM1335.58 166.329L1333.71 169.403L1333.74 169.415L1333.76 169.427L1335.58 166.329ZM1372.47 166.583L1374.22 169.721L1374.26 169.702L1374.29 169.681L1372.47 166.583ZM1386.21 152.336L1389.35 154.082L1389.36 154.064L1389.37 154.045L1386.21 152.336ZM1283.97 129.439C1283.97 115.671 1286.67 103.608 1291.97 93.159L1285.56 89.9047C1279.67 101.505 1276.78 114.713 1276.78 129.439H1283.97ZM1291.95 93.1979C1297.45 82.6909 1304.74 74.7183 1313.8 69.1538L1310.04 63.0277C1299.76 69.3358 1291.62 78.3239 1285.58 89.8659L1291.95 93.1979ZM1313.77 69.1683C1323.02 63.5868 1333.32 60.7808 1344.74 60.7808V53.592C1332.07 53.592 1320.49 56.7222 1310.06 63.0133L1313.77 69.1683ZM1344.74 60.7808C1354.76 60.7808 1363.31 62.7994 1370.5 66.7048L1373.93 60.3885C1365.51 55.8136 1355.74 53.592 1344.74 53.592V60.7808ZM1370.53 66.72C1378.08 70.7402 1384.01 75.7469 1388.4 81.7068L1394.19 77.4424C1389.08 70.512 1382.29 64.8335 1373.9 60.3733L1370.53 66.72ZM1394.89 79.5746V59.4761H1387.7V79.5746H1394.89ZM1391.29 63.0705H1427.17V55.8817H1391.29V63.0705ZM1423.57 59.4761V200.42H1430.76V59.4761H1423.57ZM1427.17 196.826H1391.29V204.014H1427.17V196.826ZM1394.89 200.42V179.813H1387.7V200.42H1394.89ZM1388.34 177.767C1384.13 183.852 1378.22 189.007 1370.5 193.189L1373.93 199.51C1382.49 194.872 1389.3 189.003 1394.25 181.859L1388.34 177.767ZM1370.53 193.176C1363.15 197.097 1354.51 199.115 1344.48 199.115V206.304C1355.49 206.304 1365.33 204.082 1373.9 199.523L1370.53 193.176ZM1344.48 199.115C1333.26 199.115 1323.07 196.24 1313.81 190.497L1310.02 196.605C1320.44 203.073 1331.96 206.304 1344.48 206.304V199.115ZM1313.84 190.512C1304.75 184.774 1297.45 176.704 1291.95 166.189L1285.58 169.521C1291.61 181.056 1299.75 190.116 1310 196.59L1313.84 190.512ZM1291.98 166.248C1286.67 155.624 1283.97 143.383 1283.97 129.439H1276.78C1276.78 144.329 1279.67 157.699 1285.55 169.463L1291.98 166.248ZM1394.89 129.948C1394.89 120.831 1393.1 112.822 1389.35 106.069L1383.06 109.56C1386.1 115.019 1387.7 121.765 1387.7 129.948H1394.89ZM1389.37 106.105C1385.68 99.2793 1380.63 94.0115 1374.22 90.4295L1370.71 96.7049C1375.84 99.568 1379.95 103.798 1383.04 109.523L1389.37 106.105ZM1374.29 90.4691C1367.98 86.7559 1361.16 84.8846 1353.9 84.8846V92.0733C1359.86 92.0733 1365.42 93.5942 1370.65 96.6653L1374.29 90.4691ZM1353.9 84.8846C1346.67 84.8846 1339.94 86.6533 1333.78 90.1978L1337.37 96.4277C1342.41 93.5272 1347.89 92.0733 1353.9 92.0733V84.8846ZM1333.78 90.1978C1327.57 93.7767 1322.55 99.0193 1318.71 105.786L1324.97 109.334C1328.25 103.549 1332.39 99.2939 1337.37 96.4277L1333.78 90.1978ZM1318.7 105.814C1314.95 112.557 1313.16 120.478 1313.16 129.439H1320.35C1320.35 121.44 1321.94 114.774 1324.98 109.305L1318.7 105.814ZM1313.16 129.439C1313.16 138.407 1314.95 146.461 1318.66 153.501L1325.02 150.153C1321.94 144.303 1320.35 137.432 1320.35 129.439H1313.16ZM1318.71 153.602C1322.55 160.355 1327.54 165.661 1333.71 169.403L1337.44 163.255C1332.42 160.213 1328.26 155.851 1324.97 150.053L1318.71 153.602ZM1333.76 169.427C1340.05 173.131 1346.78 175.011 1353.9 175.011V167.823C1348.12 167.823 1342.64 166.311 1337.4 163.231L1333.76 169.427ZM1353.9 175.011C1361.12 175.011 1367.92 173.243 1374.22 169.721L1370.71 163.446C1365.48 166.368 1359.9 167.823 1353.9 167.823V175.011ZM1374.29 169.681C1380.63 165.95 1385.66 160.722 1389.35 154.082L1383.06 150.591C1379.97 156.162 1375.83 160.433 1370.65 163.485L1374.29 169.681ZM1389.37 154.045C1393.1 147.144 1394.89 139.069 1394.89 129.948H1387.7C1387.7 138.127 1386.1 144.977 1383.04 150.627L1389.37 154.045ZM1497.57 12.1556H1501.16V8.56118H1497.57V12.1556ZM1497.57 200.42V204.014H1501.16V200.42H1497.57ZM1461.95 200.42H1458.36V204.014H1461.95V200.42ZM1461.95 12.1556V8.56118H1458.36V12.1556H1461.95ZM1493.98 12.1556V200.42H1501.16V12.1556H1493.98ZM1497.57 196.826H1461.95V204.014H1497.57V196.826ZM1465.55 200.42V12.1556H1458.36V200.42H1465.55ZM1461.95 15.75H1497.57V8.56118H1461.95V15.75ZM1555.66 196.604L1554.15 199.866L1554.17 199.877L1554.2 199.888L1555.66 196.604ZM1533.78 179.558L1530.89 181.693L1530.9 181.715L1530.92 181.737L1533.78 179.558ZM1525.13 155.898V152.304H1521.32L1521.54 156.109L1525.13 155.898ZM1561 155.898L1564.57 155.452L1564.17 152.304H1561V155.898ZM1568.89 169.382L1566.68 172.219L1566.71 172.238L1566.73 172.257L1568.89 169.382ZM1602.21 170.654L1600.16 167.703L1600.13 167.725L1600.1 167.747L1602.21 170.654ZM1600.94 150.046L1599.29 153.237L1599.36 153.274L1599.43 153.307L1600.94 150.046ZM1578.81 142.414L1579.74 138.941L1579.69 138.93L1579.65 138.921L1578.81 142.414ZM1552.86 134.527L1551.49 137.853L1551.51 137.859L1551.52 137.865L1552.86 134.527ZM1535.56 122.061L1532.82 124.387L1532.84 124.411L1532.86 124.434L1535.56 122.061ZM1535.05 78.0481L1532.12 75.9662L1532.1 75.9921L1532.08 76.0184L1535.05 78.0481ZM1554.39 62.7834L1552.94 59.4934L1552.93 59.4988L1552.91 59.5044L1554.39 62.7834ZM1624.35 69.9069L1622.02 72.6491L1622.04 72.6606L1622.05 72.6721L1624.35 69.9069ZM1640.89 103.744V107.338H1644.75L1644.47 103.488L1640.89 103.744ZM1606.79 103.744L1603.21 104.069L1603.51 107.338H1606.79V103.744ZM1599.67 90.5143L1597.37 93.2755L1597.43 93.3272L1597.5 93.376L1599.67 90.5143ZM1568.12 88.9878L1566.13 85.9971L1566.1 86.0197L1566.06 86.0431L1568.12 88.9878ZM1570.16 109.85L1568.46 113.018L1568.51 113.042L1568.55 113.064L1570.16 109.85ZM1592.29 117.227L1591.41 120.711L1591.41 120.713L1591.42 120.715L1592.29 117.227ZM1634.53 137.835L1631.75 140.12L1631.79 140.164L1631.83 140.207L1634.53 137.835ZM1642.16 160.223H1645.75V160.19L1645.75 160.158L1642.16 160.223ZM1635.29 182.102L1632.36 180.02L1632.34 180.046L1632.32 180.073L1635.29 182.102ZM1615.95 197.367L1617.37 200.671L1617.38 200.664L1617.4 200.657L1615.95 197.367ZM1586.7 199.115C1575.59 199.115 1565.75 197.157 1557.12 193.319L1554.2 199.888C1563.88 204.192 1574.73 206.304 1586.7 206.304V199.115ZM1557.17 193.342C1548.47 189.316 1541.67 183.981 1536.64 177.38L1530.92 181.737C1536.74 189.382 1544.53 195.411 1554.15 199.866L1557.17 193.342ZM1536.67 177.424C1531.82 170.847 1529.18 163.626 1528.72 155.687L1521.54 156.109C1522.09 165.47 1525.22 174.022 1530.89 181.693L1536.67 177.424ZM1525.13 159.492H1561V152.304H1525.13V159.492ZM1557.43 156.344C1558.24 162.779 1561.4 168.111 1566.68 172.219L1571.09 166.544C1567.22 163.529 1565.12 159.872 1564.57 155.452L1557.43 156.344ZM1566.73 172.257C1572.2 176.362 1578.85 178.319 1586.44 178.319V171.13C1580.13 171.13 1575.07 169.525 1571.04 166.506L1566.73 172.257ZM1586.44 178.319C1593.64 178.319 1599.76 176.887 1604.33 173.561L1600.1 167.747C1597.21 169.848 1592.81 171.13 1586.44 171.13V178.319ZM1604.27 173.604C1609 170.313 1611.66 165.796 1611.66 160.223H1604.47C1604.47 163.13 1603.23 165.567 1600.16 167.703L1604.27 173.604ZM1611.66 160.223C1611.66 157.277 1610.88 154.547 1609.23 152.183C1607.6 149.848 1605.26 148.086 1602.46 146.786L1599.43 153.307C1601.38 154.212 1602.6 155.248 1603.34 156.306C1604.06 157.334 1604.47 158.589 1604.47 160.223H1611.66ZM1602.6 146.856C1597.65 144.292 1589.96 141.668 1579.74 138.941L1577.88 145.887C1588.01 148.588 1595.07 151.052 1599.29 153.237L1602.6 146.856ZM1579.65 138.921C1569.23 136.4 1560.76 133.818 1554.19 131.19L1551.52 137.865C1558.52 140.665 1567.35 143.341 1577.96 145.908L1579.65 138.921ZM1554.22 131.202C1548.14 128.708 1542.83 124.887 1538.26 119.689L1532.86 124.434C1538.13 130.429 1544.35 134.92 1551.49 137.853L1554.22 131.202ZM1538.3 119.736C1534.25 114.959 1532.03 108.32 1532.03 99.4186H1524.84C1524.84 109.513 1527.37 117.969 1532.82 124.387L1538.3 119.736ZM1532.03 99.4186C1532.03 92.3418 1534.02 85.9256 1538.02 80.0778L1532.08 76.0184C1527.27 83.0607 1524.84 90.8916 1524.84 99.4186H1532.03ZM1537.98 80.13C1542.14 74.2817 1548.04 69.5722 1555.86 66.0625L1552.91 59.5044C1544.11 63.4574 1537.12 68.9243 1532.12 75.9662L1537.98 80.13ZM1555.83 66.0734C1563.77 62.5828 1573.18 60.7808 1584.15 60.7808V53.592C1572.4 53.592 1561.97 55.5213 1552.94 59.4934L1555.83 66.0734ZM1584.15 60.7808C1600.34 60.7808 1612.83 64.8584 1622.02 72.6491L1626.67 67.1648C1615.85 57.9947 1601.55 53.592 1584.15 53.592V60.7808ZM1622.05 72.6721C1631.23 80.2922 1636.34 90.6237 1637.3 104L1644.47 103.488C1643.39 88.3695 1637.48 76.1432 1626.65 67.1418L1622.05 72.6721ZM1640.89 100.149H1606.79V107.338H1640.89V100.149ZM1610.37 103.418C1609.78 96.8787 1606.94 91.5228 1601.85 87.6525L1597.5 93.376C1600.88 95.9507 1602.79 99.4145 1603.21 104.069L1610.37 103.418ZM1601.97 87.753C1597.08 83.6739 1590.66 81.8316 1583.13 81.8316V89.0204C1589.51 89.0204 1594.12 90.5703 1597.37 93.2755L1601.97 87.753ZM1583.13 81.8316C1576.32 81.8316 1570.51 83.0766 1566.13 85.9971L1570.12 91.9785C1572.86 90.1499 1577.06 89.0204 1583.13 89.0204V81.8316ZM1566.06 86.0431C1561.68 89.1093 1559.44 93.5303 1559.44 98.9098H1566.63C1566.63 95.8089 1567.78 93.6153 1570.18 91.9324L1566.06 86.0431ZM1559.44 98.9098C1559.44 101.914 1560.2 104.708 1561.8 107.168C1563.39 109.605 1565.68 111.527 1568.46 113.018L1571.86 106.681C1569.89 105.627 1568.62 104.455 1567.83 103.245C1567.06 102.059 1566.63 100.654 1566.63 98.9098H1559.44ZM1568.55 113.064C1573.66 115.617 1581.34 118.151 1591.41 120.711L1593.18 113.744C1583.23 111.216 1576.16 108.831 1571.77 106.635L1568.55 113.064ZM1591.42 120.715C1601.5 123.234 1609.72 125.814 1616.12 128.44L1618.84 121.789C1612.01 118.987 1603.44 116.309 1593.16 113.74L1591.42 120.715ZM1616.12 128.44C1622.16 130.918 1627.36 134.79 1631.75 140.12L1637.3 135.55C1632.19 129.347 1626.03 124.738 1618.84 121.789L1616.12 128.44ZM1631.83 140.207C1636.05 145.017 1638.41 151.59 1638.56 160.288L1645.75 160.158C1645.57 150.2 1642.84 141.847 1637.23 135.462L1631.83 140.207ZM1638.56 160.223C1638.56 167.642 1636.49 174.203 1632.36 180.02L1638.22 184.184C1643.24 177.112 1645.75 169.087 1645.75 160.223H1638.56ZM1632.32 180.073C1628.36 185.868 1622.49 190.565 1614.51 194.077L1617.4 200.657C1626.38 196.706 1633.4 191.227 1638.25 184.132L1632.32 180.073ZM1614.54 194.063C1606.77 197.393 1597.52 199.115 1586.7 199.115V206.304C1598.26 206.304 1608.52 204.464 1617.37 200.671L1614.54 194.063Z" fill="#D8D8D8"/>
</svg>
