<svg width="275" height="46" viewBox="0 0 275 46" fill="none" xmlns="http://www.w3.org/2000/svg">
<path d="M8.54 38.34H7.22714V39.6529H8.54V38.34ZM22.34 38.34H23.6529V37.0271H22.34V38.34ZM22.34 45V46.3129H23.6529V45H22.34ZM0.14 45H-1.17286V46.3129H0.14V45ZM0.14 3.12V1.80714H-1.17286V3.12H0.14ZM8.54 3.12H9.85286V1.80714H8.54V3.12ZM8.54 39.6529H22.34V37.0271H8.54V39.6529ZM21.0271 38.34V45H23.6529V38.34H21.0271ZM22.34 43.6871H0.14V46.3129H22.34V43.6871ZM1.45286 45V3.12H-1.17286V45H1.45286ZM0.14 4.43286H8.54V1.80714H0.14V4.43286ZM7.22714 3.12V38.34H9.85286V3.12H7.22714ZM58.3391 30.9V32.2129H59.4512L59.6341 31.1158L58.3391 30.9ZM34.0391 30.9V29.5871H32.6122L32.7307 31.009L34.0391 30.9ZM36.5591 36.54L35.6707 37.5067L35.6707 37.5067L36.5591 36.54ZM48.6791 34.56V33.2471H47.8622L47.5013 33.9799L48.6791 34.56ZM57.7391 34.56L58.9966 34.9372L59.5036 33.2471H57.7391V34.56ZM52.2191 42.48L53.0068 43.5303L53.0166 43.5229L52.2191 42.48ZM33.5591 43.44L32.9077 44.5799L32.9184 44.586L32.9291 44.5919L33.5591 43.44ZM27.6191 37.38L26.4631 38.0024L26.4668 38.0093L26.4706 38.0161L27.6191 37.38ZM27.6191 19.32L26.4631 18.6976L26.4631 18.6976L27.6191 19.32ZM33.4991 13.32L34.1366 14.4676L34.1366 14.4676L33.4991 13.32ZM50.6591 13.26L50.0278 14.4112L50.0355 14.4153L50.6591 13.26ZM56.4791 19.08L55.3237 19.7035L55.3296 19.7145L55.3358 19.7254L56.4791 19.08ZM49.8791 25.26V26.5729H51.2165L51.1917 25.2357L49.8791 25.26ZM47.5391 20.1L46.6782 21.0913L46.6858 21.0978L46.6934 21.1042L47.5391 20.1ZM36.6791 20.04L37.5495 21.0228L37.5513 21.0212L36.6791 20.04ZM34.0991 25.26L32.7994 25.0743L32.5853 26.5729H34.0991V25.26ZM57.2662 27.66C57.2662 28.8036 57.1898 29.8097 57.0441 30.6842L59.6341 31.1158C59.8083 30.0703 59.8919 28.9164 59.8919 27.66H57.2662ZM58.3391 29.5871H34.0391V32.2129H58.3391V29.5871ZM32.7307 31.009C32.9524 33.6687 33.9016 35.881 35.6707 37.5067L37.4474 35.5733C36.2566 34.479 35.5258 32.9313 35.3474 30.791L32.7307 31.009ZM35.6707 37.5067C37.4121 39.1068 39.5569 39.8929 42.0191 39.8929V37.2671C40.1613 37.2671 38.6661 36.6932 37.4474 35.5733L35.6707 37.5067ZM42.0191 39.8929C43.7694 39.8929 45.3497 39.5155 46.7025 38.699C48.0587 37.8804 49.1031 36.6703 49.8568 35.1401L47.5013 33.9799C46.935 35.1297 46.2094 35.9296 45.3456 36.451C44.4784 36.9745 43.3887 37.2671 42.0191 37.2671V39.8929ZM48.6791 35.8729H57.7391V33.2471H48.6791V35.8729ZM56.4816 34.1828C55.6031 37.111 53.9278 39.5206 51.4216 41.4371L53.0166 43.5229C55.9503 41.2794 57.955 38.409 58.9966 34.9372L56.4816 34.1828ZM51.4313 41.4297C48.9746 43.2723 45.9236 44.2271 42.1991 44.2271V46.8529C46.3946 46.8529 50.0235 45.7677 53.0068 43.5303L51.4313 41.4297ZM42.1991 44.2271C39.1974 44.2271 36.5376 43.5725 34.189 42.2881L32.9291 44.5919C35.7005 46.1075 38.8007 46.8529 42.1991 46.8529V44.2271ZM34.2104 42.3001C31.9043 40.9824 30.094 39.139 28.7675 36.7439L26.4706 38.0161C28.0241 40.821 30.1738 43.0176 32.9077 44.5799L34.2104 42.3001ZM28.775 36.7576C27.4927 34.3761 26.8319 31.5959 26.8319 28.38H24.2062C24.2062 31.9641 24.9455 35.1839 26.4631 38.0024L28.775 36.7576ZM26.8319 28.38C26.8319 25.1213 27.4938 22.3218 28.775 19.9424L26.4631 18.6976C24.9443 21.5182 24.2062 24.7587 24.2062 28.38H26.8319ZM28.775 19.9424C30.059 17.5578 31.8417 15.7426 34.1366 14.4676L32.8615 12.1724C30.1165 13.6974 27.9791 15.8822 26.4631 18.6976L28.775 19.9424ZM34.1366 14.4676C36.4361 13.1902 39.111 12.5329 42.1991 12.5329V9.90713C38.7271 9.90713 35.6021 10.6498 32.8615 12.1724L34.1366 14.4676ZM42.1991 12.5329C45.1647 12.5329 47.7631 13.1692 50.0278 14.4111L51.2903 12.1089C48.595 10.6308 45.5534 9.90713 42.1991 9.90713V12.5329ZM50.0355 14.4153C52.3302 15.6537 54.0853 17.4089 55.3237 19.7035L57.6344 18.4565C56.1528 15.7111 54.0279 13.5863 51.2826 12.1046L50.0355 14.4153ZM55.3358 19.7254C56.61 21.9826 57.2662 24.6145 57.2662 27.66H59.8919C59.8919 24.2255 59.1481 21.1374 57.6223 18.4346L55.3358 19.7254ZM51.1917 25.2357C51.1454 22.7342 50.2217 20.6427 48.3847 19.0958L46.6934 21.1042C47.8964 22.1173 48.5327 23.4658 48.5664 25.2843L51.1917 25.2357ZM48.3999 19.1087C46.6182 17.5615 44.4437 16.8071 41.9591 16.8071V19.4329C43.8744 19.4329 45.4199 19.9985 46.6782 21.0913L48.3999 19.1087ZM41.9591 16.8071C39.5853 16.8071 37.5071 17.5474 35.8068 19.0588L37.5513 21.0212C38.731 19.9726 40.1728 19.4329 41.9591 19.4329V16.8071ZM35.8086 19.0572C34.1292 20.5447 33.1538 22.5936 32.7994 25.0743L35.3987 25.4457C35.6843 23.4464 36.429 22.0153 37.5495 21.0228L35.8086 19.0572ZM34.0991 26.5729H49.8791V23.9471H34.0991V26.5729ZM74.4903 18.66V17.3471H73.1774V18.66H74.4903ZM75.2703 37.2L74.342 38.1283L74.3776 38.164L74.4159 38.1968L75.2703 37.2ZM81.9303 37.92H83.2432V36.6071H81.9303V37.92ZM81.9303 45V46.3129H83.2432V45H81.9303ZM66.0303 18.66H67.3432V17.3471H66.0303V18.66ZM62.0703 18.66H60.7574V19.9729H62.0703V18.66ZM62.0703 11.76V10.4471H60.7574V11.76H62.0703ZM66.0303 11.76V13.0729H67.3432V11.76H66.0303ZM66.0303 3.54V2.22713H64.7174V3.54H66.0303ZM74.4903 3.54H75.8032V2.22713H74.4903V3.54ZM74.4903 11.76H73.1774V13.0729H74.4903V11.76ZM81.9303 11.76H83.2432V10.4471H81.9303V11.76ZM81.9303 18.66V19.9729H83.2432V18.66H81.9303ZM73.1774 18.66V34.74H75.8032V18.66H73.1774ZM73.1774 34.74C73.1774 36.0293 73.473 37.2594 74.342 38.1283L76.1986 36.2717C76.0276 36.1006 75.8032 35.6907 75.8032 34.74H73.1774ZM74.4159 38.1968C75.3353 38.9848 76.6464 39.2329 78.0303 39.2329V36.6071C76.8542 36.6071 76.3253 36.3752 76.1247 36.2032L74.4159 38.1968ZM78.0303 39.2329H81.9303V36.6071H78.0303V39.2329ZM80.6174 37.92V45H83.2432V37.92H80.6174ZM81.9303 43.6871H76.6503V46.3129H81.9303V43.6871ZM76.6503 43.6871C73.3034 43.6871 71.0361 42.8737 69.6003 41.4785C68.1714 40.09 67.3432 37.9079 67.3432 34.68H64.7174C64.7174 38.3321 65.6592 41.31 67.7704 43.3615C69.8745 45.4063 72.9172 46.3129 76.6503 46.3129V43.6871ZM67.3432 34.68V18.66H64.7174V34.68H67.3432ZM66.0303 17.3471H62.0703V19.9729H66.0303V17.3471ZM63.3832 18.66V11.76H60.7574V18.66H63.3832ZM62.0703 13.0729H66.0303V10.4471H62.0703V13.0729ZM67.3432 11.76V3.54H64.7174V11.76H67.3432ZM66.0303 4.85286H74.4903V2.22713H66.0303V4.85286ZM73.1774 3.54V11.76H75.8032V3.54H73.1774ZM74.4903 13.0729H81.9303V10.4471H74.4903V13.0729ZM80.6174 11.76V18.66H83.2432V11.76H80.6174ZM81.9303 17.3471H74.4903V19.9729H81.9303V17.3471ZM89.652 3.12V1.80714H88.603L88.3715 2.83036L89.652 3.12ZM98.472 3.12L99.6787 3.63716L100.463 1.80714H98.472V3.12ZM91.992 18.24V19.5529H92.8577L93.1987 18.7572L91.992 18.24ZM86.232 18.24L84.9515 17.9504L84.589 19.5529H86.232V18.24ZM89.652 4.43286H98.472V1.80714H89.652V4.43286ZM97.2653 2.60284L90.7853 17.7228L93.1987 18.7572L99.6787 3.63716L97.2653 2.60284ZM91.992 16.9271H86.232V19.5529H91.992V16.9271ZM87.5125 18.5296L90.9325 3.40964L88.3715 2.83036L84.9515 17.9504L87.5125 18.5296ZM109.895 44.1L109.344 45.2914L109.353 45.2956L109.362 45.2997L109.895 44.1ZM104.735 40.08L103.679 40.8596L103.685 40.8677L103.691 40.8757L104.735 40.08ZM102.695 34.5V33.1871H101.303L101.385 34.5771L102.695 34.5ZM111.155 34.5L112.458 34.3372L112.314 33.1871H111.155V34.5ZM113.015 37.68L112.209 38.7163L112.219 38.7234L112.228 38.7303L113.015 37.68ZM120.875 37.98L120.126 36.9023L120.114 36.9101L120.103 36.9182L120.875 37.98ZM120.575 33.12L119.971 34.2855L119.997 34.2987L120.023 34.3108L120.575 33.12ZM115.355 31.32L115.694 30.0515L115.679 30.0475L115.664 30.0439L115.355 31.32ZM109.235 29.46L108.737 30.6747L108.748 30.679L109.235 29.46ZM105.155 26.52L104.154 27.3694L104.162 27.3781L104.169 27.3866L105.155 26.52ZM105.035 16.14L103.965 15.3796L103.959 15.3891L103.952 15.3986L105.035 16.14ZM109.595 12.54L109.067 11.3383L109.058 11.3423L109.595 12.54ZM126.095 14.22L125.247 15.2216L125.257 15.23L126.095 14.22ZM129.995 22.2V23.5129H131.405L131.305 22.1065L129.995 22.2ZM121.955 22.2L120.648 22.3189L120.757 23.5129H121.955V22.2ZM120.275 19.08L119.435 20.0886L119.458 20.1074L119.481 20.1253L120.275 19.08ZM112.835 18.72L112.107 17.6276L112.095 17.6359L112.083 17.6445L112.835 18.72ZM113.315 23.64L112.696 24.7973L112.712 24.806L112.728 24.8143L113.315 23.64ZM118.535 25.38L118.212 26.6524L118.217 26.6537L118.535 25.38ZM128.495 30.24L127.482 31.0746L127.495 31.0908L127.509 31.1066L128.495 30.24ZM130.295 35.52H131.608V35.5081L131.608 35.4961L130.295 35.52ZM128.675 40.68L127.605 39.9196L127.599 39.9291L127.592 39.9386L128.675 40.68ZM124.115 44.28L124.633 45.4868L124.644 45.4817L124.115 44.28ZM117.215 44.2271C114.652 44.2271 112.397 43.7753 110.429 42.9003L109.362 45.2997C111.714 46.3447 114.339 46.8529 117.215 46.8529V44.2271ZM110.447 42.9086C108.456 41.9869 106.914 40.7737 105.78 39.2843L103.691 40.8757C105.116 42.7463 107.015 44.2131 109.344 45.2914L110.447 42.9086ZM105.792 39.3004C104.699 37.8202 104.111 36.2032 104.006 34.4229L101.385 34.5771C101.52 36.8768 102.292 38.9798 103.679 40.8596L105.792 39.3004ZM102.695 35.8129H111.155V33.1871H102.695V35.8129ZM109.853 34.6628C110.059 36.3109 110.873 37.6769 112.209 38.7163L113.821 36.6437C112.998 36.0031 112.572 35.2491 112.458 34.3372L109.853 34.6628ZM112.228 38.7303C113.612 39.7687 115.282 40.2529 117.155 40.2529V37.6271C115.749 37.6271 114.659 37.2713 113.803 36.6297L112.228 38.7303ZM117.155 40.2529C118.908 40.2529 120.46 39.9055 121.648 39.0418L120.103 36.9182C119.531 37.3345 118.603 37.6271 117.155 37.6271V40.2529ZM121.625 39.0577C122.848 38.2068 123.568 37.0068 123.568 35.52H120.943C120.943 36.0332 120.743 36.4732 120.126 36.9023L121.625 39.0577ZM123.568 35.52C123.568 34.7405 123.362 34.001 122.911 33.3571C122.468 32.7238 121.843 32.2612 121.128 31.9292L120.023 34.3108C120.427 34.4988 120.643 34.6962 120.76 34.8629C120.869 35.019 120.943 35.2195 120.943 35.52H123.568ZM121.18 31.9545C119.967 31.3255 118.111 30.6962 115.694 30.0515L115.017 32.5885C117.4 33.2238 119.024 33.7945 119.971 34.2855L121.18 31.9545ZM115.664 30.0439C113.219 29.4524 111.244 28.8496 109.723 28.241L108.748 30.679C110.427 31.3504 112.532 31.9876 115.047 32.596L115.664 30.0439ZM109.734 28.2454C108.369 27.6855 107.174 26.8279 106.142 25.6534L104.169 27.3866C105.457 28.8521 106.982 29.9545 108.737 30.6746L109.734 28.2454ZM106.157 25.6706C105.291 24.6504 104.788 23.2021 104.788 21.18H102.163C102.163 23.6379 102.78 25.7496 104.154 27.3694L106.157 25.6706ZM104.788 21.18C104.788 19.6048 105.228 18.1832 106.119 16.8814L103.952 15.3986C102.763 17.1368 102.163 19.0751 102.163 21.18H104.788ZM106.106 16.9004C107.031 15.5984 108.354 14.5367 110.133 13.7377L109.058 11.3423C106.917 12.3033 105.2 13.6416 103.965 15.3796L106.106 16.9004ZM110.124 13.7417C111.924 12.9496 114.077 12.5329 116.615 12.5329V9.90713C113.794 9.90713 111.267 10.3704 109.067 11.3383L110.124 13.7417ZM116.615 12.5329C120.354 12.5329 123.184 13.4735 125.247 15.2216L126.944 13.2184C124.287 10.9665 120.797 9.90713 116.615 9.90713V12.5329ZM125.257 15.23C127.313 16.9377 128.469 19.2517 128.686 22.2935L131.305 22.1065C131.042 18.4283 129.598 15.4223 126.934 13.21L125.257 15.23ZM129.995 20.8871H121.955V23.5129H129.995V20.8871ZM123.263 22.0811C123.112 20.4169 122.381 19.0313 121.07 18.0347L119.481 20.1253C120.17 20.6487 120.559 21.3431 120.648 22.3189L123.263 22.0811ZM121.116 18.0714C119.855 17.0205 118.226 16.5671 116.375 16.5671V19.1929C117.805 19.1929 118.776 19.5395 119.435 20.0886L121.116 18.0714ZM116.375 16.5671C114.719 16.5671 113.246 16.8682 112.107 17.6276L113.564 19.8124C114.105 19.4518 114.992 19.1929 116.375 19.1929V16.5671ZM112.083 17.6445C110.922 18.4571 110.323 19.6439 110.323 21.06H112.948C112.948 20.4761 113.149 20.1029 113.588 19.7955L112.083 17.6445ZM110.323 21.06C110.323 21.8502 110.524 22.5988 110.955 23.2614C111.381 23.9155 111.987 24.4175 112.696 24.7973L113.935 22.4827C113.524 22.2625 113.29 22.0345 113.156 21.8286C113.027 21.6312 112.948 21.3898 112.948 21.06H110.323ZM112.728 24.8143C113.978 25.4392 115.829 26.0466 118.212 26.6524L118.859 24.1076C116.522 23.5134 114.893 22.9608 113.903 22.4657L112.728 24.8143ZM118.217 26.6537C120.581 27.2447 122.496 27.8469 123.977 28.4546L124.974 26.0254C123.335 25.3531 121.29 24.7153 118.854 24.1063L118.217 26.6537ZM123.977 28.4546C125.328 29.0087 126.493 29.8741 127.482 31.0746L129.509 29.4054C128.258 27.8859 126.743 26.7513 124.974 26.0254L123.977 28.4546ZM127.509 31.1066C128.417 32.139 128.947 33.5738 128.983 35.5439L131.608 35.4961C131.564 33.0662 130.894 30.981 129.482 29.3734L127.509 31.1066ZM128.983 35.52C128.983 37.1761 128.522 38.6287 127.605 39.9196L129.746 41.4404C130.988 39.6913 131.608 37.7039 131.608 35.52H128.983ZM127.592 39.9386C126.714 41.2214 125.405 42.2784 123.587 43.0783L124.644 45.4817C126.826 44.5216 128.557 43.1786 129.759 41.4214L127.592 39.9386ZM123.598 43.0733C121.836 43.8287 119.719 44.2271 117.215 44.2271V46.8529C119.992 46.8529 122.475 46.4113 124.633 45.4867L123.598 43.0733ZM179.988 3.12H181.301V1.80714H179.988V3.12ZM179.988 9.9V11.2129H181.301V9.9H179.988ZM168.828 9.9V8.58713H167.515V9.9H168.828ZM168.828 45V46.3129H170.141V45H168.828ZM160.428 45H159.115V46.3129H160.428V45ZM160.428 9.9H161.741V8.58713H160.428V9.9ZM149.268 9.9H147.955V11.2129H149.268V9.9ZM149.268 3.12V1.80714H147.955V3.12H149.268ZM178.675 3.12V9.9H181.301V3.12H178.675ZM179.988 8.58713H168.828V11.2129H179.988V8.58713ZM167.515 9.9V45H170.141V9.9H167.515ZM168.828 43.6871H160.428V46.3129H168.828V43.6871ZM161.741 45V9.9H159.115V45H161.741ZM160.428 8.58713H149.268V11.2129H160.428V8.58713ZM150.581 9.9V3.12H147.955V9.9H150.581ZM149.268 4.43286H179.988V1.80714H149.268V4.43286ZM185.937 19.32L184.773 18.7115L184.77 18.7186L184.766 18.7257L185.937 19.32ZM191.397 13.32L190.718 12.1959L190.71 12.2012L191.397 13.32ZM205.617 12.72L204.99 13.8736L205 13.8791L205.617 12.72ZM210.117 16.5L209.06 17.2788L211.429 20.4949V16.5H210.117ZM210.117 11.76V10.4471H208.804V11.76H210.117ZM218.577 11.76H219.889V10.4471H218.577V11.76ZM218.577 45V46.3129H219.889V45H218.577ZM210.117 45H208.804V46.3129H210.117V45ZM210.117 40.14H211.429V35.9372L209.037 39.3927L210.117 40.14ZM205.617 44.04L206.233 45.1991L206.242 45.1944L205.617 44.04ZM191.397 43.38L190.695 44.49L190.704 44.4955L191.397 43.38ZM185.937 37.32L184.762 37.9071L184.768 37.9179L184.773 37.9285L185.937 37.32ZM208.917 23.16L207.762 23.7843L207.765 23.791L207.769 23.7976L208.917 23.16ZM205.677 19.8L205.011 20.9316L205.023 20.939L205.036 20.9461L205.677 19.8ZM196.977 19.74L196.321 18.6022L196.321 18.6022L196.977 19.74ZM193.737 23.1L192.595 22.4519L192.589 22.4624L193.737 23.1ZM193.737 33.54L192.575 34.1515L192.584 34.1699L192.595 34.188L193.737 33.54ZM196.977 36.96L196.296 38.0828L196.303 38.0872L196.311 38.0916L196.977 36.96ZM205.677 37.02L206.317 38.1661L206.33 38.159L206.342 38.1516L205.677 37.02ZM208.917 33.66L210.064 34.2976L210.068 34.291L210.071 34.2843L208.917 33.66ZM185.269 28.26C185.269 25.075 185.894 22.3039 187.107 19.9143L184.766 18.7257C183.339 21.5361 182.644 24.725 182.644 28.26H185.269ZM187.1 19.9285C188.361 17.5175 190.025 15.703 192.084 14.4388L190.71 12.2012C188.208 13.737 186.232 15.9225 184.773 18.7115L187.1 19.9285ZM192.075 14.4441C194.18 13.1736 196.524 12.5329 199.137 12.5329V9.90713C196.07 9.90713 193.253 10.6664 190.718 12.1959L192.075 14.4441ZM199.137 12.5329C201.438 12.5329 203.375 12.9958 204.99 13.8735L206.243 11.5665C204.178 10.4442 201.795 9.90713 199.137 9.90713V12.5329ZM205 13.8791C206.729 14.7987 208.07 15.936 209.06 17.2788L211.173 15.7212C209.923 14.024 208.264 12.6413 206.233 11.5609L205 13.8791ZM211.429 16.5V11.76H208.804V16.5H211.429ZM210.117 13.0729H218.577V10.4471H210.117V13.0729ZM217.264 11.76V45H219.889V11.76H217.264ZM218.577 43.6871H210.117V46.3129H218.577V43.6871ZM211.429 45V40.14H208.804V45H211.429ZM209.037 39.3927C208.091 40.7593 206.757 41.9289 204.991 42.8856L206.242 45.1944C208.316 44.0711 209.982 42.6407 211.196 40.8873L209.037 39.3927ZM205 42.8809C203.339 43.7645 201.377 44.2271 199.077 44.2271V46.8529C201.736 46.8529 204.134 46.3155 206.233 45.1991L205 42.8809ZM199.077 44.2271C196.515 44.2271 194.196 43.5721 192.089 42.2645L190.704 44.4955C193.238 46.0679 196.038 46.8529 199.077 46.8529V44.2271ZM192.098 42.27C190.03 40.9643 188.362 39.1251 187.1 36.7115L184.773 37.9285C186.231 40.7149 188.203 42.9157 190.696 44.49L192.098 42.27ZM187.111 36.7329C185.895 34.301 185.269 31.4872 185.269 28.26H182.644C182.644 31.8328 183.338 35.059 184.762 37.9071L187.111 36.7329ZM211.429 28.38C211.429 26.1694 210.996 24.1987 210.064 22.5224L207.769 23.7976C208.438 25.0013 208.804 26.5106 208.804 28.38H211.429ZM210.071 22.5357C209.163 20.8547 207.912 19.5452 206.317 18.6539L205.036 20.9461C206.161 21.5748 207.07 22.5053 207.762 23.7843L210.071 22.5357ZM206.342 18.6684C204.783 17.7511 203.093 17.2871 201.297 17.2871V19.9129C202.62 19.9129 203.85 20.2489 205.011 20.9316L206.342 18.6684ZM201.297 17.2871C199.512 17.2871 197.846 17.7246 196.321 18.6022L197.632 20.8778C198.747 20.2354 199.961 19.9129 201.297 19.9129V17.2871ZM196.321 18.6022C194.775 19.4924 193.537 20.7927 192.595 22.452L194.878 23.748C195.617 22.4473 196.538 21.5076 197.632 20.8778L196.321 18.6022ZM192.589 22.4624C191.66 24.1351 191.224 26.0844 191.224 28.26H193.849C193.849 26.4356 194.214 24.9449 194.884 23.7376L192.589 22.4624ZM191.224 28.26C191.224 30.4379 191.66 32.4141 192.575 34.1515L194.898 32.9285C194.213 31.6259 193.849 30.0821 193.849 28.26H191.224ZM192.595 34.188C193.534 35.8426 194.765 37.1549 196.296 38.0828L197.657 35.8372C196.548 35.1651 195.619 34.1974 194.878 32.892L192.595 34.188ZM196.311 38.0916C197.865 39.0056 199.533 39.4729 201.297 39.4729V36.8471C200.02 36.8471 198.808 36.5144 197.642 35.8284L196.311 38.0916ZM201.297 39.4729C203.08 39.4729 204.761 39.0356 206.317 38.1661L205.036 35.8739C203.872 36.5244 202.633 36.8471 201.297 36.8471V39.4729ZM206.342 38.1516C207.913 37.2275 209.156 35.9329 210.064 34.2976L207.769 33.0224C207.077 34.2671 206.16 35.2125 205.011 35.8884L206.342 38.1516ZM210.071 34.2843C210.995 32.5758 211.429 30.592 211.429 28.38H208.804C208.804 30.248 208.438 31.7842 207.762 33.0357L210.071 34.2843ZM235.181 0.599999H236.493V-0.712864H235.181V0.599999ZM235.181 45V46.3129H236.493V45H235.181ZM226.781 45H225.468V46.3129H226.781V45ZM226.781 0.599999V-0.712864H225.468V0.599999H226.781ZM233.868 0.599999V45H236.493V0.599999H233.868ZM235.181 43.6871H226.781V46.3129H235.181V43.6871ZM228.093 45V0.599999H225.468V45H228.093ZM226.781 1.91286H235.181V-0.712864H226.781V1.91286ZM263.16 45L262.133 45.818L262.527 46.3129H263.16V45ZM251.88 30.84L252.907 30.022L250.567 27.0849V30.84H251.88ZM251.88 45V46.3129H253.193V45H251.88ZM243.48 45H242.167V46.3129H243.48V45ZM243.48 0.599999V-0.712864H242.167V0.599999H243.48ZM251.88 0.599999H253.193V-0.712864H251.88V0.599999ZM251.88 25.86H250.567V29.6341L252.909 26.6748L251.88 25.86ZM263.04 11.76V10.4471H262.405L262.01 10.9452L263.04 11.76ZM273.96 11.76L274.947 12.626L276.859 10.4471H273.96V11.76ZM259.32 28.44L258.333 27.574L257.567 28.4467L258.34 29.3135L259.32 28.44ZM274.08 45V46.3129H277.009L275.06 44.1265L274.08 45ZM264.187 44.182L252.907 30.022L250.853 31.658L262.133 45.818L264.187 44.182ZM250.567 30.84V45H253.193V30.84H250.567ZM251.88 43.6871H243.48V46.3129H251.88V43.6871ZM244.793 45V0.599999H242.167V45H244.793ZM243.48 1.91286H251.88V-0.712864H243.48V1.91286ZM250.567 0.599999V25.86H253.193V0.599999H250.567ZM252.909 26.6748L264.069 12.5748L262.01 10.9452L250.85 25.0452L252.909 26.6748ZM263.04 13.0729H273.96V10.4471H263.04V13.0729ZM272.973 10.894L258.333 27.574L260.307 29.306L274.947 12.626L272.973 10.894ZM258.34 29.3135L273.1 45.8735L275.06 44.1265L260.3 27.5665L258.34 29.3135ZM274.08 43.6871H263.16V46.3129H274.08V43.6871Z" fill="#D8D8D8"/>
</svg>
