<svg width="535" height="259" viewBox="0 0 535 259" fill="none" xmlns="http://www.w3.org/2000/svg">
<path opacity="0.08" d="M36.172 159.997H32.5776V163.592H36.172V159.997ZM36.172 112.168V108.573H32.5776V112.168H36.172ZM36.172 84.6914H32.5776V88.2858H36.172V84.6914ZM36.172 40.1694V36.575H32.5776V40.1694H36.172ZM101.301 97.9208L100.195 94.5009L100.674 101.46L101.301 97.9208ZM0.554379 11.4209V7.82654H-3.04002V11.4209H0.554379ZM0.554379 189H-3.04002V192.594H0.554379V189ZM95.926 136.591C95.926 143.23 93.7125 148 89.9504 151.177C86.0995 154.429 80.1625 156.403 72.044 156.403V163.592C81.2254 163.592 89.0266 161.367 94.5889 156.669C100.24 151.896 103.115 144.963 103.115 136.591H95.926ZM72.044 156.403H36.172V163.592H72.044V156.403ZM39.7664 159.997V112.168H32.5776V159.997H39.7664ZM36.172 115.762H71.2807V108.573H36.172V115.762ZM71.2807 115.762C79.3287 115.762 85.474 117.892 89.5488 121.384C93.5561 124.819 95.926 129.879 95.926 136.591H103.115C103.115 128.039 100.015 120.887 94.2272 115.926C88.5073 111.023 80.5327 108.573 71.2807 108.573V115.762ZM91.601 62.5576C91.601 68.9531 89.5091 73.3782 85.977 76.2885C82.3334 79.2906 76.6522 81.097 68.7366 81.097V88.2858C77.6122 88.2858 85.1604 86.276 90.5483 81.8366C96.0479 77.3053 98.7898 70.6636 98.7898 62.5576H91.601ZM68.7366 81.097H36.172V88.2858H68.7366V81.097ZM39.7664 84.6914V40.1694H32.5776V84.6914H39.7664ZM36.172 43.7638H68.7366V36.575H36.172V43.7638ZM68.7366 43.7638C76.6009 43.7638 82.2829 45.6735 85.9426 48.7662C89.5147 51.7849 91.601 56.3008 91.601 62.5576H98.7898C98.7898 54.5673 96.0422 47.8892 90.5827 43.2755C85.2108 38.7358 77.6635 36.575 68.7366 36.575V43.7638ZM139.241 140.916C139.241 118.499 123.922 98.2791 101.928 94.3815L100.674 101.46C118.877 104.686 132.052 121.61 132.052 140.916H139.241ZM102.408 101.341C120.931 95.3477 135.171 80.6552 135.171 57.215H127.982C127.982 77.0247 116.271 89.2998 100.195 94.5009L102.408 101.341ZM135.171 57.215C135.171 42.9841 129.594 30.4974 118.927 21.6317C108.321 12.8163 92.992 7.82654 73.8248 7.82654V15.0153C91.8017 15.0153 105.348 19.6932 114.332 27.1601C123.255 34.5768 127.982 44.987 127.982 57.215H135.171ZM73.8248 7.82654H0.554379V15.0153H73.8248V7.82654ZM-3.04002 11.4209V189H4.14877V11.4209H-3.04002ZM0.554379 192.594H77.1322V185.406H0.554379V192.594ZM77.1322 192.594C96.1973 192.594 111.724 187.464 122.547 178.29C133.426 169.069 139.241 156.018 139.241 140.916H132.052C132.052 154.054 127.055 165.045 117.899 172.806C108.688 180.614 94.9567 185.406 77.1322 185.406V192.594ZM164.033 189H160.439V192.594H164.033V189ZM199.651 189V192.594H203.245V189H199.651ZM199.651 0.735658H203.245V-2.85874H199.651V0.735658ZM164.033 0.735658V-2.85874H160.439V0.735658H164.033ZM164.033 192.594H199.651V185.406H164.033V192.594ZM203.245 189V0.735658H196.057V189H203.245ZM199.651 -2.85874H164.033V4.33005H199.651V-2.85874ZM160.439 0.735658V189H167.628V0.735658H160.439ZM374.546 118.528C374.546 95.3733 366.256 76.225 352.463 62.8693C338.688 49.5317 319.635 42.1721 298.444 42.1721V49.3608C317.959 49.3608 335.159 56.121 347.462 68.0338C359.746 79.9284 367.357 97.1609 367.357 118.528H374.546ZM298.444 42.1721C277.253 42.1721 258.2 49.5317 244.425 62.8693C230.632 76.225 222.343 95.3733 222.343 118.528H229.531C229.531 97.1609 237.142 79.9284 249.426 68.0338C261.729 56.121 278.929 49.3608 298.444 49.3608V42.1721ZM222.343 118.528C222.343 141.525 230.356 160.666 243.888 174.064C257.41 187.45 276.221 194.884 297.426 194.884V187.695C277.926 187.695 260.993 180.882 248.946 168.955C236.909 157.038 229.531 139.799 229.531 118.528H222.343ZM297.426 194.884C340.212 194.884 374.546 164.937 374.546 118.528H367.357C367.357 160.654 336.561 187.695 297.426 187.695V194.884ZM265.658 118.528C265.658 105.145 269.682 95.6697 275.534 89.5637C281.396 83.4483 289.388 80.399 297.935 80.399V73.2102C287.656 73.2102 277.712 76.9029 270.345 84.5892C262.968 92.2851 258.469 103.672 258.469 118.528H265.658ZM297.935 80.399C306.489 80.399 314.621 83.4538 320.615 89.5883C326.589 95.7039 330.722 105.175 330.722 118.528H337.911C337.911 103.642 333.266 92.2509 325.757 84.5647C318.266 76.8974 308.208 73.2102 297.935 73.2102V80.399ZM330.722 118.528C330.722 131.717 326.486 141.19 320.378 147.354C314.244 153.545 305.969 156.657 297.426 156.657V163.846C307.71 163.846 317.881 160.089 325.485 152.414C333.115 144.713 337.911 133.325 337.911 118.528H330.722ZM297.426 156.657C288.768 156.657 280.921 153.557 275.22 147.435C269.513 141.306 265.658 131.821 265.658 118.528H258.469C258.469 133.22 262.754 144.597 269.959 152.334C277.17 160.077 287.004 163.846 297.426 163.846V156.657ZM498.843 168.138H502.437V156.565L495.881 166.102L498.843 168.138ZM429.388 206.3L432.85 205.331L432.115 202.706H429.388V206.3ZM394.025 206.3V202.706H390.013L390.452 206.694L394.025 206.3ZM534.715 48.0562H538.309V44.4618H534.715V48.0562ZM498.843 48.0562V44.4618H495.248V48.0562H498.843ZM498.843 68.1546L495.881 70.191L502.437 79.7274V68.1546H498.843ZM384.325 118.019C384.325 163.674 414.102 194.884 452.285 194.884V187.695C418.725 187.695 391.514 160.39 391.514 118.019H384.325ZM452.285 194.884C475.68 194.884 492.784 183.296 501.805 170.175L495.881 166.102C488.111 177.404 473.158 187.695 452.285 187.695V194.884ZM495.248 168.138V190.018H502.437V168.138H495.248ZM495.248 190.018C495.248 202.416 491.655 210.732 486.26 215.963C480.838 221.219 473.121 223.822 463.988 223.822V231.01C474.445 231.01 484.155 228.016 491.264 221.124C498.398 214.207 502.437 203.824 502.437 190.018H495.248ZM463.988 223.822C447.178 223.822 435.831 215.979 432.85 205.331L425.927 207.269C430.069 222.062 445.181 231.01 463.988 231.01V223.822ZM429.388 202.706H394.025V209.894H429.388V202.706ZM390.452 206.694C392.345 223.859 400.7 237.806 413.85 247.397C426.941 256.945 444.589 262.049 465.006 262.049V254.86C445.735 254.86 429.674 250.041 418.086 241.589C406.559 233.181 399.268 221.051 397.598 205.906L390.452 206.694ZM465.006 262.049C488.977 262.049 507.411 254.187 519.839 241.013C532.23 227.877 538.309 209.819 538.309 190.018H531.12C531.12 208.378 525.496 224.539 514.609 236.08C503.758 247.584 487.338 254.86 465.006 254.86V262.049ZM538.309 190.018V48.0562H531.12V190.018H538.309ZM534.715 44.4618H498.843V51.6505H534.715V44.4618ZM495.248 48.0562V68.1546H502.437V48.0562H495.248ZM501.805 66.1183C492.725 52.9113 475.578 42.1721 452.285 42.1721V49.3608C473.26 49.3608 488.169 58.9745 495.881 70.191L501.805 66.1183ZM452.285 42.1721C414.166 42.1721 384.325 72.2936 384.325 118.019H391.514C391.514 75.7186 418.661 49.3608 452.285 49.3608V42.1721ZM495.248 118.528C495.248 131.055 491.091 140.482 484.925 146.762C478.738 153.062 470.331 156.403 461.444 156.403V163.592C472.147 163.592 482.439 159.554 490.054 151.798C497.69 144.022 502.437 132.714 502.437 118.528H495.248ZM461.444 156.403C444.47 156.403 427.895 142.871 427.895 118.019H420.706C420.706 146.594 440.257 163.592 461.444 163.592V156.403ZM427.895 118.019C427.895 105.51 432.103 96.219 438.259 90.0633C444.443 83.8789 452.795 80.6534 461.444 80.6534V73.4646C451.012 73.4646 440.793 77.3627 433.175 84.9801C425.529 92.6263 420.706 103.815 420.706 118.019H427.895ZM461.444 80.6534C470.331 80.6534 478.738 83.9939 484.925 90.2944C491.091 96.5743 495.248 106.001 495.248 118.528H502.437C502.437 104.342 497.69 93.0342 490.054 85.2578C482.439 77.5021 472.147 73.4646 461.444 73.4646V80.6534Z" fill="#D8D8D8"/>
</svg>
